<mxfile host="app.diagrams.net" modified="2023-10-30T07:05:06.351Z" agent="Mozilla/5.0 (Macintosh; Intel Mac OS X 10_15_7) AppleWebKit/537.36 (KHTML, like Gecko) Chrome/118.0.0.0 Safari/537.36" etag="isM-H2C5NsnoCoYU1uSQ" version="22.0.8" type="github">
  <diagram name="第 1 页" id="XwyXtLiTSCjEhpWMpxt5">
    <mxGraphModel dx="1133" dy="1903" grid="1" gridSize="10" guides="1" tooltips="1" connect="1" arrows="1" fold="1" page="1" pageScale="1" pageWidth="827" pageHeight="1169" math="0" shadow="0">
      <root>
        <mxCell id="0" />
        <mxCell id="1" parent="0" />
        <mxCell id="brs4Lbw3h4MbE__pO9lw-3" value="" style="edgeStyle=orthogonalEdgeStyle;rounded=0;orthogonalLoop=1;jettySize=auto;html=1;" edge="1" parent="1" source="brs4Lbw3h4MbE__pO9lw-1" target="brs4Lbw3h4MbE__pO9lw-2">
          <mxGeometry relative="1" as="geometry" />
        </mxCell>
        <mxCell id="brs4Lbw3h4MbE__pO9lw-1" value="启动类:SalesToolWebApplication" style="whiteSpace=wrap;html=1;aspect=fixed;" vertex="1" parent="1">
          <mxGeometry x="70" y="190" width="200" height="200" as="geometry" />
        </mxCell>
        <mxCell id="brs4Lbw3h4MbE__pO9lw-5" value="" style="edgeStyle=orthogonalEdgeStyle;rounded=0;orthogonalLoop=1;jettySize=auto;html=1;" edge="1" parent="1" source="brs4Lbw3h4MbE__pO9lw-2" target="brs4Lbw3h4MbE__pO9lw-4">
          <mxGeometry relative="1" as="geometry" />
        </mxCell>
        <mxCell id="brs4Lbw3h4MbE__pO9lw-2" value="外部feign:&amp;nbsp;EnableFeignClients" style="whiteSpace=wrap;html=1;aspect=fixed;" vertex="1" parent="1">
          <mxGeometry x="350" y="190" width="200" height="200" as="geometry" />
        </mxCell>
        <mxCell id="brs4Lbw3h4MbE__pO9lw-7" value="" style="edgeStyle=orthogonalEdgeStyle;rounded=0;orthogonalLoop=1;jettySize=auto;html=1;" edge="1" parent="1" source="brs4Lbw3h4MbE__pO9lw-4" target="brs4Lbw3h4MbE__pO9lw-6">
          <mxGeometry relative="1" as="geometry" />
        </mxCell>
        <mxCell id="brs4Lbw3h4MbE__pO9lw-4" value="内部Component:&amp;nbsp;@SpringBootApplication&lt;br&gt;(scanBasePackages )" style="whiteSpace=wrap;html=1;aspect=fixed;" vertex="1" parent="1">
          <mxGeometry x="630" y="190" width="200" height="200" as="geometry" />
        </mxCell>
        <mxCell id="brs4Lbw3h4MbE__pO9lw-9" value="" style="edgeStyle=orthogonalEdgeStyle;rounded=0;orthogonalLoop=1;jettySize=auto;html=1;" edge="1" parent="1" source="brs4Lbw3h4MbE__pO9lw-6" target="brs4Lbw3h4MbE__pO9lw-8">
          <mxGeometry relative="1" as="geometry" />
        </mxCell>
        <mxCell id="brs4Lbw3h4MbE__pO9lw-6" value="内部校验Servlet :&lt;br&gt;&lt;div&gt;@ServletComponentScan&lt;/div&gt;&lt;div&gt;(basePackages = &quot;com.baijia.tongbao.auth&quot;)&lt;/div&gt;&lt;div&gt;&lt;br&gt;&lt;/div&gt;" style="whiteSpace=wrap;html=1;aspect=fixed;" vertex="1" parent="1">
          <mxGeometry x="910" y="190" width="200" height="200" as="geometry" />
        </mxCell>
        <mxCell id="brs4Lbw3h4MbE__pO9lw-11" value="" style="edgeStyle=orthogonalEdgeStyle;rounded=0;orthogonalLoop=1;jettySize=auto;html=1;" edge="1" parent="1" source="brs4Lbw3h4MbE__pO9lw-8" target="brs4Lbw3h4MbE__pO9lw-10">
          <mxGeometry relative="1" as="geometry" />
        </mxCell>
        <mxCell id="brs4Lbw3h4MbE__pO9lw-8" value="apollo:&amp;nbsp;EnableApolloConfig" style="whiteSpace=wrap;html=1;aspect=fixed;" vertex="1" parent="1">
          <mxGeometry x="1190" y="190" width="200" height="200" as="geometry" />
        </mxCell>
        <mxCell id="brs4Lbw3h4MbE__pO9lw-13" value="" style="edgeStyle=orthogonalEdgeStyle;rounded=0;orthogonalLoop=1;jettySize=auto;html=1;" edge="1" parent="1" source="brs4Lbw3h4MbE__pO9lw-10" target="brs4Lbw3h4MbE__pO9lw-12">
          <mxGeometry relative="1" as="geometry" />
        </mxCell>
        <mxCell id="brs4Lbw3h4MbE__pO9lw-10" value="cloud的eureka:&amp;nbsp;EnableEurekaClient" style="whiteSpace=wrap;html=1;aspect=fixed;" vertex="1" parent="1">
          <mxGeometry x="1470" y="190" width="200" height="200" as="geometry" />
        </mxCell>
        <mxCell id="brs4Lbw3h4MbE__pO9lw-15" value="" style="edgeStyle=orthogonalEdgeStyle;rounded=0;orthogonalLoop=1;jettySize=auto;html=1;" edge="1" parent="1" source="brs4Lbw3h4MbE__pO9lw-12" target="brs4Lbw3h4MbE__pO9lw-14">
          <mxGeometry relative="1" as="geometry" />
        </mxCell>
        <mxCell id="brs4Lbw3h4MbE__pO9lw-12" value="开启定时任务:&amp;nbsp;EnableScheduling" style="whiteSpace=wrap;html=1;aspect=fixed;" vertex="1" parent="1">
          <mxGeometry x="1750" y="190" width="200" height="200" as="geometry" />
        </mxCell>
        <mxCell id="brs4Lbw3h4MbE__pO9lw-14" value="开启异步:&amp;nbsp;EnableAsync" style="whiteSpace=wrap;html=1;aspect=fixed;" vertex="1" parent="1">
          <mxGeometry x="2030" y="190" width="200" height="200" as="geometry" />
        </mxCell>
        <mxCell id="brs4Lbw3h4MbE__pO9lw-18" value="" style="edgeStyle=orthogonalEdgeStyle;rounded=0;orthogonalLoop=1;jettySize=auto;html=1;" edge="1" parent="1" source="brs4Lbw3h4MbE__pO9lw-16" target="brs4Lbw3h4MbE__pO9lw-17">
          <mxGeometry relative="1" as="geometry" />
        </mxCell>
        <mxCell id="brs4Lbw3h4MbE__pO9lw-16" value="内部校验Servlet :&lt;br&gt;&lt;div&gt;@ServletComponentScan&lt;/div&gt;&lt;div&gt;(basePackages = &quot;com.baijia.tongbao.auth&quot;)&lt;/div&gt;&lt;div&gt;&lt;br&gt;&lt;/div&gt;" style="whiteSpace=wrap;html=1;aspect=fixed;" vertex="1" parent="1">
          <mxGeometry x="70" y="550" width="200" height="200" as="geometry" />
        </mxCell>
        <mxCell id="brs4Lbw3h4MbE__pO9lw-17" value="LogIdFilter: 设置trace, 使用MDC, key为logger_id&lt;span style=&quot;background-color: initial;&quot;&gt;,&amp;nbsp; value为UUID, Servlet废弃时删除MDC的Key&lt;/span&gt;" style="whiteSpace=wrap;html=1;aspect=fixed;" vertex="1" parent="1">
          <mxGeometry x="350" y="430" width="200" height="200" as="geometry" />
        </mxCell>
        <mxCell id="brs4Lbw3h4MbE__pO9lw-19" value="" style="edgeStyle=orthogonalEdgeStyle;rounded=0;orthogonalLoop=1;jettySize=auto;html=1;entryX=0;entryY=0.5;entryDx=0;entryDy=0;" edge="1" parent="1" target="brs4Lbw3h4MbE__pO9lw-20">
          <mxGeometry relative="1" as="geometry">
            <mxPoint x="280" y="650" as="sourcePoint" />
            <mxPoint x="310" y="780" as="targetPoint" />
            <Array as="points">
              <mxPoint x="270" y="650" />
              <mxPoint x="270" y="651" />
              <mxPoint x="310" y="651" />
              <mxPoint x="310" y="820" />
            </Array>
          </mxGeometry>
        </mxCell>
        <mxCell id="brs4Lbw3h4MbE__pO9lw-20" value="FilterConfig: 使用RequestLogFilter过滤器统计:&lt;br&gt;&lt;span style=&quot;&quot;&gt;&lt;span style=&quot;&quot;&gt;&amp;nbsp;&amp;nbsp;&amp;nbsp;&amp;nbsp;&lt;/span&gt;&lt;/span&gt;请求统计过滤器&lt;div&gt;&amp;nbsp;1. 请求耗时&lt;/div&gt;&lt;div&gt;&lt;span style=&quot;background-color: initial;&quot;&gt;2. url&lt;/span&gt;&lt;/div&gt;&lt;div&gt;&amp;nbsp;3. 请求体&lt;/div&gt;&lt;div&gt;4. 响应体&lt;/div&gt;&lt;div&gt;5. 客户端IP&lt;/div&gt;" style="whiteSpace=wrap;html=1;aspect=fixed;" vertex="1" parent="1">
          <mxGeometry x="350" y="720" width="200" height="200" as="geometry" />
        </mxCell>
        <mxCell id="brs4Lbw3h4MbE__pO9lw-22" value="" style="shape=image;verticalLabelPosition=bottom;labelBackgroundColor=default;verticalAlign=top;aspect=fixed;imageAspect=0;image=data:image/png,iVBORw0KGgoAAAANSUhEUgAAA9AAAAKGCAIAAAAtbOThAAAMY2lDQ1BJQ0MgUHJvZmlsZQAASImVVwdUU8kanltSSWiBCEgJvYkiNYCUEFoEAamCqIQkkFBiTAgqdnRZBdcuoljRVRFFV1dA1oKIa10Ue99YUFHWxVVsqLwJCei6r5w358yd7/7zz/eXOzN3BgA9FV8my0f1ASiQFsoTIkNZ49LSWaQngABoAAArYM8XKGSc+PgY+AYG2r+XN9cAom4vu6m5/tn/X4uhUKQQAIBkQJwlVAgKIG4GAC8RyOSFABDDoNx2aqFMjcUQG8mhgxDPVOMcDV6mxlkavK1fJymBC3EjAGQany/PAUC3FcpZRYIcyKP7CGJ3qVAiBUDPCOIggZgvhDgJ4mEFBZPVeC7ETlBfBvFOiNlZX3Hm/I0/a5Cfz88ZxJq4+gs5TKKQ5fOn/5+p+d+lIF85YMMBVppYHpWgjh/m8Ebe5Gg1hl8R6ZJmxcapcw3xO4lQk3cAUKpYGZWs0UfNBQouzB9gQuwu5IdFQ2wOcYQ0PzZGK8/KlkTwIIazBZ0mKeQlaccuFCnCE7Wc6+WTE+IGcLacy9GOrePL++2q9VuVeckcLf8NsYg3wP+6WJyUCjEVAIxaJEmJhVgXYiNFXmK0RgezKRZzYwd05MoEtf92ELNF0shQDT+WkS2PSNDqywoUA/FipWIJL1aLKwvFSVGa/GC7BPx+/00grhdJOckDPCLFuJiBWISisHBN7FibSJqsjRe7JysMTdCO7Zblx2v1cbIoP1Itt4HYTFGUqB2LjyqEk1PDj8fICuOTNH7imbn80fEaf/AiEAO4IAywgBLWLDAZ5AJJW1dDF3zT9EQAPpCDHCACblrJwIjU/h4pfCaCYvAHRCKgGBwX2t8rAkVQ/mlQqnm6gez+3qL+EXngMcQFIBrkw3dl/yjpoLUU8AhKJP+wLoC+5sOq7vunjAMlMVqJcoCXpTegSQwnhhGjiBFEZ9wMD8ID8Bj4DIHVA2fjfgPeftEnPCa0Ex4QrhJUhJuTJCXyb3wZA1SQP0IbcdbXEeMOkNMbD8UDITtkxpm4GXDDvaAdDh4MLXtDKVfrtzp21r+JczCCr3Ku1aO4U1DKEEoIxenbkbouut6DLOqMfp0fja9Zg1nlDvZ8a5/7VZ6FsI3+VhNbiB3ATmHHsTPYYawBsLBjWCN2HjuixoNz6FH/HBqwltDvTx7kkfzDHl9rU51JhXute6f7R20fKBRNK1QvMO5k2XS5JEdcyOLAv4CIxZMKhg9jebh7eAKg/qdotqlXzP5/BcI8+0U2H67lQGlfX9/hL7LoDwD8bA2XueqLzPES3A7gfnx6uUApL9LIcPWDAHcDPbiiTIElsAVOMCIP4AMCQAgIB6NBHEgCaWAizLMYzmc5mApmgnmgFJSDZWA1WAc2ga1gJ9gD9oMGcBgcB7+Cc+AiuApuw/nTAZ6DbvAG9CIIQkLoCAMxRawQe8QV8UDYSBASjsQgCUgakonkIFJEicxE5iPlyApkHbIFqUF+Qg4hx5EzSDtyE7mPdCJ/IR9QDKWhRqgF6oCOQNkoB41Gk9AJaA46BS1GF6BL0Eq0Gt2N1qPH0XPoVVSFPkd7MIDpYEzMGnPD2BgXi8PSsWxMjs3GyrAKrBqrw5rgl76MqbAu7D1OxBk4C3eDczgKT8YF+BR8Nr4YX4fvxOvxVvwyfh/vxj8T6ARzgivBn8AjjCPkEKYSSgkVhO2Eg4STcDV1EN4QiUQm0ZHoC1djGjGXOIO4mLiBuJfYTGwnPiT2kEgkU5IrKZAUR+KTCkmlpLWk3aRjpEukDtI7sg7ZiuxBjiCnk6XkEnIFeRf5KPkS+Qm5l6JPsaf4U+IoQsp0ylLKNkoT5QKlg9JLNaA6UgOpSdRc6jxqJbWOepJ6h/pKR0fHRsdPZ6yORGeuTqXOPp3TOvd13tMMaS40Li2DpqQtoe2gNdNu0l7R6XQHegg9nV5IX0KvoZ+g36O/02XoDtfl6Qp15+hW6dbrXtJ9oUfRs9fj6E3UK9ar0Dugd0GvS5+i76DP1efrz9av0j+kf12/x4BhMNIgzqDAYLHBLoMzBk8NSYYOhuGGQsMFhlsNTxg+ZGAMWwaXIWDMZ2xjnGR0GBGNHI14RrlG5UZ7jNqMuo0Njb2MU4ynGVcZHzFWMTGmA5PHzGcuZe5nXmN+GGIxhDNENGTRkLohl4a8NRlqEmIiMikz2Wty1eSDKcs03DTPdLlpg+ldM9zMxWys2VSzjWYnzbqGGg0NGCoYWjZ0/9Bb5qi5i3mC+QzzrebnzXssLC0iLWQWay1OWHRZMi1DLHMtV1ketey0YlgFWUmsVlkds3rGMmZxWPmsSlYrq9va3DrKWmm9xbrNutfG0SbZpsRmr81dW6ot2zbbdpVti223nZXdGLuZdrV2t+wp9mx7sf0a+1P2bx0cHVIdvndocHjqaOLIcyx2rHW840R3Cnaa4lTtdMWZ6Mx2znPe4HzRBXXxdhG7VLlccEVdfVwlrhtc24cRhvkNkw6rHnbdjebGcStyq3W7P5w5PGZ4yfCG4S9G2I1IH7F8xKkRn9293fPdt7nfHmk4cvTIkpFNI//ycPEQeFR5XPGke0Z4zvFs9Hzp5eol8trodcOb4T3G+3vvFu9PPr4+cp86n05fO99M3/W+19lG7Hj2YvZpP4JfqN8cv8N+7/19/Av99/v/GeAWkBewK+DpKMdRolHbRj0MtAnkB24JVAWxgjKDNgepgq2D+cHVwQ9CbEOEIdtDnnCcObmc3ZwXoe6h8tCDoW+5/txZ3OYwLCwyrCysLdwwPDl8Xfi9CJuInIjaiO5I78gZkc1RhKjoqOVR13kWPAGvhtc92nf0rNGt0bToxOh10Q9iXGLkMU1j0DGjx6wccyfWPlYa2xAH4nhxK+PuxjvGT4n/ZSxxbPzYqrGPE0YmzEw4lchInJS4K/FNUmjS0qTbyU7JyuSWFL2UjJSalLepYakrUlXjRoybNe5cmlmaJK0xnZSekr49vWd8+PjV4zsyvDNKM65NcJwwbcKZiWYT8ycemaQ3iT/pQCYhMzVzV+ZHfhy/mt+Txctan9Ut4ArWCJ4LQ4SrhJ2iQNEK0ZPswOwV2U9zAnNW5nSKg8UV4i4JV7JO8jI3KndT7tu8uLwdeX35qfl7C8gFmQWHpIbSPGnrZMvJ0ya3y1xlpTLVFP8pq6d0y6Pl2xWIYoKisdAIHt7PK52U3ynvFwUVVRW9m5oy9cA0g2nSaeenu0xfNP1JcUTxjzPwGYIZLTOtZ86beX8WZ9aW2cjsrNktc2znLJjTMTdy7s551Hl5834rcS9ZUfJ6fur8pgUWC+YuePhd5He1pbql8tLr3wd8v2khvlCysG2R56K1iz6XCcvOlruXV5R/XCxYfPaHkT9U/tC3JHtJ21KfpRuXEZdJl11bHrx85wqDFcUrHq4cs7J+FWtV2arXqyetPlPhVbFpDXWNco2qMqayca3d2mVrP64Tr7taFVq1d735+kXr324Qbri0MWRj3SaLTeWbPmyWbL6xJXJLfbVDdcVW4tairY+3pWw79SP7x5rtZtvLt3/aId2h2pmws7XGt6Zml/mupbVorbK2c3fG7ot7wvY01rnVbdnL3Fu+D+xT7nv2U+ZP1/ZH7285wD5Q97P9z+sPMg6W1SP10+u7G8QNqsa0xvZDow+1NAU0Hfxl+C87DlsfrjpifGTpUerRBUf7jhUf62mWNXcdzzn+sGVSy+0T405caR3b2nYy+uTpXyN+PXGKc+rY6cDTh8/4nzl0ln224ZzPufrz3ucP/ub928E2n7b6C74XGi/6XWxqH9V+9FLwpeOXwy7/eoV35dzV2Kvt15Kv3biecV11Q3jj6c38my9vFd3qvT33DuFO2V39uxX3zO9V/+78+16Vj+rI/bD75x8kPrj9UPDw+SPFo48dCx7TH1c8sXpS89Tj6eHOiM6Lz8Y/63gue97bVfqHwR/rXzi9+PnPkD/Pd4/r7ngpf9n31+JXpq92vPZ63dIT33PvTcGb3rdl70zf7XzPfn/qQ+qHJ71TP5I+Vn5y/tT0Ofrznb6Cvj4ZX87vPwpgsKLZ2QD8tQMAehoAjIvw/DBec+frL4jmntqPwH/Cmnthf/EBoA426uM6txmAfbA6zIXcsKqP6kkhAPX0HKzaosj29NBw0eCNh/Cur++VBQCkJgA+yfv6ejf09X2Cd1TsJgDNUzR3TXUhwrvB5iA1umoinAu+KZp76FcxftsCtQde4Nv2X0cViQnXmzW+AAAAOGVYSWZNTQAqAAAACAABh2kABAAAAAEAAAAaAAAAAAACoAIABAAAAAEAAAPQoAMABAAAAAEAAAKGAAAAAAlfUw0AAEAASURBVHgB7J0HgCRFucc3zM7mvbwX4Y5wICgZBBPJBwIqIKAoQZ8C+gwgKIrKAwT1+VCU6EOfgAFBUUEEFR+IiALikXM4OO7g9sLe3d7m2d3Z8H7V325dX09PT9gJPbPfsPRVV1d99dW/qrv/9fVXVRVjfr/169f7RaeIW716dYoUCZezK+jll19OkJQiIruCtEbAmh102kZZQ6e9LmvotNdlDZ32uqyh016XNXTa67KGTntd1tAVsddVVehPEVAEFAFFQBFQBBQBRUARUATyhoAS7rxBq4IVAUVAEVAEFAFFQBFQBBSBigol3NoLFAFFQBFQBBQBRUARUAQUgTwiUIknUKL4WCxWX1+fGB8c09fX19jYGJzGczW7grq6uqZNm+YRFXyaXUFaI1DNDjpto6yh016XNXTa67KGTntd1tBpr8saOu11WUOnvS5r6IrZ63A8T/xlN0+uiK7oiVXwxGiNBBBtI3DIrjPoJJWsodNelzV02uuyhk57XdbQaa/LGjrtdVlDNxV6nbqUMEzSnyKgCCgCioAioAgoAoqAIpAvBJRw5wtZlasIKAKKgCKgCCgCioAioAiAgBJu7QaKgCKgCCgCioAioAgoAopAHhFQwp1HcFW0IqAIKAKKgCKgCCgCioAioIRb+4AioAgoAoqAIqAIKAKKgCKQRwSUcOcRXBWtCCgCioAioAgoAoqAIqAIKOHWPqAIKAKKgCKgCCgCioAioAjkEQEl3HkEV0UrAoqAIqAIKAKKgCKgCCgCSri1DygCioAioAgoAoqAIqAIKAJ5REAJdx7BVdGKgCKgCCgCioAioAgoAoqAEm7tA4qAIqAIKAKKgCKgCCgCikAeEVDCnUdwVbQioAgoAoqAIqAIKAKKgCKghFv7gCKgCCgCioAioAgoAoqAIpBHBJRw5xFcFa0IKAKKgCKgCCgCioAioAgo4dY+oAgoAoqAIqAIKAKKgCKgCOQRgUh7e3ui+O7u7sTIlDE9PT2+0gIyZldQLBYrTEFaI9pO20g6sPa6rDuD3kdZQ6e9LmvotNdlDZ32uqyh016XNXRToddFWltbASjxlyw+MaWNicfjWeTKIktXV1cWubLIojWSxs0COm2jrKHTXpc1dNrrsoZOe13W0Gmvyxo67XVZQ6e9Lmvoitjr1KVEWk2PioAioAgoAoqAIqAIKAKKQF4QUMKdF1hVqCKgCCgCioAioAgoAoqAIiAIKOHWnqAIKAKKgCKgCCgCioAioAjkEQEl3HkEV0UrAoqAIqAIKAKKgCKgCCgCSri1DygCioAioAgoAoqAIqAIKAJ5REAJdx7BVdGKgCKgCCgCioAioAgoAoqAEm7tA4qAIqAIKAKKgCKgCCgCikAeEVDCnUdwVbQioAgoAoqAIqAIKAKKgCKghFv7gCKgCCgCioAioAgoAoqAIpBHBJRw5xFcFa0IKAKKgCKgCCgCioAioAgo4dY+oAgoAoqAIqAIKAKKgCKgCOQRASXceQRXRSsCioAioAgoAoqAIqAIKAJKuLUPKAKKgCKgCCgCioAioAgoAnlEQAl3HsFV0YqAIqAIKAKKgCKgCCgCikAkfQhig/Hu3oHe/sGevoGRkdGqqsoqfpUcK6urTWjjhs6hijqC1c4lc6x2hasqyTU8MjoyOkZAwu0bOrsHTPzIKJec+NHRsbGK2mh1bU0kGo1wrI1GooRrqmsiyK5MpvBQfGRwKD44NDwYHx4aGhniSIxzJNzRsXluay+iRKAJOH8N9VFiksnU+PJDgP61sbOvs7+9syfWPzA0PEzHG6FbVozxH78xup8JmH852v8q1q5d+/TKPuLo83R4OmOKY1UVvY7uTYn0aX7mOFrhCm+J516hzzv9PLJ5U0+0oZdwbY2JCejzKKM/RWCqIcDdOjAYd/6GY0MSiMflRh4ejUSqGutrG+uj8YHYwoVTDRutryKgCIQXgdRc86pf/O3R515/6uW2F1esL3o9IPGRCDynEi5eY2h+JQwb1sQRMpOdejCn+rpoQ11NA0f4dzQCqa90fjCxmkhNZaWcOrHjl8YT1DmsvS5aQ666WkPix0aGW5qbagxVqo5GIhJAT/M+GB6JO3+QPAnYscHGTZtr6//JwIBLJJZfS2PdzGkNM1rqF82dscebFu62dEF2FdRcIPCrux77+6OvPPni6idfamOAV0KY0OGFedOj6GB01/H+4eqKIyMjNTURJ75ivLdWmmHD6Cgj2zEYPwPaxCMdcqyC8YAZbNDrGDSbQfJEgLsL7kJ5NYwuItWUy4h3bHSkvr6OUYCNkXhzGqniljTHicQmQPZIVV9v75zZKyVM5Ja/murX13YMDA5/5sPvKqEWyVTVvthQbGCorb27d7BqhDGXY3GAL2LC4E8C5jgQJ2V/bKgvNkhA/jbwZKirM2M2Z9g2ETCtmRjDI5DmozMwTpNO4vSVikradLzTEDDPrvEmMM+oap5RnMaHBqdPa94qnidtdRXs1vPU4lSeYP2xAUTbpxmwmGGl+cf+NzFudWK5xr+xWKy+rm4cw3H7ydb/yDUnjlsViPr6B+LDY4ZhG3o9jALj2VP9s828GW9ZOv/oQ3b7xAfeliqtXlcEFAFFIL8IRNra2hJL6Onpicfj1/3uketvf3T9pt7WmU277bTgyHfuOmdGU3NjXXNjLW9ZHp08DXno23e5nDoxvAwcSzYnYxWSgGB1dSVvcV4JZCcgb3dew05khYlxDIfoA4GGfQ7GR4bGLdbDcfPcN5xVXgA85QkgHQriMVpLjOG7jl3cOVJgJezW2L9df1hHYrzhBuJYOsf/YkOGu8ubg9fDWDXKmLfIGNzFvC8k7ESYk42bh3kNkEVIPyZ2zOqJeCaLAQrUG6dTxpBvaI0pC9GjY919A5u7+k2xzg9yf8h+23/0fXvvv9s2REgbJZOcLL6rqyvZpWTx2RXU19fn27WSlUJ8dgWlrNEf/v4iPfnp5esYUO22dP5pH9h/Yeu0mdObGMxgCTNM0el144QEPQiZozBXoy+t4UQ5oyy6/Zj5FEP3s0cbMJHmW834JfjFBNcxdvGJsMN+DAcyAiWe3mVHX3SnoWHnE43zoUa+0phI53MN9viJjjjeHekfZBc9zSUT7ehcUSG3lnOjbfWtSW7DcYZdTXUN7UYIf+N3q1NHh1qNcOtx+8VHzHCRqsW6eg3HItI5dcKGgZkPBSbeHA1qmfze9/YlqOrOkV1nCEmvW7Oh+7d/ee6F1zasaOtYsXoT3cNdtXTCDGrETIshINIbd0ZBpqs4AQ4wZvMgnYghYE6RTNs7z8XxvkGD8qN3GJ7PwGp0NG4ixnoNhR1n0jRrPE4YIjtuFOAjZKKSyBc6LmMqBlecjoedQZRzy4zfPnILue8aua3QsbGhwRHuPNcmuq3RHB2df9wHajl7euPCOS0AUl8bxahRV1vDk5CjnGIrwd7BVVGGlwnd0hmrDL6+puO5V9c998raT19yy6XX3X3WR95+7CG7OkUnPZR0r/OtldZIYAnJk0HbyBeBqdNGkYV+X93a29t/fPsT/3X93w7eb+m1Fx783gPfHACTXnIjwAsuzjgBgjJsfFqcAC/c0XHTkWPwc0x9zutqa5LhlmPDeD688voGY5p9se2mPzxy14Mvv+cdu9xxzadoo9bWVpss/YBviwdkz66g/v7+whSE5gEFPfrs62d9586dt5t77QUnfuI4tXIFtHMuLxkON2EHFZouMVsizQ1i/n54ywN/+sdz225rxpDuX+n2ulO+8rPf/N8T1GXHbefw95537MpHqnoIIsSQsR0OeA47JsZhjRwj42HnI5vwbGHPbkAKGeZ5xUPMNNbI+IMLYo3qhdQhh2X95u4nPnPJLV+64q4D9n7TPrt6e5q7oNLtde5auMNaI0EjJO8jd9PYsLbR1Gkjf5eS2+977pJr7zr5vfve8M1TbLfQQDoIYHMyJvYowNamkz5lmunN9fu+eVv+SPnts99/7S0PXHD1H8646OZvffbfUubVBGf+12+wkP3p2k8vmjtd0SgYAjK8TKe42//6dG1tTTopSyLNaRfeBNv+3EkHfuzo/XffuVQ9iM3HxtoqxgMlgXlKJT94+F777LLNOz96+Scvuvmx35yXMr0mUAQUAUUgHwj4Gy1u+tMTOy9pvV7Zdj4gn4RM/Hm+/Il/u/A/jvz5Hct+f99zk5A0JbI++8rax19448JPH6lsO7TtjasMHgKhVS8jxW647Z+/uPORr3/mqO996bjSZdsZVblUEm+/zezzPnEYD4Rnl68tFZ1VT0VAESgzBHwI96tvbHz46dePP2wvZ9ZKmdW3HKpz/qfeM3tG010PvlQOlclnHR5+6jXEH7DHdvksRGVPCgGmQDifgyYlJCSZf3vPk9svmvXVMw4PiT6qhhuBI961C6d3PfC8O1LDioAioAgUDAEfwn3vw4bJHXfYHgVTQgvKFIFjD939Tw8o4U4B28o1HaR4y47zU6TTy8VDwLFwl4PrwqbOPp6cxx22Z/Gw1JKDENh5ydzpLfWvvr4hKJFeUwQUAUUgbwj4EO4VqzdS3K7bz8tboSp4sggwGYulBtZu6J6soLLOD5ljlppn+YuyrnHpVY7lfZg1WHp6J2i8yhnd6dqdCcCEKGL+7GlrN+ozM0QtoqooAlMKAV/CvWnxghlKU8LcD+bPaUG9tRszXuMvzJXKuW4QbtZrz7lYFZhDBFhZuTxcSuRzyuIFM3MIjorKLQKts5rbO3pyK1OlKQKKgCKQJgI+hHvj5l7W204zvyYrCgJN9WYJFHbKKErppVIoq60pRCFvrMFBJk2WiUsJULfObA454FNZPabnMgifygho3RUBRaCICPgQbjgKTKWIOmnRqRFwJrQ6G0WkTjtlU7BvKI43yrnD3AGMhbssXErYHhKc2VE8zGhPcd34lsIk3SkOglZfEVAEioWAH+EeHCoPr8piYVqAcmUzRLM7m/6SIyC+CuzUmDyJXikyAs6kyXJw+2F3Q6BUwl3k/hRYPHvN6vA7ECG9qAgoAnlEwIdwm12tlcjlEfMciJatvIu7HV0OqpFnEbquZZ4BzoF4Jk3WloVLSf+AIdxQuhyAoiLygwDDIfkQkR/xKlURUAQUgSAEfAg3NG5EnRWCQCv+tdGxUZRgV8viqxJ6DfAqCb2OU1dBLNzlMWmyPzZERXSueZi7cmNDba/zISLMSqpuioAiUK4I+BDu6qpKMaCWa53LoF7SQJVVSriDGnPC8SYojV4rLgLx+Ag0tbg65KT0/oG4mrdzgmT+hGDhHhkZVTfu/CGskhUBRSAAAR/CXVVVNTpqDKj6Cy0C4y4llT7NF1qdi6WYGriLhXw65caHR2pqyoNwDynhTqfFi5hGFncSb/siqqFFKwKKwNREwIexqYU7/F1B3CTUhzu4pdTjJhifMFw1hLtMLNxDDfW6uFMY+lRSHRobjId9r7OeTNJEekERUAQUgfwg4EO4ef/xFsxPcSo1NwhMWLjVpSQdPNWHOx2UipNmqFxcSvBVYFvT4oCopaaHQKOzfUFfv5neqj9FQBFQBAqMQKS9vT2hSPVyS4AkZBGjjp9EZ+fm9vbMVkXo6enxa/Gg6nV3Z7MZciwWK0xBATXq6+ujYupSEtS6xb7mLJQ+kNhVSq7XDQ4Oak8rdm9KUb4s2vhG27rZzf5Do5LrdSkqXFGhNRKIwvA+StZY2kZTp40ira2tnn7Q1FjfozYADyghOxUL9+xZsxKbL1jTeDyeaRYEZpGlq6sri1xZZAmoUVOTbpga3B1CcbWhod633X0jgzUuYq+rqYky+yVYPb1aXASaGswGvdG6xoCuFXApmfJF7HXJVHLHa41AQ9tIukQWnSHgDevuZp5wFgVNhTbyeUNEayJ85/XAp6ehQkAs3OrDHdwo4nCjDiXBKBX36ljFWNn4RemcgeL2pZSli4Vbl+JOCZQmUAQUgXwg4EO4aw3h1s358oF2zmSO+3DrsoApEHW4nH7pT4FSMS9HqqqGR8phTSR8Y3QZymL2pDTKnvDhHkwjrSZRBBQBRSDHCPgQ7kikTF6BOYYqTOLGbbdqvE3RKA5AanhMgVIxL9fXRVnBupga5Khsdr3RBZ5zhGW+xMgWS4P6/TZfAKtcRUARCELAh3Czf6EYUIPy6bWiIiBb3ohjSVEVCXXho8q3Q90+RrmGupqYsyl66DVNoeDMaY0dXf0pEunloiIgy8iwnkxRtdDCFQFFYIoi4Ee4zcY3ajsNdYeQTd3HtJkCW2l8tXK1cAeiVNyLZWPhdgh3n3S54kKqpSdDoNpZt7E8XJiS1VHjFQFFILQI+BBu3fgmtK1lFZPpkmrhtoD4BoT9qGetLzghiSwbC/esaQ1AqkbukPQrXzXUwu0Li0YqAopAYRDwIdyQOd3avTDoZ12KkEgl3MEAThDu4FR6tZgIlI+Fe3ojOG7qMku/6y+cCIxbuEfVpSSc7aNaKQJljoAv4a5SJhfyZleXknQaaMKHu2zWnUun0iWWpsFMmiyHnf9mqoU79F1PLdyhbyJVUBEoZwR8CDcuJSPqHBzuRleXknTaR32400GpuGmaGqLlsS4yPtwg2aEW7uL2p8DS1Yc7EB69qAgoAvlFwIdwOy4lOmkyv7hPUrq4lOgMrWAY1aUkGJ8wXGVp5N6y2NdWfbjD0J2CdVALdzA+elURUATyioAv4dZVSvKKeQ6Ei0uJLiYTDKXseKOTJoNRKu5Vdtvu6y+HjUjGLdyd6sNd3A4VVLpauIPQ0WuKgCKQZwR8CbdOmswz6pMWry4l6UA4YeFWH+500CpOmsaGaG+sPAi3rlJSnC6Ufqlq4U4fK02pCCgCOUfAh3CbZQF1N+ycI51TgY8+9zrydB3uYFClG8vXgOCUerVYCDTV1/KhpgzmTdbV1jTWRzu6de+bYnWl1OVOfBjUVUpSY6UpFAFFIOcI+BDumkj1kG5+m3OkcyrwrbstRp462geDKt2Y/hycTK8WEQH5VlMeA3y9H4vYkbRoRUARUARCjoAP4Y7WRFBaOXfIW07VS4lAPD7CR2ShdCkTa4KiIFAeVHscurEK9V4qSi/KsFBtpQwB0+SKgCKQCwR8CbexCA7Fh3MhX2XkBYFK580+pVYp+fujr6xa05ERmkPDwzU1at7OCLPiJK4MHwV6ZvmabLAIX0WyqUV559E2Ku/21dopAmFFILJ8+XKPbj3dncSohdsDS7hOnXfGG6tXL2/OzB+xr6+vvz8zN9NYLNbV1ZVp9cmS2LWChQQU1NM3eNzZN3L8yUXH7vfmhW45ATXq7OyORsznGv2FFoExxzHq1VderavdqqUCOkNAXXLS65Y91/aJi29vndl45blH7rbjXN/ifHsdA2Dlcr5whSRSfH46OjqSPZqK2OvSgci31wVn1BoJPjl5MgRDLVe1jcBBe12yXhdZunSppxvNn7eaGLVwe2AJ1am81xctXLR06Q4ZKdbW1rZw4VaENWX29vb21tbWlMk8CXilJXYtTxrPaUBB3/zhn2HbixfM/PjFt9/z488duO+ONm9AjWpqH1ELtwUqpAGHBO24dMf62hq3hgGdwZ3ME85Jr2uaAcm+vaMr9pGv/fZ/v/6Rjx2zv6cUTpP3OqXciWiFK2bWzJnJHk1F7HXpYJS81yXNrTUSaHLyZEiKsuuCthFgaK9L1ut8XUqMqUkt3K6bKHxB57Uu1sHwKZd7jTp7YwiFZ++x88LDzrgG95J0ysCHO6ouJekgVbw0wyPmEw2e9sVTwVvy/Nkt++++hNHdu/bZ4ZNf/+WNdy7zpkhyzjNTB3hJsNFoRUARUASmOgI+7znhKGrhDnPXEB/uqbNMydEH70ZzHLTPjnf/+HMwoQ9+4fqnXmpL2UAQoKguUZISpqImiA+PUH7YVpJ5bfUmLO93XP0pOPfpF958/W3/TAnS4BBjh9GGuq3s9ClzaYKCIqDryBQUbi1MEVAEtkLAl3CrhXsrjEJ4IpPMps7ro7PHWLinNddPb67HpYTw4Wdck5Jzx3XSZAj77tYqQbhh22GbNNndN9DcUNtQH/391Z88dP+dPvONW66++f6tFfeexQaGiGqoi3ov6LkioAgoAoqAIlBRYbi156cWbg8g4T0tozXVoNTdvQPR+lhXT0zoNQGQl/DTjj0btk0MFu5lv/rSWz/8Xf4g3zvMN5G+P8fC7dPDfRNrZFEQwO0nbOZtcJg3u/nZV9YSaKyv/eO1n/7gOdef+93fYcM+99/fnQyl/oE4l+rVwp0MII1XBBQBRWBqI+BDR3Qd7vB3iQ2be1lh+oJr/lgbjQgxRWfhponKC08lHgvx0OBgtLaWsI2U9J68ViZXN3X2VldX2xhJKdkRKNk90oiMx+M1NSk+r4soN7EWacmOVkk490t/vBAjN/7cHz9mnx9+/VTfLOpT6wtLqCJxxAib3/O6jd0r2zp23WGeAMX2hLdecfrJ5/3s/CvvjA3EL/iPI3wBlM0y1cLtC05IIscnvei81pC0h6qhCEwxBHwItxicxLdyiqFRMtXt6zceozADmK6wXgKLJ9QnxvJj4ixPJdw3MBwbMtPU3Akm8o3/S3Y3k4bduk9t4lR02XDxRCJusxNAYZEsyaY3bakLV7nkzs4pMyZtdi7hz33uZb/7ye+XPf7iOsLuxJIsHh/WSZMWsXAG2Ne9uipdBtQXG6LfdvXyN0CATyIMODEqQ3PNsTa6fkNP67yY7a7ZVVn8sI9615vd2W+69GOU9c0f/fnVNzb+5Jsnuy9JGPs3gbpoikFmYkaNKRgCw8Pm0VdTrWvzFwxyLUgRUAS2IOBDuCMR49gtqwdsSaihMCHQ1GCs1GeedNCZJx8UJr0KqgsM+7qLT9px4fSLrr2baZTi2+3WYDA+Uhf16eHuNBouAALHnPm/a9o7+XQWjUZqqqtGRseYX8iQfmAg/vrazb39g3MP/Kpxj3KIN/Ncobb4dfNdhUj+w67cHxvChJzmQ6m5sW5B67SFrdMWzJlGYM6MJgTyV1lZCWWnOP42dfZt7OyFsnd09o6K5XOsorq6qrmxlkgwOeztb/Igc8M3Tt5hm9mXXHvXG+s2X/3lo7YM/px0o45/V2XagwePcD0tAAIDQ8btp3brFd8LUK4WoQgoAooACPjQEXwVuDA8YlYP0F84EdD3um2Xr3zyqF2XbgPhPv2im+HfNp7AYHy4panOHaPhoiAA8eV5MjQ0QotgCcakzTqALLw9s6UB7hsbjB/3b3vaecB4dQ8Oxbt6+upq64iEJYsNGzN2S1NtC59BzJeQOnNsqsNrqH9wyDDygTjTFle90VYdbVzT3tXW3snx6ZfXbNzc61tlSPnsGY0IgYg3N9XLsj8Q+p6+AUh5Y33038+/ceXdl3jynv/J9/DB57QLbvr3C39793VnuT+qyLavyrc9iIXqVL9ChKo5VBlFYKoh4Eu4zRc3+fpWunDU7nU2yp/78Xd/66z33/m3Z0445/rBJ66QQLJKuRMnS2PjH7nlS7vv5DFy2Yt5D6S5qsPTL7ftd+J3RVUJAwLKXfurf/z2nifuvf6sREXB7beXn/Z+Zxk+OMcv//SYO80V5x3/6Q+/CxivuPG+xOykXzh3OoC7sySGSUbkT7916o5HXvzOvbcnkJgmo5ijD9mNvxvvWLbHTgvdJv+hoeHaGp8enpHw8CQGrsULZiTCHh4Nk2ly7YUnJrt05n/95uY/PpqYIFdbJ8CxOrrh5BD9OO4rfBrij6mQ1tco04JOed9+fDbBpZtufPtVn7T1Qjhhhgc2RgNhQ2BgUNx+yueZEDaEVR9FQBEIQMBnWcCwuZRAAeUPnhdQk4BL51x6G1eFghP4yFH7wDuhlYQh2YThkZ7s28ybQbz8ySV7yiVP4sKf8oWdQt0GNl8dbvnz4zBaGRg8+PgKwpJs0bzpq9ZsBhBYuG9GiYQK21oTsNkx8pHg3addRXbbOgRg55f95F53TIBwLt125el8nUdOcLJ0rv7m+6exLQ4u3VffdL9Njz01Gg2vvyYE2o0VYav51AlUVVUKVc1TlTFgs5HNkgUzd14yd5ft53HzzmhpsGw7u0JPOHyviz717rv+8fznv/1bK0FWDGKGpY0pVoDhNH3Jc2vz8CQy60doseqS23IZdCGQLpFbsSpNEVAEFIF0EPB59Ey4lJj5JUX/8fKwOtx6z5NiebUxAQEIor36yl0XweoO2GO7h59eKZFwHageYQgif9Bum7gkAkK4U04Ou+Wux7/4sUOlRv96ZqUdKgAjf5jovv+zv4qB+fyr7gQHScnXAALQ62TGVBg8l8Bw1ZoON86JFm4xq/tC6radC9d0i/LNEhyJDzeLlsC5mU73n85SEuG3cDP2S9/ATzcORqAUr8JQ8ecuOc0/9v69u/pH+c6DPwzbv6O/+HAzfii5uqRUmNtTvv6lTBnyBMwCQMO6Wp3YGvKGUvUUgfJEIDnhdnaAK3ql8XxAB8jfA4+vgKKlz048mgt3tAYeuAthmKW8SNy03pMxnKd9zi4bwRZuyC6DirMvvZU/Wws3zZVIYoT2iSsIL1frUmJz+QaE/0GyPTItcRexiTSaLAjMuil9lZFIODee3N/40Z+ferkNmzcuuUy+C0ivl4qOQFVVlVDVomuSqQKXfuEYXL2/9b//19ndf8M3TxEfbnUpyRTGQqYXH261cBcScy1LEVAELAK+hNtwlDQXBLCC8hGAMsKzkXz2qYdIAGaMD7GUJVZqWN3+uy2xnNLSOzGawqcXtU6Xq/iN4EpBXmioXCUsFm7rLCGSPWkk0maxaYoYGN/aPVAD7NAWDRld2NPAfFsugrYFVmJPOGwvEcWpmMDhzZY6J1q4JRfxtJFtOCLdYycE4vOTK/Mt8yYZh+BYwjRKQ7idGcCiRgkd7RcYdLatRiSYu9G2Qx36Ni0lIyVpNRz3cd+XKofZPJlvl5K8NvqFnz5yekv9ly67ff+PXMaSQZQVBpeS4CrLRyd3l5AYmZ7Bl0B50srdbZ8A8pyUXDwJCTz81GukPP24t1132z8lr5QrzweJt6VIERl9zwmuRXZXBwaNS4ku3ZgdeppLEVAEJomAH+EOzbKAuCBTPRwh8H/gBcDzHYO3m7dxFc5haQenvAwsQRFoSL+6vdOaXUWgJw3vFXnNSBZJYymgUG2bxU2GbPoCBzL1FMWXBgADlHQPJ8SlhMS8RwHf4iDO1rQFUOCCwhs30bxNLjfUQgG/8LFDIX+0gns+JXnhjuLKwouZV3KuJqFedu4HWCOcOZTMmCxFwi2ERrACpcQuDciCvO2T7uaTVgZwuSqc6YDdl9BwcilURxhqXn24813Zs04+eKfFc8/69m/+8+o7KSv8ywdxl0F8cTazNyOPWW5znpN0KqZ2SLeBN/NHJH/uDil4co9za8tnwxdXrnc/lnH841HzgwtOnD6tgWQnHrE3JZ5z6a1FZ9toPm7h1mUB831XqHxFQBHwQ8CPcMuygCFwKeGtgM7CFLGtwon5S2RmbmJBehgGLwm/ym6J85BmmKW9JjMC7Wk4AztuOwfFnnqpjZmC6WgoJDiRllk+bakbDLhtfaeYUUHSLTzRpZtkQqZtdkkvBi0byRtXDK7y9iUNb187UrLJ3GVNMizrA8K5V6/rnKSovGa3IFAK/RyEwZ9GsWQIeEkD9XHTZeAl0t1pYT92mCQKEyMB7gWM34y43BLyWqmMhGPhxhmDGYeZjiEzKiWviY945y63XPaJd5z6fUoJj4Xbft9IrPvxh+3p7lQ8Zk88cm+S8emPZXAkfXBvoa/aBDyZ6WD2sWx7Jn0YycwS4esWz+183OaJVQuOGffh1kmTwTCF4CrLerLbK3OEWBRfNrpiQg6+ZwzO+/r6auvqCHDK6qLsU8vK/UyDrmGZfyeAlYXN+zC1sPxDpNoEON2wYf2LbQPm1ImsMccq1t3HB4xZF+bgrEAqYXNWWbm5o2ND94hJIJcqGU1X8rzix9GETcjc8uORTmBzd6y6tpuPqyMjo6yFympvhM3f8IgnwKrwzMViEdL1Gzoqq6P9sUHCzAmhpuwg4RzNIqpD8WEej1vUdqpGjQZi/bNnPYpRic0NTPVNramyqa/Ry6i5RUPCVLa/r2/G9GkmpQMavlWsSc8HHwIsutpQH8VHjgDHEHSB8lQhwqpYnpp1dRmOQv/wxBf4FJIh8xp5PVC08AYC2GPcplCMo6KYTYAlNVhVlq4jgfAbsRS603OTu0/DGeZ2Sl8x4c1wXJC0r0myY7GG21k5DEIuP+84e+obkDRuIZIskcp7stNk8saVoQ7KCAW3vNCTfvKnl33xWAj3qrWhbs1Esx/fDdwuT4KDZ9jAgjPEvyPwk4V73EgrM4iaPKT5kMC7CrHr16+XgC2iu7vbhtMPxGKxxAdacPbsCurp6XEXtHBW9OB9t7/3X6/8/I5lrFAZXGJhrnJ/uZ+TPE7tkIz7ly4hYzCIMv2NkTBaMa2ckTn3Mndl4j3uVpuU9lQevPRJiqMU4omRqzxPKNRScJulWAFxKenv3art3Mpk1xmK1evcmicLl1CNHnlu9T+ffv2hJ1c9+vwb8i3CXSlootBcWKRwXI7QbnbDYkdh9tJyJy7RMMSXGb21sGFodI3Z/4sjYd72g/2mki7WPjoYp96roeODQyM53xec/b9kBdX1G3tOOuIt53/y8IwgLaFel2a9clWjSGtrq6fI/ngofLj5NCmK2feEnLo/hno0Dz7FDAO/CU5jryaSnpSc0uYtQCCjeWbf+9lfxZmSKlg7Eyw8mdmJFyR/vJLtCicpa2TFSkqxcHtyiXsoPACjF5d4PYtd1u0A6smS9Sm2f3y4yf6m7edmLaRYGWUoWKzSC1yuDB1nz5nD+9RTdOKjyZMg8bSrqyuLXFlk4WXnzkWXhm2jz4cdU3GiYmGLwaQtD1L3yqHYpPljSCyPXA9lD6gCz1XxKuGh7X7G2lGfTJ4JkFCYS2Lhnj+fpvO+9awCAZdsGk+gWL3Oo0ay0/DX6B+PvXrp9ffc888XqcKbd5z/8WMPWLJw1nYLZy1ZOHN6SwP7W7FBlWdA7qks5mSHeY9AQOPGqCymZZioGJjHT7E3x63VmUS8R53Pa2w1KwHzb4WcmL3/mNIt8RxNWsesDsuX0/GAE2linAC2ZB5lE6Z0d2Dc/GyvwqexJbMngLErO9ZlhhSeeqV5is5wcWg39ZVaWW0dVU2NHIu7uUoy9gvjyKgGKzuL07NcJhuHyW6+WNn7YoM9fYM9/QO9fYPrN/X8/v6XrvzPU9LUxCYLf6+zqqYZyEmN/FxKnIUdaLk09chTMjifr2SosPsLu+XffIuX9Lir+maEQZKXS0yj5Ajd9OXQYk10kx5JZjml2Gh9iyhYJPvzUVbwKiWijMAiLgq8QakLR8xRMsfOKiyGLjm1ZlexV9k0BADQvkTd8b5I2gRCtaHXHqcUrGigSl7e1p5LNm8WAdj24WdcQ0aMIuxxmIWEImahlybr+VYroS98irEmTI8J3KYMf4D3E0ryPgi/qsk0/MYP//zNH/353fvvfO+/XhJKlyxleOIxaWPM5gbn+ekZV8ucDe5Ku2ZoSrX5dAZH5xlC13V/szru89cJ/+aqfX6mlJa/BDppMn/YZi2ZCe6s5crq+N8+5+gPHr4XD8AsROEvUc/fVF3wkWeo41JiTKW5/b37tKt7+2K5lTmVpfmMqGg5EGF4V0RcrPcw5k+e1PIHUxSVrPGbUzFF83oQN2W3c6HVn8/0xPMigWQTKd/iibGSbUoCrFfNMbvb3i0nr+HuvgHkp1yHmxcqsFhHEfgZVca5E7YNmO6vxuKl4PmYQAILLwjzx+vTkjwUoJlkYqtF0tNSKEAuFpkh3l2cGxwugTbJeGG747MLC9sGmWW/+hJP4ZIjcjhtU3GZnyoIMMDzQAGS9F7bWOBGg3rSlMqp+EaVXDNZePl8BNs+9f1vvfKrJxCZ+CncpgxVgLuYLsQ64tzg1gPE3evQVlzvCHB7Brsk0SFJw8xIjvY2Z6iPcKZ5yIQQnPeKjoBsfFOnkyaL3hITCvztsddg2/SZl/904Rc+eij9Z+KK/hsKBPiwUNLWkFCA6FLCx8KN6z0Jcu4V5Co0dRCTpySyLwNOeUlA+DCi8Ce8hEhieKwLk+YV4msolUix9XJLI8euvOFRRYw0RDLRx3PJnlKcDRcrkI6Fm7rAyRixyCvQeqtjgsJ9E9rthgvAxRsegi5GKakabDhZHQXzy887XoY67mTWD56iEyUAoNsHlIz2rewWkkWYxUnOuOhmMrIgN5Z4yFzJPSzonIyFaB1GIIJAIoDE06Uh4pKGLi3OOVkgVvQsZrJSyVq4f/jrB752xR3H/due111y0utrzWOhVAg3qspkR/fNzsDY9jpxQpPugQmcER1PXXekXLJHfFR4DsgzhEgetpzaeb0EkACDl09tNleBAxNbu+vGNwUGPmlx1/zq4V13mHfDN05uaaxLmkgvFA8B4yhfuuaQ4uGWrGQfwo37EanxdkqWpwDxvryZcn2ZmW/iRJoiE4M8ylsaSjwvA0gqdIcvoW6iL1mw5lo7Im8piJFHVCFPca5KWRy14D2H+4G8RAmLqYmM8GAqK+ZnTuWlK+9CjqTn5ZpMvrx0+RKNQFACMXdK+8J2v8glgbyDJQxNd+fKSVjYNhZutrwRvxfcFcJMuJON+uhaib0XiDzp3ac0JQmk1jSKp/e6U+YE6hwKKV2XErxOL7zmj0e+c9dffvffAaTOWftCbKg5xCcLUYkdACGJQ1/50CdT0qWUxDQS7xHo2znFkc8+Y3mMyPPEV4JEFv6IxyqFqoW78Mj7lvjiivWPv7D64s++t6VJ2bYvQsWPNF8gS9jdr/gAejTwIdziUlJcC7dHy5ycwmMSWbKHwUsCD0GxLxgPj8mJVtkJ6XF8uH3dqa1AWwurv70kgWTv12Tp3dmtcA87DMjreQe7pU0+jE2dfd3Z1J0FAe0yEUxPYWb35IWHXwKfLFAysXuHX/NSdClZsXrjx7/2q4efeYOedvN3/l1AZoEtAqXiw42qMl2Sh4DoP8mjTJcMeQ/Ewo3FjmUfJllZzZ4TBO5/dDlyjj1095xIUyH5QaCSGaX5kTwVpfr4cLPiI0iUH+Eup+Z99Y0NrNoTTLjLqb7BdcG2zZoksO0fX3zSqUe/1SZmWdZy7ca424pVm8oScH/Nt9UviUAILdxMraMvBaD3+W/fyhJmP7zow3xLEfMEiWujxlGhVFxK+DBFn8GHJKCa6V+iB7rd/NLPWOCUWLhlXFTgcrU4XwTa2ruIZykS36saGQYEHLfMMChSJjr4jPUnJk1OCdNgiTZjX//g3FnNJap8btWGbbMmCRZu2La1bUsRbIXAWlG5LS4k0sSH286bxIc7V6bKfFSQRVRGRkedvzG8oXr6BvhEs6mzb1Nn733LXqbEj37t5zhzSxqW4jKrDYyNtDQ3sk4WM1/5UuEEKpsb6+j2/M2c1ijLxOIyxMJVzl83S8a+/NrquvplLCKLS6j5a+KvnuI2dfV1dPZt7ol1dsc6e/p7+4ecnS/MBhBjoyORSIR1slhQrKOrf0NHT1evmZGMX+nJ79svEY3rbn3o7ode+M8zDmHxMvfVCZeSYXdkOMPWx2zyfQbiLjvs0ANDbt6mLQYHh3Vf9/D0yTXtnbNnNLHydHhUUk08CPCAFZuIJ15Ps0PAh3AjiDdc+E2D1qshu5qXdC4YA0QkbFVglyxUGhgwRwmLhvCnGdMa8qTt6Rfe5Mu2Kc5YuOPlSbipXan0/89969c//u1Dwa3/zMtr2CONLs0uaSxnS+dh37XhEWftWJi6s22bWV82WEpFRXNDbX1dFIbt7n6SCeEsPcZKmvyxsq/sItHTF48NDNZGo84GE9W7bD+XrVtbZzY9+MSKT1xw07sP2Hne7BZ3mdfc/Pcvfve2d+69wyeO2dcdL2EW1i0JC3eA31dipYJjPB5lwYmLfhULtzpwF70VrAKMctnkxZ5qIIQIMGFSvP5CqFspqpSEcEeqiztpshShLKTO2y2a9bdly1lQyVPo9KZ6G9PZu+WzuDvedzFBvqFLegzGJuwcRRRhAvYju5zaUjIKiA8MR0N6mus9Mju7+8W46C5O5JN4j50XnnnSQZ6t7FnD9c6/PXvBp47w2LYlF/bLMibcGSFfxMTXnP+hXbafJyZqrNdYprFAY6ue2dIwa3rjdbf+8xs/vOvRX3+ZGLeS7OOYuNEA+zyLMXtzt7FSs1YPL4PWmcbm7fy1rH5j5dKlS5HDNhAsnUl3IgslUlCyRet9C2rY9wv7vnlbN9umrJO+/NP/e/CF9x70lp9+85Serk1ubSUM4S4hH+5E/cs+Bh9utXCHp5UdMmcWKdJfaBFQC3dum8afcPO6Ek/u3Bam0nKFQENdFD4B3cyVQJEjpAR2K4SYSALzBgdbZ5utgpJRFrcOi+ePO+QN9nfPnTvXXsIIDaGHrBMgkrVE7CUCInn+7CY2GPMdD5DmzvvMQhyWcCOK9Y9B4LADln7u5IPc0mwYs+VgvAQ+8VuFyzXw2Y8cmKxq1dXmjZvadu3kd1xE6pYunpNMmo3HXo7bCX82JqPAnBlNM13fZNZu6P7QF29Y9szK737x2LNOORhRPcb71PvDBI+F3hur56FCQNsnNM2hZC40TZFUEZ7MesckRSfzCz6Em2UX+d6qU7kzB7NwOd574Jt/dddj915/Jl+30y8Vkrp27dr58+db07LkFY6bjE/7mgBTFrp8+XKxNaZMaRMEFARNF8ItiakI623fcd8zGLYv+Y9DkmmOxRHHXCtfAyFEAAcStAobT100d/pDT75m4TrhnOsefe71G//7ox96z942MjEwHB+xcygTr2pM0RHAihR+V8mio1QwBVJ6iBVMEy0oGQI6KEqGTHbxPoQbzypkYR3MTqLmKgACMtGEz/QZlQUx7euu5ZiMoWYkrZCJ//7oK5BsXEooVNg2MZed+4EzTz6orW0rY7lbq9oafGrL1ofbXdPSDY+OmsnZ7GcWqiowBMWHpKdvEO8XPElg2z//dgq2jf6QOSXcoWpHjzK0jrpKejDRU0UgAAEmsofNGhKgbfgv+RJuYxRUC3eYG0/sgmGjKflDTGzw4o6C5zq2bdbbdq8A6Ft0NBrpiw35XtLIkCAgMyEzHTrmW/mFrdMYlG7Y3HP0mT966IkV3z77aLulS7KimdPJt0El3MnwCUM8raMW7jA0hOpQKgjwWJs6NKMAjeJHuB2joFq4C4B+1kXwcicvU9CyllBaGf/+2CsozGzL0y+6+cY7lmHYTsm2SY+Fe3NXf2nVdKppG86h4/OvrhsZG2Ov1hdWrLvukpNPfb/P+oCelhImxzxdT7yehgcBPPuVcIenOVST8COAQaQmfOuhhR+3ZBr6EW7H7VUt3MkgC0N8OD1f84eMrLLC7jbGseTkg3AmSacsNWilg1Jx08jQMWwWbow6sdgQbPv2qz555Lt2TQeiccLt7BqWTnpNU3gEWHyd9QAKX66WqAiUKAJMgurvN+v86i8nCPgSbvXhzgm2eRQyYeEOl+dr/ir88zuXiXDx206zIGgTX/nTTKzJioJAOC3crALExPHLv3xcmmwb6CYIt1q4i9KP0irUGYGbb4P6CwkCusZzSBoimRp8Il69vpOtslifYI+dFuLbuWptB2Yv3DvdSy8QL6dcIsBrl00PWMlXfEERHjBtDGsa36unyLbZkcQ5Z2+0mYXb+ByfrA00vugICE3ZtHFjW1tmnLury289s8D69PT0xOMZj3H7+voSu1ZgORUBBd34zRPI2907uOv2rR6xATUaHBzABS24UL1aXATi8WHGRZ42RaWAzhCgcK563Q0XHXvFTQ8ec+AOiYpJ6Ym9bsPmPi6pD3dA6xT9EtO/GBcla1PUK26vS4lPYq9LmSXMNYrF+ivUHpKyCYuagO0R3rz9nDdtP/fWvzzD1CnRpaWxdtHcaUx0YYsxiRkaHKyPVpG4dUZDS1MthKG9o/+VVetXr9+Kb3T3DfrW5hs/+vN3zznywN3nBtybvhmz695FvI8iCxcu9NRkc7/hcOrD7YElVKdCuOfNm7tw4fxMFUts8WAJAav1BWTs7+/PYUHBopJdbWxoGBvrDFBSLxUfgcpK/EkSW7Dove67X/5QMDgenceqTU9Twh0MWnGvip9k69x5yZqp6L0uJT6eXpcyfZhrVF9fr4s8p2zB4ibgW/qiedNv/u7pogaGbYzWAeZqSZZprzvsjGu+dPldd//go3sm0NHg6mdakJVWrPvIZ9bdxLKAauG2rRO6QDg9X8MGk7qUhK1FEvUZGRmjmRLjSy5GXUrC32TCs6Wlwq+taqgIFB0Bzyolskt0zrX6zfdPQ+a9j6zIueSwCfRh1ROEW50Rw9ZYW/QJp+frFv3CEVr27KoqdRIMR1sk04J1uMM2YzKZqsHxw87CQdU6oz8YpqJeFcKtS3EXtRG2FM5brFJN3FvwCGOIVUoK8A7FZM7fI88l3VIjjNBkpZOPhVtNNVkhWYxM5WAZzCNu++yybbJvx3ksVUVnhEC59OFqZ2gnI+GMANDEBUOg0mkjNs8rWIlaUAACbCzV1FgbkEAvFR0BDCKF+QK5+84L12zoKXp9862AEu58I5wX+WK3HXO2xc5LAWUhlKGjEu6QtyTmk/IgqfJa0lVxwtzftI1C1To9/QPNDUq4Q9UmXmXMV4iC2ERwVmmb0oRbd3Dw9r0QnU+YakKkUghVUcIdwkbxqAQHKg+SOk7mHMcSTx31NCQIyGOzPPpbSCCdjBrGwt0QnYwEzZtvBPgYVBi3n5QTMfNd08LIVwt3YXDOcSniVqVvjmBYlXAH4xOGq8bCPVYOSzdWVZpnaXlY68PQMfKhg8zO1Q+D+cA2C5kO4VYLdxbIFTDLWIEs3AWsUjGLUsJdTPSzLnvCwq3OiEEQKuEOQicc1+jJ5UGA1F0hHB0qSItKh3GrnSIIowJe6+0faFKXkgICHvKiGICFXMPJq+dDuMVII++PyRegEvKBgGNNq9DZP8HY0pO1GwdDVPSrNFB5EKBxMqfTKorepZIrIB8Gdc5kcoQKeqUvNtRQV1PQIrWwDBHgsVYez+cM652v5D6EO19FqdzcITDhUpI7ieUoiQGJfAoox8qVSZ3oyRCgMhg6TpA5/egU3p45/tjUQVEImmh4eGRwaFgJdwiaIkgFbpnCuMmxwXuQHuVyzYdw6xsj/I2rLiXptBFMrjAzrNNRRtP4IlA2hmHpaWoN8m3lkERKZyuD0V1I8AxW48Y7lrExYbI0mLe51FCnkyaTIRSKeMcgopQwZ23hQ7grHHgLshRMzqox1QQp4U6nxSORKty400mpaYqFwLjRsfQ/84sdqFqcvYqFppYbiEDZdLbAWobl4v2PvbLTey8597Lf+dLuvgGHcNcr4Q5Le/nqYVxKCvhFqLMn5qtG2UT6EW5l3KFvXn1zpNNE0ZqIbJuaTmJNUxQExucaFvCZnqdqymtJ5wzkCd6ciBU7RSEJRE7ULlEhXQ55uvqm+4V2e2rRLxbuWvXh9gATrlOYhn61y2GT+BJuka827hzinGNRuvFNOoDWRquH4sPppNQ0isAkEWhr70SCEu5JwqjZywYBt7US2j33wK/iZGJrx57hhKuqlWZYSMIYqKqqKn1jSIiA9SHc6q4QovZJosq4XbD0P8QnqV9uohvra8VTMDfiVEoeECgbw/DMaY3Aw0eVPICkInOFgCF5Oq8jV2hmJAf+ffpFN7/1w98V2i2vsPJYEjQjHEorMc2kbZTDJvN5PVQ7i5WOjJTDbhQ5RCpUonSXjXSao7mxrrt3IJ2UmqZYCMiYUQb5xdIhJ+XKt5SobtCbEzTzI6RsOlsAPMxaGRgaZg0QTMj8v6Gjt2XajLpAzw2ocGxgiPSMfkdHRwmsWts5GlmPL4GNJMxVBA4Nj8TjI5SCtx7HeHxYptR1dXW3tLzhKGYigHpl26ZEPZ96qQ3affXN91/2pQ9wVd0VEiEKVQxssDBtNK15SqxSEmlvb/c0cE9PDzHcaZ54PQ0PAmIe2NTR0d7ekJFWNG5iiwdL6O7uDk7gezUWixWmoIAaRapGe/qUcPu2T1giZcmIjRs2SJe2apVcr1u3fgPK16qF2zZh+ALS2TZt2hStNDP2En+l1et+/ofH7390xco1Hf0D8f5YPDYYH4wP+3qo10YjLY217DLDVupN9bUDQ/HYAOmHu/sGunoGCsOo3GhDuw87/Rpi4OvueA2HDQF8uGmjArzKe3t7qfuKlasXzZ2WPgjZ3bABnCFZ0dkVlMiCIq2trZ4yZs40bw5Gup54PQ0PAmIRnDZtemLzBSsZj8czzYLALLJ0dXVlkSuLLAE1mjtnxvDIKLNzGnQufHC3KN5VednPnTc30Zczi85QxF73+gYztIuohbt4fSllyWLhnjN7dmtr0pd6qfS60y646Rd/eGTR3OlvWbqgsT7KH085iHVdtIZjpLqquroqUlXV09s7Mlbd1RtjCiM7+cGwsUE0NtTPmdnCknwtTfUzptXPaGkgO9661ZWVjHsJbNy4Yf68uQSc00on3oSxd9bURGoi1dFIdU1NtQnUcNHcux0dHTNnzjQh506urKg8+nM/WrOhK1mj7L/7kn89vZLCkiXQ+DAg4PSBqixuikyzLJo/h/rOmjWrtXVmRhXPtCCEB3CGgKKzKCjxfeTjUjK+AoZauAOwL/YlMQfqgrLB7dDs7Bvc0z+ohDsYqCJepQ/zwk5k20VUKbuixbIo/njZSdBc+UaAHZYoogx6290PvgDbvugzR33tjMODQcM2mQVRWL58+dKlS4Mle662t9d4Cup3Fv7zJJveXP/+Q3Y786SDZk1v3OGIr8sQyJNGT8ODAEyjkB9A8G5aHJ7K50ETP8Lt+HD7fpnKgwIqMhsEdFCUDmpNDXUk6+0fnDurOZ30mqZICJSD99qI80mwWi12RepD6RQ7Tu9Kn3Hfes+TMNcvf/zd6dQ6JGlQGJ596tFvXbzAmDDXOsZv9VwNSeskU8MQ7oLYXqeKD3ci0GI9LeSwJlEHjQlGQNsoGB+5is8iAQh3Ook1jSIwGQRklrlauCeDYd7zOiO7Mvic8uJr63febi6OI3lHbBIF2GUBD9x3x6MP3g2qDee28mRoKneNjdRA2BBw1uEunFKydnvhyit4SQEWbvXhLnhrpF2gWrjTgUoJdzooFTtNZXl8VhY7EC6PxcZTy0+KwIRLSclT7rUbu/fZdduk9QzNBaj2BZ86gmOiRlXV5k5Ru14iMqGKwbTH+jShUqmklfEh3Ex3oErl8JW3pFsmUHm1cAfCM36RyUOEdO+bdLAqVpqS5z4TwDFHjaA4lkzE6b/hQkCGdqXvUVLBXPCaSNiHdst+9aU9dl6YrAfItyB1KUmGT0ji+RDBKpAFUMb99aMAxRWriLDftMXCJeTlyjSzwjhXhRyKAPXkncRisQFp9FKRESgXxq2fyIvckdIofsLtp+TfeiyzzTokadS4mEkC2DZqsYghR3UpKWYLpVN2uTyf06lrAdL43LTy3a0AZWsRWSMg+2uo7TYYQFatIgFL0wYn06tFRECe52Ww3k5NjXmWsi1IEcHUooMRYP1pEgTvAhMsISRXsXCH3IE7JVCyJ6uuW58SqCInwNWhgJzb+v0XudZ5K96HcIs3SQFBzlvlylewOEsMDumuAUFtPEG4lQMFoVTca2XjHFUbrQFJvSWL252CS2e3FxLUB267GCwhJFeHh0fDb+EOxmrIeXlFo6Ge9xlchalw1eHbhSCDU2SVEj/CPd6PCoHyVOiy+ahjpNo8p3js5kN42cgUI5C6lIS5QcvGOarOmTAwOKhj4PB2tzfWbZ4/p0XGeOHVMg3N2E9S5gykkTakSWRoOnWQT/nJAABAAElEQVQs3Hf+7Znavc7mGNL2SKrWWCEt3FNxlRL5vFsGM0uSdqHSvyBL3TU1mmXv9JcMAV3LJRky4Yln67v6OnavK3lDl2yu1Dega1CGp3N5NXmtbdOShbO8sSV4jutzqVu42YUe4EM19RM2fMI517u7w0eO2uen3zrVHTPlwoZvq+01Z83us0qJTBwu9QF0zhAKpaCefrOPdLMS7sDWGR3fi0SfF4EwFfXi5q5+Npkuqgq5KXx8Dco+Jdy5wTPnUjZ09C57ZtVnPvyunEsuvEAId6m/oMct3M53ocIDGFDiby8/7f0H7xaQYEpdMi4l+v7MXZP7uJQITSmD7265Qyl0kh5+aiU67bxkbug0C5NCMnTUpZHD1CZeXZ57Ze3228z2xpbguS76HvJG+83dT6DhB9+zd8j1TEc9Q7hLfMV35n1SU6UZ6TT31ElT9p7cPoR7eMSswV3q93N599H7lr28584LdMfy4FaWZ3qpf3sNrmNJX3346ZXPvrL28LfvUtK1EOXxX4Jz4yFTBnUpvyrwwDzn0lvfsdf2b99zu1KvHZvF8FfqFm5ZELAkaMb5V92J+7XtNk+/3Mbptb/6BzHWM5sY/rhkIyXm38+/0WZ0B+SquHSLQInZ8ciL3cmKH8alpCAm7rL33pam9HEpGR4xqzpEQr+ufvH7YpE0OP/KO/k2+vX/OKxI5ZdMsYPOKmCyokvJKD2VFL34f/5Edd/zjnIg3FRkRkvD5u7YVGrAEqhr2/rOH/zy79f88u87bDP7F//9sRLQOJWKQlVL3Y4gW0TJ9jepahz263h+Dz5xhWgJET/70lsfueVLu+9kNv2BRnP0OIILq7ZZGAraMOnh6J70Raw/i0SrR0kO8fcl3OZbj6yDkcOSiiWKxao7u2Obe2K4yrBTDH/c6sZIYMNOwBzMpTEsVcx/aqiraajjGGVGF8cwkLaNnX33PvzSj379wINPrPjkB99x2gf2KxakpVLuqjWbUZW1wDZ397PsKzPzmKNTmPF6DiFytsczH53M/xydDjwyYroxr17naMNjEzHEj7E7BstC0/+H4iPsFsZxiHVtRkWMeOY5tovKCrp3U31tY320scEcTbghKgvlOmXm8tAXG1rZtumuB57/2e//9fLK9v/9+keCN8jIZdl5ljWjpZ6eRiHMO8dF1QDugC/I0wQsmMOq8LRLfGSEpsC04WrH8UakufnPHJ2QUdl545mDmb4k/XdLL3bix9+JzhOMbmFaf6J7mMCo9BbTYZzT0VHyOz8jjp+5KxzRIt8dw6rVdbWRuqg9mgBrIG4dGZHewjclaseRfmjC5s85NZW1f9SaZFuumkvDZDEpJSy5CKNJpKoKay78MtmRS/xsfbt6+ju6+jd19r302vrHX1j9wop1IHfC4Xudd9phC1qnGTxL/Ad61KAkbMMBSMuDKIQuJe55k1ecd/yn03D6P/fj77Y1/d7P/sqpsG0iCd9y1+P2KoF3n3YVq+VYhk3MvdefZRMwTfOBx1fY0zAECmLgrpAVuMt+v0kfwv3Bw/c65byfPfH8G5s6e8ffB/KkHn+7jz83tzxSnSes86w0b5GJeOdd4mThEnfXxM+8Tszj3fzMUwNTek01TKjaBMzRhNnYhSd4rXOU8JMvrn7rbosd3sGLiLeR6YrI5P3d0zfg/A3yPVcCNB5vPnh2Z08/CSbfa3kuCP9uqN9CxHkJ2Vej83I0r0ijE7HyupwIc87bgtG8czRvjoAwZZkXSGUlsPX1D5oK9g8+/+q6tRu6qAgOr9/54rGfP+Xg9vb2ydervCV86uJfUsETz73BXU3pcryk5T0N0M772vRGp0+OcxeTZbw9x0PS9ziRBqIFCTAuFR5Pv0UO/0eqjUBpaGTS+YVmmeM45RLitdUpyUynMaXycwqWYPGO4OOMPKMcGxl8OqNQ6mW6tzNeNb17rELubO56S/KE9vHocLA1nZkcUnc687qN3VKnd+69/Zc//m+nHv3W4lUxlyXDrV9YsR4Pmab9vjgFV6LkeUVPyCWgk5bFZNy937zt+w9+y/GH7bnnmxZNWl5YBJhnBYS72vWkCotqGegR2mFDFpMmD9h9idQc5xDI9GU/uZc/XyzOufQ2EmD/9lwVQ7hEbjNvhudqsU9Lu6cVG72tyo8sX758q4iKijfWGWL32W/92hOf/ikPX4dwGEbikA+XBQVaU1FpXtgOrTDv5pExsWdMfkdAzNJNkIP6KMt3zGiqXTyveVpTXUtjLcf6aFVdXa0oZgiTo6EEzNGJkSMWwP6BoYHBeH8s3t3bFx+pGBgcZh/a2OAwkQNDhAkMd3YNsrDRhEEIbAxbQyzVMnTZhMbPnSsIEduStUE6JqgJmxNmId5WQlmcwYnhNAihRmzT0FAX2XNp6/GHvmmHRTMO238HCqPVYrFYV5dpqYx+fX19/f3GCJf+L7uC0C2xawUXml1BATX6z9MOfPzFtbtu32oprxkNjo4NDg5VVGISG//Kwb90x/Eh4YSK8oyhTZ98ed1eO8831Hl4OFoT5TopaSOOjIhkhGkMlsaqNzIcH+ufaFPTmiMjjBsNuXdGlY110HEM7Ybrm4GlE0+YGG4T03ecXzw+XFNTY0+JM1cm/q+qhPGbARs5nKMJU3Jdba07khJtKTIkMKPZapPLYfaGG/X29jY2NhGgJ8cGhvvp5APx/gG6OkfT56XnO0dOB9f39tFRTeEo63R9jgTNn9Pno8hn9OyEUUaAMjiDQ3MUfTClL2rdadHclh0Wzthjp3kUnayTZNcZitvr3rJDK92AekVpbowFzhcVB3zzaYV+0VBf6zSK0zRm1M3AbHy8Z1rTwGgeI+PYOs+Unp6epibTRvycIZ9pPTezJTV4c5V/HZtFhI5aj/2Zklw9xAmT0PQZEpMGaQi68/4XLvifv9z0rQ8umFUfjUadp5B5FnGJ44bNfS1NtYNDI/QQjpjqsdwPxkd+fc+zj72w9uyP7DdaURWPj3KVpzeaUFlKlb5nOn61E2N6uIln9UeU4qZpqK83ODhGa9Mtnb5qUmDPnohHTcLOR4DR/tgA1eO+YNjGTYerGP9wUzu3mBnpcT9K50dEcwMP/NrpzXWRypHGxkYDXEUsWTdzrm45lESv6+o18wS6uzrTqVRoa7RmzRpTi57eLeiXSyjALr54wQwI94OPr7AmcHFBsesP4k8SKgs3N+XQ0FA6Pc3deln0updfWYmErs0bli/PYNyeRUGUEsAZ3LVwh7MrKPF9FFm6dKlbLmEibvxmfOasmTzCgNt5f5rnoIQ5yoNy/GielbzIzUO2ff26bbfZhjBPPY/MZKeYaVtbW+1VXlcON3I+f5tvsu7PssOGuTpJV69evc022zgnlUKvWxrrmqEzycv1FGRLDA60tbUtXGg8sdL/ZVcQHTqxIYILza6gKVWjCxL6tkCaHXTaRqCXHXRTpNc9/KvzAu7Z7KDLd697ZY1xOp8/f/7i1tr0n3Wvru1/4qV1Z51yqPvpHVB396V818iWVa69bvX6Tuq47aL56bwywtnr0H9gzIyF4qPpUgXbrEUPrFrTkUwHodH/emZlMkeUs0895IA9tsPJGwmShsR86wuP07anatFopH9gMJ2e5s6YRa+b+4Lx/9x2222XLs2AcWVREKUU8cng41KCQgfvt0MWT9Ke2hrcP9y4Zxo2xL26KuXWuzPr40uXLs5UuKZXBBQBRUARcCMwc5pZBB2P5yWtGeyihRUG87JbjoYLhkBswDhJ4uJYsBLzUVBLUx1icQHNh/DcyjzxiL1xEWGtkm+d9X4k4xYSIB+nbRLvv9sS4dMYsFe3d0pGyUWYibxw7kXzpsuC39akTeJf/umxULmUwOj4nhRQ31xdmro+3LlCUOUoAoqAIqAIhBmBOTOMvwqbwlRUzExfTz5+4siRfnpNmUMEcPpCWn2ZEO7QbRTlnjQJ933lrouwW+MlAkUWz2ycvN1pPC0r3JrEYsa2viLuZNizcSxBiFyFcIsPN6f8Wf7tzlKsMC6ROBoUq/TyK9ffwl1+9dQaKQKKgCKgCHgQmDe7hZi1GzObDSLzcDyi9LQwCPQ7ywDgS1mY4vJUCl6gSO4J086s2Jvdi4e4K4652u0lYpP5ZoFzu03aIseT0r0yCZzeXVaowixcwcSJgqk0FTe+KRi4WpAioAgoAopAERHgyz4zWXEpyUgHZi4yVSejLJo4Vwgwpx9RzKfPlcCiyMErSTeKKgryGRWKhZtJ0hllyS7xFNn4Rh+a2XUPzaUIKAKKQMkjwCR1Fh5prM/AgZs6s4INGxSUfOVLswIThLu0Ldxgz6LLsuJKabbDlNAaH24eEQWratmvw62Eu2B9SQtSBBQBRSBcCLy2ehMKLcxwRxg4nxLuYjWk+HCzLn6xFMhVubCr7t7Q+XDnqnblIadgPtydvVNij14l3OVxX2gtFIGpiAA7TTDfiGPKyrMCAGvcepLd+bdn9j/lGk+k+5QE7j0p3Jc8YZJRhCfSfXr3P19OU1VyeaSxO51sB+0WmJMwO/UgZ7edFmQkjfXaG2pLnvBlVOXwJBYf7lJfpQQ8p7c0dE0NmhWezpOpJsbCHS/QekRsn5KpeiWXXidNllyTqcKKQBkiEMxrfSf7gwILCLBowDmX3uqehORGB7Gy8fKi1ukL506HE//2nidWrdnMKgEkYwXcn1zyQVi1rM/l1oFczHy69Z4nSWbjk6khJbqnVbl1kPD/3vov1jpwS3OnsdOwJJLlEdzSqJ0MGHK+Xi+bE1FipktesCnO+J4I7jpouCAIyHYUZl+iEv9h4V6X4WzdEq9x6alvLNwFdCkpPYAy1FgJd4aAaXJFQBHIAwKWcWLKZdq+7GiAZZetIoQNu8uEfcqqWzbScmJirCjCMFd4M3JOOGwvTmHbkFdOb7vydNmlwr11AvxbiDvyWT0XIu6WRi4333WXSDJ+7hhZUEziOYooODTGeFuKverOaCMlcPnN/7z+9h/YSJbpJZzF7tNWgjfg8LZM2bPhepnm8Ras51kiwC6i5GTP4yzzhyYbS1KoD3doWsNfESzcDO1w42ZHWP8UGpsJAkq4M0FL0yoCikA4EPA1NrOL4ZFn3eyrIAT6lrseP/HIvX2vJkayOQUL5WLnlg0voOBC2d0p3cwe0uw+9XiAsFnGvrumdtuAl9slfoWFn3bs3mJrt+XC+2148gGxk7LMX0aiSK0b32SEWA4T10XNdNWBQbMad0n/qiorx3Q193A3Ibve0EyFYduhWiMyT82ihDtPwKpYRUARCAsC4pIB27br4+534netcpa72x0ouATNFQIN4ebv4adeE+O3zZV+AN/xxQtm2PTuUmykBOxivWLmJ/KSq28bzKfvwNzZzZSCg01rSwYb3+y47Zzb/vIUa5V49NfTAiAwYeEuefCrqirFo6kAoGkR2SHAPS79LbvsmsuDgBJuDyB6qggoAiWAAM4V4l+RUldMwnbzNvaKg16T5ZFbvoRLCVbkN/7va62trSIEho3Lx3Gfv869FQXO37iv4CKSsiDfBJB1Sr/8vONuuvNhElCo8PjEgnyz5ztyu4WzKALCvc9OGRDunZYYxJa/vnHxNgvzraHK9yBQVysW7pJ3KTEW7nwOJj246WkWCMQGhpRwZ4FbsixKuJMho/GKgCJQCATcfhRSntun2XJlj1e0x9FCMuJSsnTpUo/SWKaF3YqZGT/sZF4ZJLN5IcqEhaALERetrDmcq249PaeWoGNT5098uK3wdAIiHJeS629/XPaUtrnwa7fhSQbExJjpx9zdlhr3mBdWtP/bOyZZvmbPGIG6qHlrl4FLSaVauDNu/EJnYA1KcWEqdMFlWp4S7jJtWK2WIlAiCFg/CvSF8sqSI8GTJqVmuGr4GrndnFhS3vLnx5mqyColnOKNLZGeoxR9+XnHY+6F7ELoceMmjduUzmzFxQu2WILFVi1yyOI+9fhwS5rguZ4Y3dHTcmuRhkuJZ2iRbLTgqU6apyveMOtwv2n7uWmml2Ri4X59rcFHfwVGoFYs3KU/adKxcKuJu8DdJ7Pi1MKdGV6pUivhToWQXlcEFIFCIfDg4ysO2GO7lKUxAxJPDwgxC+25l8/Dwv0f/33X/rst8UhguuQXP3YouTA2Q9NZFlCWKPEkk1NrSoeCQ76t67Yw3YCMvtLckagq2sK8//XMSoz3GN2tfFIiXLzMLV9f19G7285bAeJO7xaeXfjF19aR0bFYZ7AFCYtAsy/3FNmrIjtg85erbCzcrDdXmNl4+WuLspds9pR1VsUp+5oWpoIRLEmJJXV3dydGpozp6enxlRaQMbuCYrFYYQrSGtF22kbSgbXXZd0Z0r+P7n/kxfcduAt3t/S6eDze1dWVeLO/umrdLotnDAwMeCTTRmRxR46MjGx3+IWf/uABRPb39yPqO59/zzbv+S8r03bvjo4O8nIki1yVGJvSrQzSQMNekh7iPrVC5BK1ILtN8J0b7mH97/sfWf7xo/c+8KPf++1lp0oye7TZ17R3vX3PSpvRJggI2BoFpLGXlr9mNr6pq473dGf29GazybHRcaCstHQCpX4fNTY2VldvtUTa7Nmz6Yrp1N2mqa+vzzQLeZubm8nVOqPhp986ZY+dF6QjIbuC0qxRb2/v6Oj4rigZ9TrBoaenr9Zxj7GwaCBsCPT2D9RUV2X0/KEKWXQGHs5kLEBBlOJ+QaQJeBY1QnLisy5iJwx5Ck4W70nmPuWNkkWuLLLw9soiVxZZtEbSvllAp22UNXRTttfh6Pzo82t+9b0zLHQ1NTXTpk1L7H6/++tzJPvLstegIO6r9DqyuCPhRrLkNkblrtgIibFb415ic7W0tEh4XWecvDNnziQLMdiYmelIjE3pVoY2QkmIu6gqR/cpZnKbkavTpq23opB81dc+KAWdcsw7qcWXr/w/9wrfpBcdCNz10Ku3/+BMkZ/+0V10cK6lS+aTIF5R6wYtOAtXX31j4+jo2E5L5qZfkJVZfk+Guro6W7s0A1lkQbLk4viRo/YtQEEpi/DUItPOMFZZrYQ7JcjFTTA4NMK3rExbFp0zzdLQ0JBFruyyFPENqy4lxe3PWroioAgYBODBLEGNH3NKOJjOKCuNkJL1Qzw74BDpXjAbnxD3CoB4SOMSbWc0ustataYDHw9JjEO2aEKMTF6UlJ7Zim6nbbcowu5c7kvEy7Y11FfiZRKnlOjxV8H7hUmT7uw5D++4eA4yn12+Zq8dM1iGZd1G8wl0/uyWnOtTWgIZxclWSqK2TP9194pEr31SJu58ZGvNYIweK6e4S+EEZX36bRpPdilUVt2xaTwBt1j3JbdHFmlwu3I7aNmUOFPh6CXOTjZy8oHBoXhtjTKQyQOZRwm4lMyelvF4Mo8Klbho7e4l3oCqviJQ+gjI9EeYqIdxJtYMBgMFsbzczRhILD7c7lxu9iPxQnndaSTM3jQe1iK2cOszLT7ciRl9Yzzlrl5n5hfCaTxFSF6KoCypu0DBkIDi8DW/66qTfOXnKnKvNy1C1POvrsuIcG/uNt9/pzdPxTdxIof2DK7cp9INvvezv8pCk0LQGRC600hT2o4h4zHb2TwzgBltylxe2wFkpyT3qNJestNt7TKXlGsLIhm9zhNj8xYgMDg0rBbuAuA8mSJirFLiTNKdjBDNaxFQwm2h0IAioAgUBwGsvB6fCtHDkl2rlp13SEyaWWxeCbipMGHrNWhJiU0PA3Yr4A6Txi3HZkkWQO3jD93Z/ZkV4e4S7UjDAwVDiGQycxI/e0ZTJFLV3mFc0tP/tc5sIvHGTkO7p9rP3QOFQNuOkWjh9gUHCVBwHJZYn4cEsF7osu0AvllsJBswuWcVM4RjbIbN23MvwNf5OOOxSaMeKVMW5GsOR5rH1u4ZCVgN0w+wi2FULdzp41WMlKxSopMmcwi8Eu4cgqmiFAFFQBEoMQRaZza3b8qMcM+Zafan3NjZV2JVzZG6fIU4/rA9octu8o1sWeAykXbLQpNSOJSXAEf56EEYXya3j5NYrIl3e0bJdw+RYPm9dQKBXhOW8ZvQdwQmDgivuPE+t4sU9u8Tj/BxWHKPA6VE5OfDpSQ+DOHeavqpFKfH8CDQ2z/IkkTh0afUNVHCXeotqPorAoqAIpA9AgvmTGtrz2xF7ZYm40yycfMUJdxf+Nih2KRhtHBrPJEsQxV/D67iFuJ21YD+ShqxiAMdS8KzLiR8nfDDT68UFi5N6HEpkUjPdw8iIcHW5RoKTtHWTcXjZyUSIOJ4KFkWTnYW1pRLnqMMGDyRiRZuK8qTMv3TeHykXt0V0ser4CmHh0cGhoYb62sKUHJnT6wApRS9CCXcRW8CVUARUAQUgaIhwAzI6qqqjIrf3GWcSVpnGceSKfjDKwNSKwQXl2gPAlzlL5iPHrD7Epi6ZMRLxG3M9khz77skl4S+Wzt3Ij9mGrH1GrfSvv+zv0LQ5RTyDYFGAgGbwAbcG1FJZP4s3LoOt4U9hIGefrM2f2N9gSzcC+eY72bl/VPCXd7tq7VTBBQBRSAIgQP33fG+ZS8HpUi49vgLbxC3dJvZCVemRISdNwntpsLWtCyVt7ufYrcWWpzoUgKpxXVE+K5w32TA4SpNAuvwLUZ0MtpZkpSSSO7R0GqF6wj8HiHWz5sNTe06P55yE+m7JCC7x4eb+MRyPdKCT83GN+pSEoxRUa/iT0L5hSHcXWrhLmpba+GKgCKgCCgCeUdg+aoN286fmVExjzyzivT77Lowo1zlkVjcqeGacF8MybiFWN7JJYip9TCx9U10KeESlBfiKwGbkkCiDzeU+tZ7noSjc5U9UyHfiRZ0IeKWUnucy/HwJheGatSzDN5dqA0nmrfJe+KRe2OGtzZ1m3iSATwWarbeQmiSAjV7bhHo6Ssc4Ubz5sba3OofQmmZfUkMYQVUJUVAEVAEFIEsEGBdNoyvjzy7yu1DnI6cp15q233nheIPsKGjN50sZZMGUgvDxoSMxXfxghmYhG3VoLOE3TH2UmIAV28k8EfAfRUfbuS7W4QEYjWnUFIK8yYAFcaMLX/IIY09lYCkRx+kkQvGjGSSyam70GRhYeqsdsKYAU5PMqQhnPhkWdKPr6ysHKsYSz+9piwwAkPxYUqsLchXCPXhLnDjanGKgCKgCCgCeUFg9+O+vXZD14H77LjTktbu3oGHnlwxe3rT3x97ZY6zwN+u25v9JtP/8XZc1dbxtav/fP9jK19f2zF7emM0GsFvgQVP3n3AzkcfYmyxZfwTIzfe2zhGM+VRGDDsFiK7/25LWAzEcmILgtsJBMJq5zWSBXO1TWZ3vbExBEiAWwgcl6vQcXvJbUpHpnuBbdKYaZHzzLRIlLH6yGDAGsKtqMQAKbG1w7MlL1kQSCkoDGv3df5OFKIxJY3AbksXrP/7txsyn9g6Z47ZTiuj321XnlGZUQYncRYFkW/+/Mwed5nrlTSH+nAnhUYvKAKKgCJQHggMDQ3Ds//2yPI/3P8slukZLQ2sgnzxZ997zz9ffMee25/y/v3a2nzmzyWr+8H7Lb3ypb/dft9z++y6LVvnNNTXwDuXPbOK+Zc//PUD3//ycZ/9yIHJ8pZ6PIZeLNmQTndFoKdMVZRI9p4kjayBTQDbMymP+/x1XIWU250pIa94d8Choe/CgIXFWnLsls9gBjmk970KF4eRu4k7eVmTxC2BsHBo9yzPRNcUyYJAjPeQezuzk3gM5FId5Piq4Sku5SkEa0wN3ClhKkgC2hS3Jc9IrLq6anpzPeXb4SI9kDS2VwerJuvtyOhUUpKd9TSt05Q7u+eGcg9K3clsOJkODAit7xNpfF2hqqqqkl2y8vMUUMKdJ2BVrCKgCCgCYUHgrh9+5mPn3/ivp1ee/L79vnr64UudHd1R7iunH5aFit/54rHfOPN9XZ0ddisfbL0X/eCPwyOjb9lx/uhoOdMomLTdUAbmzdIf0GjYtiWyvO8hrOwHCTVxJ7Y4S3rhLkRiOeaPXLh0QxdsMhsQogx9gRJ5LNnCZqy93GaBIUHl3bTYKunh5TYLASzikkyoEuUSKaUToBSpDtoKZ/KQJLeotMLGpFnOXSUtEMKRaPGCmXRm2lr6DN3Mo5e0tf2yYXuvJ5k9dUtgNEjPgePKJql2SoMkplD3uI5IOhhH7in+rEAJWD5t7yxuARbZ5NSmJHs+lo238icTUMI9GfQ0ryKgCCgCJYDAdotm3XfDWXDum/7wyPw5Le73U3ba202517R3feriX9390AtHvHPXiz971J7OXvHZySyVXNa6xuuf5bQTDd44e/DWh3a7vT6kdiTmTxitxEC1IQ1iVD771EOsRfDy846HguNyzZ/QHcgQ/tysTyK8HDlQGTfr9bAci6cwGHdKe4lyrR+LkC1ZHZwEfLXgEh4ynozWgmiFZBeorKhUC3d20OU8F8Mwho4QXztI83goSYkBo7WsVaKb8TnFZqf/83HGQ8q5KjcdN4hNKQHugtuuPN0T6Tm195Qn3n2/cCmxUE/6yZ8q4Z48hipBEVAEFIGwI8AH4l/898emNdfjnMCsx2+e+b7Jk+Plq9pP+ML1L65YDzv8jLONS9hRyIV+1roWIMyXlXoWD7HZ3Z/yYTz2FH7jGRoR46G/VgiBZJd8lZGMiUMCKzCdatrEWQQqK3EpUQt3FsjlJQudE38na+ROpwz79cOdOLET8sARxyrs4jalfEuRU8afEoAZE6BPQq9hw5b0y7DQnrqFMCa0S2QmY8zcUPaekrzI9/U2sZLzFFDCnSdgVawioAgoAqFD4Afnf+jNO8zDlHXPQy9++Kh9zv/ke3Za3Jq1lp/95q9fWbXh91d/EvN21kI049REgBEgPkhTs+7hrLV7YGZZrFtV95cZG28ZtnX1tpck4HEpkcjEwSckmEvCjBnsMW/B6pDMg4URglUJBs+pp2h76jFmS7wn0oqyuXIeUMKdc0hVoCKgCCgC4UXgMx8+8OhDdv/eT+/9H15Rdz95y2Uff99Bb8lC3etuW3b/o6/8zwUnKtvOAj3NAuEeUcIdgn5gDdXWQxqlPOZkIdPW4WQyWmOT9jBdKc79MceTQByrPCqhNhmtSrDtgB1b7ahANC+ahdt3cnpPT088Hs8U066urkyzZFdQX1+fr9oBpWdXkNYISLODTtsoa+i012UNnfa6NKFjutq5pxxwzIFLz7r0juPPvu47Zx952H7bkDf9398ff+3iH/3lwL2XHLH/thk9jUu9jVjigJ8bqI6OjpkzM9s5CBAaGxvdQtIJ8yhubm5esbrjtItv/conDn7P25amzJVdQWnWaNT5iQ5ZvCZGR0bUwp2yBQuQAM4KHxUOSnEyM/LBx1dgYLY8lWV2ZF/VyeuD4wfM3s50hDfzwQ1fKfd0AluuLc5tPpeBAbnYzkkScBVnbreF3mYk4KHv9lJi/I3/ddI7dt+yTKdNmUX3Jm/isy6ycKGP9Pb2djv93BaZTsBXWkDG7Arq7+8vTEFoXpiCtEZAnV1n0DbKGjrtdVlDVx69jofbX27Y7uQv/+zLV9x19EG7fP8rH+JdSNVS/n5371PnXv7nHRbN+uX3zmAR7pTp3QnKr9d1d3fPnTvXXceU4eyedcPDwxS0rnP41Tc2Rmvr0yk0u4IKU6OamhrcuPUXNgSg2jwH3rH39jBsKCnsllPmNdrZtJkqnOjDzXL17NIqJm3W3mErU2R6phMIEbeRntkLDA9QbPW6TiHNeK24HcQ9GnroO57i0H208sR7crlPs7uPEp916lLiRlXDioAioAhMIQTYquae6z739f/507d/fPdDT11221Vn8C4Mrv/pF9184x3Ldtl+3mXnHJkp2w6WrFfTQUCswpHqrazs6WQMWxqWj6xSxh22VqmowDcDLgvB5Q+SzRI3eHQEmLcT7cSeOiX6cCMWwg2lZjlChOMrIlkSlxPxCLfO3Lfc9bhwcUSRK332LGwbrr+odTpVE6O4lOJxWfHUIienSrhzAqMKUQQUAUWgVBH4+meOmtNS852f/eOYz/3v76464217bOdbExjScWf/+K5/PC9vUKw+vsk0Mq8IiN8zDtB5LaUAwkfHRiur1MRdAKQzKAISjG+GMGBrPGYxPlZet1s7ecRZO7Hb68OmwWMbc7I9tQG8QWQrUx4mMHuJdy8nAhvGJ9ttVpdZlZLSWr45ReGA8YAtkYAl1oSRvLp93EAuVRBfGnf6nIdL/qbNOSIqUBFQBBSBqYbAsYfsymIj0Zrqs//bu9kEULB4G4aoQz9xFWz7iq+YDVCmGj7hqa9YuMuBcKuFOzy9imXXn3oNdXDwgAHjsQ03hcXCRLnZxckbs7cs6G61lnh76vH6kHgW1Wa9EZvGBuxkR9+HCXZoUrrZNqeyb46VIAE8v/FIcafEaJ0oE4HUyI4NJC/JZEVCofKW93uKyOGpWrhzCKaKUgQUAUWgVBFgWe7Lzv3AqV/9+Vcu//1/n3OMrca9D7/0he/c9uJr67dfNOvaC078xHFvs5c0UHgExMId2XriZuHVmHyJ8eGRmkj15OWohMkjABm1PtDQ0ETCShHuKYmybEjKcrGXY+G23NqdnhJh9vh1CLO3jFnW50YZd3GSEUu2nSUpMSLEV1tJgPe52N0py822yUgCcVAhHsItMfleGVAJt7SLHhUBRUARmOoIfOiIvf+67OXLf34fXiXHHLo7cFz203vPv/LOJQtnfu2Mwy/6zFFTHaAQ1L9sLNyxgXh9bU0IEJ3qKkCLsV7LAtiWeiYDRbxNrC91smTCX9lFEqZr97gRxw9ZFtBSW6g2Vmr8VUiJKzaauJkxNnV4tpTCJcvdRaav1zVVQI5koUS33Z2aEu9efUWSJRtjyNUcHpVw5xDMsIhi+64R/OPMHz8nbIImsKmzv7q22wmPVlVVVldV8WnSOXrDaVaGncIojt+os2cYk2BYMyt/M2EoZXh4JD48inVEAms2dA+O1RLDKROJamqqsZo01tfOnNaQZhU0mSKQKwQ2dfXVVFdHIlUR55jsTsBDAzslf8MjI4NDI0Px4aH4+HFwaHiQU45O4I032p5e2QfHIjF3WSW3lvNfdVVlJEJXNwWZY6RaSiS+u6tr9uY498L43V09cWtXV2EWrXZOkeP8KszNyj1bWckNxR+BS79w7JMvrv7QF2849f1vxar9yLOrjj9szx9d9OHmxrpcoRQgBx0GBocdZQwmVBwn300dXQMjvKqoiLvWBucpaCIdt3CXvg93bDBep4Q74GYo1CVYrCWy6VDPdFwvhDRbsdaATZ3cfFqqaB2yE23ViXZuyYJAt0w3VAFVQJ/E0t158x1Wwp1HhNvaO59/Zd3zK9a9sGJdX/9QX2ywLzY0MjrqvOPMe46yhZsODQ3VRmt5lcrPuWCC5t3q/GNZJq8iCQ8MDkFxhXrGWdB0goYaZp2L7XItERdtjVSHVQvDds5MjG9Z5hVu2Lwh3+MBh4c7YRPDn6kXZN38w8+EzByaSjOpwEROyOXf8SqPGJItLxuTI9WPN/GcmU0LWqe99S2L93vL4rftud12C2elyqTXFYHsEWjc9wtifXSLML3d3Oumw8vtwpG7yZ0mnOEb71yGYrD2Pz/w/PZHfN0yeBOAuxvCNxat4T4bP43WRHABj0YjtRxNOMLo17nP5Sknz7uKzZs7I9GH+geG+mND/QPxGAHzF5cY7vFM0aDQmohTtDPYlnKNWhVj9RC6GoYihpfDznn8PvjEiv5Hv59pEaFKXzYW7p6+gebG2lBhq8ooAnlFQAl3XuB97LnXr/31AyyeJdJbmupaGusa66NYXrEw8bY1BmF+E4UT7OmPcyZR40TU8tGxMeeFYWy3dQ0RG8aylRhOQnNd3NcwXkN5KRSrGRSWMYBzTAibSyYS2m8HCbgOOvxBaIQ73rxbYRIwfpPLYegcCBPjxDthx9bO6UTVx4cc40MPeT+bkcaWiIk62spWOUbEccMeV8XCR8AZdRj7N4/y9o7eDR09r6/d/KNfP8iOesg744S3f/6Ug5dOYiNrq7MGFAEPArhewITwu4DwETCjRO4BO0x1OjyUc/zeYTjq2JthgQ43NQy11hJWw1kjtRyjWK7tNygzSuW2MY8Ic+dShDGQD8vXnonhKIU6t7NJYG5q53R4xH1rm0jzCHJ+oiEy7RDac8nkdUQZycYkb2VuOZVI7PRdvXHHWm+M01jox9mzeY6Z+10eblSDJ2F9XbShrqahLjptdguB+npOx2MgyVFuaoc9c1MbNU1e8w+AempNQfFhU1ycTwQYHZxvBZTrhI3NHn36YubzF+HuvgGqcPdDLxz+9l08zVdCpzzh0db9CC0h5a2qmLdpNV6LNkYDikDZI6CEO/dNfPu9T5947g08FP/jQ+888l27smAti03mvhiVmB4C0IVHnln18zuW/fi3D/H3p2s/vdv2ae3ukZ54TaUIGASETX7u5INmTctsIxiFr2AIPP7CG2876Xubu2MFKzEfBeEqhFgea/kQXjCZ2EQoq7lJLdwFgzybgvC3xs9+9oymjDLzJbq6OrPpsKvWdDAOL0BBVCQL9TKqfkBiXRYwAJxsLr342obTLrxp7123WfHnr1/51ROOeOeuyrazwTF3efgmfsAe2/3PBSf+9YbPY94++Ss/e/G19tyJV0mKgEHAscNO+IApJKFEYEazmdfR2d0fSu3SVUos3Hw5TDdDKNNt6uxDr5ktOjoNZfM4Sq3b2M10xqt+fnemKm7atCnTLG/98He/ctlvMs2VRUEUsW7dukwLylV6Jdy5QnJczq/vfqq3f/C6S05a4LfYe44LU3GZIPCOvba76dKPDQzEr/3Nw5nk07SKQGoExgn3hE9U6gyaouAITG+pp8xSt3BjQaAWeA4VHL9cFtjRZYY9OrU9l5jmWtayZ1YhkhWKci3YX15P/6D/hTKKVcKd48a879FXD3nrTm/eYX6O5aq4XCCwx84LT3rvvrfd++zmErdy5QIMlZFLBPCBRpzxs9ZfWBFoajAODExeD6uCaenFLCDSlbpLybiFW9eSSqvNi5OIadOzpje+521LC1D8tOb67r7SvjHTQUkJdzoopZtm4+beV17fVBdVz/h0ESt8uo8ctS+F3v3Qi4UvWkssYwRkEhtLkpRxHUu9akzBZHIqa5WUdEXEwj0yUtouJRs299IKczJ0Di7phist5X/xh0fuuO8Z1gYtLbVDrq1Sw1w2kIzaj3m32TBCf+FE4C07mo8Pr7y+IZzqqVYlisA44VYLd7jbj4lZLEcYbh1TaMf6NqQodQv3+o3d1KJ1VnOK2urlgiOwZkPXTX945D+v+sNB++54yZnv3di+vgAqTG827l5l/1PCncsm3uhMBNFlCnKJaa5lzZjWgFlFCXeucZ3q8sSlRCa0TXUsQlx/VlocGBoOsYKpVZuYNFnaPtzrN/Ww/MUPf/0AS85y7zgrx7JY7vhyP7LmjyyjCSKyji3+WixpaxbKdPZvkhUzOZotnzhGWECTK5XVzqK3jnPX+NLvSDCrSrrXvhw1MU65E6vWju8W56xg66yUb1SSZW255Cy7ycqS46twssokI55RNo4YX2Wf4pxwBTqwuHhzQy0bRRFo4uiEmxqiTfW1jQ21DPlSt7GTAoVlyUvUcJYTtYvwTqwuOrHMqFwlEwt0DgzG+WPVRTaQMuGhOAt0mmU6ne20bECycGT2rSym2dkTe61t08q2TaxVj6h37b3DrVeczvqkaWo7+WQ9/aU9Ek4HgUh7u8+KDd3dZvSZ6a+np8dXWoCc7AqKxWKFKSjTGm3a1EFl+XAZUGW9VHQEmhujGzu6Mu1Coe114Flm91Ep1qinx3wid17zRe/gqkBSBGBmvb19ye79kriPujo7qd7mzWk9wUJbo/NPO/CP9z/zjR/+X9KmCusFSKrs8MrN7vB4M04w9B3+zkbIqSazMghgOw5nKfoacgrpNwON8fDoECvrm9XlzV9GGKAYCmSUxZN41rSGbedP//gx+55w2G67L50f6+vmL1MWhMwset3w8HCksjLZjenR055mURB5C1MjCkrkDJHW1larvTuQLN6dxhOOx+NZ5MoiS1dXVxa5ssiSaY2mzzADFdnlwQOOnoYHASwroxVVmfaH0PY6ATbT6pBLa5Q1dIlPhvp680kUC5zI1GM4EcCHuypSE3CzBFxKVqMC30ftXYaHNTU1palqmsnctStMjf5+4xfGhnqnzZgNcxUbtjG7OktrytRjx95tOCT/Q2f5D3PsunXtM2fONHstTezHhNWZU7MJlLE6S8px+msrtXr16m233QbxjiXaWIi3WM2N3dzsBCdqYCSXcEdHR+ucORJmnIYdTY7i0mMlewJtbW0t02f39A/09A2y1jjHXifMVN3e/iFWMHMCJhwbHHKUqRwaGuTpIWE+X5idU9kDy9n7ydlF1djtDQIODgScX8Wmjk3Tp88QcIiRq2wXVR+tqauNsHuU/NXXmj1fzaZa0Uh/b/fc1jmyF+xExoqq6krKIg1Titmhz1MdThOfdYlpEmMy7XUR84WiItNclJtFlsLUCN0S76PCfS9IbJIyjHGGl+P7sZdh9cqkSjxQU9ohyqSqWo1CISA+tepSUii8sywH/mS4SSn/qALql/o63FRhwZxpbW29snRM+g0y0FyX6fYoCF/eNLJ06Xbpl0LK2qp465yWjLJIYuNSwpb1c9LNilk3C9a4fPnypUszWz8ku4LSrYamSwMBtcekAVLaSeQhqC/dtAErTkI82xpq03WkK46KWmqpIcCqEWKjKjXFp5a+2AIdx94SrrUsC4gtt4TroKorAlsjwLKAW0eU55kS7ly2q1i5ZOvdXMpVWTlFgAkl9XU1ORWpwqY6Atz7fJyd6iiEvv4O4S7tZsLBAJjLwMId+s6iCioCOUZACXcuAWUuM+LkgZhLuSorpwhAuBvq1MKdU0ynvDCcR/XGD38viA0O49safj0DNBSXErVwB0CklxSBcCKghDuX7cJLF3HyyS+XclVWThHgpasW7pwiqsIqGGwr4Q5/P8CdjDnT4dczQEO1cAeAo5cUgTAjoIQ7l60zMXFKUc0lqjmXNTCAhbu0X7o5x0QFThIB7n0daU8SwwJk5+tWmVi4Uy0/VwAwtQhFIIcIsKJLDqWFU5RSw1y2i7qU5BLN/MhiFwCWPq1Xl5L8wDtlpeJTqxbu8Le+WrjD30aqoSJQrggo4c5ly46vUqJzp3IJao5l9Q+Y7axK/bNyjkFRcZNHoLTXmpt8/UtAQk+/MaE1NpT2/A3sBdSi1NdaKYHuoioqArlGQAn3/7P3JgCSVFW6cOWetVdv1d0USLM0roAg4DIuIOKgDjiCDriAOrj+KoLiQ8d5Ij7XB4qiM44jjCKK8BRxYEYcEQEdZ3ADAZWBhpalq5fqruqqysqlcqn6v4iTdTs6IjIrMyoy80bkl52ddeMu5577nRuZX5w4ca+fiNLD7SearZGVL5QgmA9NtgbdbpZKxq279bERCVTEntu6K1pXv1zecBlgt8K6tVhIBIiAdgiQcPtpkmoMd4yo+omqv7IQxAmBfGjSX1QpjV5H/eeAEO6hgBPurEm4+3qD7afXf7ZQQyLgOwKkhn5CKquUyLJNfsqlLP8QqBLugK9U4B8elOQPAvFYrFw29tzmS1sE5synsoLu4cbe4EC4n4Rb23lGxYhADQRIuGsAs4JsM8RuBe3ZtJUIlExWlIjHWtkJZXcdAqlkrFgqd92wAzXgYsm4Ikomg33uT83kMAqGlARq6lFZImAgQMLt5zyIyJMsZNx+guqzrJL5o0vC7TOsXS8umYiDz2Ejw65HQl8A5s0rolQirq+KDWh2z4NPotaznzbWQF1WIQJEQCMESLj9NEaVb/spkrJ8RkDu+8fp4fYZ124Xl0oaNG7evJzrdix0HX/Vw50Itof7Bz+979hnHLRqqE9XmKkXESAC7ggE+1rffUydy42YXdPL1TkLLN/zUkgJLzWXx4o1GkdA/KbFYjltMu/GG7Jm2xCQmB/ci3DtEd8MkzO5mfzuvbM5PF6J9UNzhZKxiugi1uCLRKPYQjjWm4qnkwlsnYMQ6oG+FN79falSecFVoO+Zj+/Y+7Gv3fnQn3dd8+lzfBdOgUSACLQaAfevnlb3Glr5poubd5V1tq/8OjKkRGcbBVG3ZNXDzTBufa1312+3QLlLvvLvWIq7MF8uFEu5fAnPIM7l8C7Kw4jetMe6/kMD6ZHBvpGh3pHBXiyChJzeVBLUXNJYPHvvTG5qJjs1m0Ni91RmJlvA1np4wj5qsPkIdk2SRDwWxVzC9RsuDBBujgQWv5qdK8zMFfbsnYN6H3v3K85+xXO86clWRIAIdBCB+JYtxneQ7ZXP52dmZmyZyx5ms9lcznieo/GXt46gm6vadfr11lGzI5qY2AUdFvGPL10RKJaMZQF37dyxZUtzTm5tZx2G4216c0SeoXN+M2RnpyHNWCN5Ff7ypSMCT+4wbPTIExP9vYlkwuCy/en4upGhvlSirzcx2JfsTUZXjwwMD6QHjHQ8DX92Kh7piYAu44V9zbBP7XyxUiiWsdiR6f82Pif3ZkoLEVD22ew83o8+MYsKUg31JY4F/SLoaHggBeH4PPSAodXDG6HGAn4tFhexvBW6wCde5coCNsPFoybwuBfLFSSSscghG4cG+tauHU6/4oVPferBaxv/+eM3g0xEftcBB2+TwfldJ5DW+fTQEZr0pmKNT2zp3UNHaNieEaEj56yLb9682QncxMTE6OioM79+zvj4+NhYc09yeOsIVnFVu4563jpqdkS/32p4IOjhrmOIjheVK8bl0KZNB2/efEhTymg76zAKb9ObI/IMnfObYdODeyFtJV7SpmYjK3tA4IyXHX3T7ffddOU7j3n6ga7NW3EegUNjsy0EpVjX/vfWkXPWuY7CmumtI34zAENv0NFG3qDr7e0Fe9aT13kbEVo5zyOGlAAW/15LQdz+SaQknxFgDLfPgFKciQDCefEXbk7ioS0CiNqAbgsLbQq5FhxAtblJjbZTgoppgsBMJt8ND780d1ddE9toqwZuPkI3BpRoayAoJquUMIZbZxsFUbcBcyMSRAMHUfku0TkWNb6fERnSJePlMIkAEdAKARJuP82xtAw3v9D9RNVfWXxo0l88KU0QwGoVSDCkROf5IHsAt9nDrTMg1I0IEIF2IkDC7SfaCNeDOPla91MuZfmHQCwmXq623lb2T31K0hQBhpRoahiLWhJSQg+3BRImiQARaB8CJNx+Yo0HzCEuHgv2xgp+IqKfrFjMmPMV01L6aUeNgoqAPBKXx7LNfOmKgLhCxC2iq47UiwgQgdAiQMLtp2mFxmFFVT+FUpavCGCZW8iTSyNfBVNYVyPQl05i/FgkrqtR0HvwEvKHxff0VpPaEQEiEE4ESA39tOuSh5uo+omqv7LkcqgpDzfW3H32mZ/93YPb/dWE0sKEAD3c+lsTO8tASfJt/S1FDbsQASyEH/pRkxr6aeKqh9v0ofopl7L8Q0BCSprycL/3k//vwa07P/0vP9+5Z9Y/RSgpVAjQw62/ObFCH5TEHjP6q0oNiQARCB8CJNx+2jRkHu6vXv+L1DEX3HLnA35i1GlZElLSuIf727f85tv/9pu1qwawUdyGtUOdVp/9a4oAtvIGncvPM4ZbUwNBLfFwM6REXwtRMyIQagS48Y2f5tXcww0CfcHnbrQO+KK3nvyp80+z5oQ+XfVwN7b5xTd/ePc7L73+hcce9sJjDv3s1beNT0yPjY6EHiIO0BsCyXhc7ePtTQJbtRSBqoebMSUtRZnCiQARqIEACXcNYDxll00aJz5UTwLa0eg3N3zoqCPGGunp3We/CO9GagaoTuMe7u/9x71g2ycev/n7V7ztU//8Y4wRjCpAI6WqbUYgkYiRcLcZ86a6i5g3dLlKSVOgsTIRIAJ+IcCQEr+QNORo7uH2c6iBldVgDPd3f/TbN334muOfdfD3vnDeYH9q+8QMtqlbPdwX2HFT8ZYjkEzAw11ueTfswCsCSyElXtuzHREgAkRgBQjQY7cC8BxNJYZbKJ2jUOsMa7SJijORTOURRzD3ay+8WoaBOjfces8Ljz30m586BzkI9UbO+K7p7/7odzg8aMOqR269RM8BL3m4az44tW3X9Ee/dMv1t/7u+UcfcuMX3zY0kMZAHn58N/yXQbSsnlYIpVZJerj1titDSvS2D7UjAiFHgB5uPw0sHm7NQ0qcA/7olbcgtnv+3i/iDXp9+TduR46tmrDtL158plQDt35y515rHbR67pGbpBRFb/notdZSfdKRHmOlgloPTv3P1l2nvvMfwbY//LZT7vzm+9eM9IvmM5nccU8/QJ9RUBMNEQDhLpXp4dbQMlWVhHDXOvf11ZuaEQEiEAoE6OH204yFeWPbi3RSa1SPP+syNebvX3HeaSceCa4MJi2ZCO9+/Sufc/d9f1Z1JPHFa++AP1uFdMOx/Z/3bLXWQStVirSt1Fqzs2ksqg0FelMuNhqfmHntB656csfef/uHd53ygqdZ9dy6bTLSs/D9n9y7cd3wUH+6rzeJZeAS8Wg8HsP1FTzfuFuNN/4bt60NSm98IFrUfPUsGkk5ND+tRUaJHFcrzMwVemey2IAa129Lnwv7pxcrC8ZLZe6ZnBoamkJlvKCFoYK8oIb5iqocS2J82869hSQqQ2djCNEowmaQQDIWixifZsLINzKNHGzsgkkudWTfPitK3tIYBR5+MMaCxNLnrj2ZfCVuzSmVK3iXywuSsKaBRqViwLVj58419+4yoN4HuAEvMDAQqIJhHpqWQm52bm5keBhjwQDNkZqfkjaHHK1CsV/+5OSeyWyPIIa2ksBycwtccs7bJGhLK8wQ9BPnxmRtQZudEAEiYEMgPjExYcvC4eysl/WGM5mMqzSnfJXjraN8Pt+ejpod0e7Jafxsp1MJNUANEypERHSTVf/g4bYuYIKYEJvmINAIGrFlWg/H1u9bvgNpm//bWrOzabkoKuSytikEIn72xddteXz3tZ86++jDV9tKX/PSZ970sz++8eJrGlQeCwh+9sLTzcpPNtjEWu2+R/e7e2AtqpGO7t47V6Oodnak99End9curlHyhx2WAuPaApRdXuqgmmFyXPPKoyfyR+N7BjVNNmyshbxEi2vG9vQ81igIxtVOPILrn0MOPrCqiuPPBy+7aXI668j2OWN6NuezRIrzD4FiuQJh2WzN36mQ/R5hsByRTB9tOQNtJAYql8uVijsdlQqun96md7O8zkcbxUdHR11HUivftbJklkolD608NJmZmfHQykOTZke0GInD91kHIm2LxNWtrXo+KiYe7o0b1lnnA56JPO/SG+55cPxbnzn3b0491tnd9Z9/+6/veSCSHNqxezaTLcDRmysU8RUBj6y8wSBN/7LxCf/qxtHh17/yOKcc5nQKgZNOOAJLiBi3AEz/N1zRxntxcc+ePSMjq5A2bxrs+8TtAtxfMO4wGPcSzE840eFKNxou7NkzOTwyYqaNQ0lc+tUfHXbg2k4NkP0ui0DJfKR1dO0a67lva1WnyFZTHWr7eyQackTAgTbyPBmaZUHeOorjZnEs6mGuemjSnhG5zjqXG+uCFz89IJDNz/enA0a4Dz5gNUZ69/2PIbakzpDh80bctrWCtj5sq5LOdDXsx3IX4oc/u/99n/rexFTmqk+84Sw3ti1CVg2mN28+2CmwVo71GVPUQUDO7Vefj8TJ5135vKMPWXb5c4TRI7BHmti6gATXiB31tCvqI4Ye9xlUL4e/4tIPvvmlKuYHFerIV93hqdnv33avqw5SBxU+f83PrA/IyqgRyq+ESAKP1aocXN3deNvv5flalYkEIpHkGVzJhIZ4MNcq3FpZ0vc/PG4NkUImbuDc8ON7ECWlKssjvLU2LVrV1+PhK3t8fHxs4Y/rlgAAQABJREFUzL625pXfuRMbJKl+tU1gbgB8sRHmEvR0NbGYMkyX4ghDwmDx9LO2pqFiRIAIhBgBEm4/jZvNFwPn4ZagbRCU5x21STg3iM6BoyNWcgaMQNcQc4LHIiVffqf9xK5dsgrzxmNt2BdQOvzUP//HJ75667MO33jD59/6gmcf6rsWQmuEuUI4sAVXxlsxQhvLbEQBoUeyhoyN2sIurz3lGKvthHk3ItZZB3JgdEiw8mBrNbBtTAxrDpg0RmTNUWmJZQL1lxzr5QFybHqC7QlEVqauRNlYoAJBVVaXN5Bz4ed+oBq2NIHIFvjCW9pFg8Kd1yE2tBuUE7Jqskp6Ik7CHTLDcjhEIBgIkHD7aacgEm6MX+iUdck/K2MTgJCzbWJahXqD8Ty+vdEQWz8hXrEsCSmROPt3fPy71/zrr97wquP++eOvb8PPsJBIxbCFFZ15yrNlTGCizpsGikFKHWv8PWyBQ+SDZNdxmYPcX3HxGXAVu/ai5AuFddUB3lCbNxr9/vKerVAAMtWUwHO3f3HsoVLTWt+qs+jg+gk9FXcHMpiN8EzbvPJoCIVBpm13Y9QolGRIU5nOBxJUNX8TYNt+PUjqi2KwiJzI4quGTLnjgfO91hWUL/1qK0Q83HjYWVsNqRgRIAIhRoBfPX4aF4Rb55AS/Po6mbSM3/U32FYfv9YqRAGt4DhUD0oqF6NIs9X0E+IVy5KQEni4z/vYd759y28+/LaXX/qeV65Yak0BivaBJoJEggPBKww/N2JXEAuBQyt3tDpuUccWUqJEoTMwY7SVHUPh8MahukFhUwUkXi6lhBkr+uuULw0VS7PJUYdKDQnVkHwogMSFn7vR6km1+VltsR/SEFcLIMdIQ5pMTmkleqKvXz3wmLBD8eiryxVpLp9q+indOuLhni+VU1quUIQ5BkCcSw9ZMeyGND3c3WBljpEIaIsACbefpkEM99qllZv9lKufLLAiMDlEnuin2jIaiYf7i9feCbb9v9916t+/89RlGqysGFwQLNDKpEErQU8RL2HNbKoTcGWAr1zL0hbXP1buLpkgqUKL0aPTW+zstH7AtNQXdgsPt605or1x08MZDSxXBagsHFqouWrrrA9erq4K0BcYuaLRKl81h3DFtpEp9eHvh1jEqIDKY0ROWFRzfxPzxbLO3lPl6VfIqOHLxYwcOq+4YDK592K9xEJlayt1oSWZsJS6vlJFqrtOJRjD3Snk2S8RIAJAgITbz2mQg4d7Q/A4aCMQ4HdU+RpR/4z3X6Vcko0016eOeLj/77/c9pqTj24p2wbPs3JBQUA5feGplaiJRjiuDT3XGwggprCRrSZMpuI0UGRlSFJTcVkcgmlJlIhNiPMQyiOa35Zvix23lToPccmhAtmlVNzSCjRcV9gqgMPZPNxW/VUX4NmqoargJOuqvl8J7Ouup4cbdgcmuMBzHSmKcC4L7MAcc+DADSPqKgWzVEEHMDHN5BpJrCOt1KxWd8BgKSmSKVfr9ourPq3LLJWMhyaTjOFuHcSUTASIQG0ESLhrY9N8SUBjuBsZKPyyiOFW9MXGexqRoEkdeLixTQmWcrvw3JNaqpKwEEUf5VAxG3SNSAmwFkCqXIAS+2HVSgFuzVRpeSJQKLvQILiZVSkS1lBdFIFaKX2s1VRagjrUIRLyLKMiUqoIRApeT6d6yFH87PHtU6q+M4FRgxarytKR9ZIAFZzaoprqFAzSWkGiU5CJTZowUiXZ2XWLcuDhTum0Aoa6B4Kz1QqUbfiYk2qewNCIPMGTr4pwq8gltAK2mKKYybixANuhSEThEF1YQ1YUuceMghrLLoJkU6lFh7ION1cpaRG8FEsEPCMwncmvGQrYCm8eBkvC7QG0mk0Mwh20ZQFrDsZR4OpYddTSPePeB58E2163euC5R21qm66gKXDfggLC86f4ovRuvYMPmqKIDrh4rRhuYZZKeSVQsRxVhITyPh58QNWLaS21UnaVjxACPGepNFH5tgSImnLPq0ARGaO6hEAd1UrFGKgcYIIl/CTmBM9ZCkW2kX4M1uo7BzVU7BDsXI0dMjF8ueoQzVUghHTXBv5thJToFMMtU0uuYfBsbi2DYmIoiyABk0kAiWTC261KZQlRXEfJpZQi9FLBamupqfJtK4oqgW1O0MPdZsDZHRFoHIGh/lTjlQNak4TbT8Nh62Bs9O2nRMryG4Gjnzr26wce3z01BxL83cve0obFSTACYdLgvkhbfY2KpzY1SqGVaOKky3DuWkWp+/7oCLRVkW9rHaSFtopiqAO+ZSVn8GWqCA1Urn9zQ4KqIRBRBLZehPJah3zBOSch9BwXctAT5FuYt1NJuKvB7azSFDXHuiiKx8v9ARSpFVSkifXCwCrE3/RMJo8tkNYM9/srduXScAGDyCKAY514KxcLCdbrQ18EtloIY7hbjTDlEwFvCOD701vDYLUiO/TTXticFLsl+SlRS1mgU2BIUA3cSKW11NRNqUgkHo9edtFrwFZf+e6vyjOUbvXCkAcua6VZYLTgoxgYPpGPNzgT+KikZcBwOVtdlciU0A6pg0/lYK4DEKpZKTvmiWtl1AHPBgUHob/CEp+g+rKqpzIhSqi5kmktkkyIlUxIUNVamthj7hu/ZpV2hBuj/oC5Vrqcs04QbOt7Ski3qrZt57RKy5Oy8F6r3bJUUSASCLKHnu25xg4EIFSSCGiCAEJKBvvC7+EOPzts53yCi6udHm7hu7hlbBtj8EiwbQCtPIz0RLC59/lvfMnXL33Dz3/7yJkXXLVt/x00W9l5y2XD+W0LyXB2CbYNrzCuN5xFyAH3hYcbodKupU1lgqtJuAIiEEDibSxZROHhS3QHTu8sxfSGXxbBLdZOa3F3a52OpCdNwq3nIkXAFgjDsq7oAX/FxWF3HApBFxjVvQW0RRr3NyANbyQgUM0iSHB+EXXEEHU6hYc7QsJdByAWEYFOIHDfQ4ZH5mmb1nai87b2yZAS3+BeWFzEzhe6ebjxQ4jfRXj71DhBx1WIrcr0lsDvrlWyByH4FQf5s8YxexDSVJNIpGcRjLun59zTT4DH6z2f/H8vPOeKr3/89ae84GlNyWmwsrAQFe2AVsC/VlupZi2tU1mqgR6pOo3ACJOhYS2rIWBaIkbgdYbYWtWcXVt1VmlEMoizHA/hweWs8lVCwotxAYAFvG3dQQEMDUWisGoCJ6tTlEJAVYObVmXaHPaqjr+JPdNzELhmRNOt3XGvA98DONecNgWeiLFWcNkwx6RSRdZoIrnRoWYsvlKWvdLzF3AP0kC4+cSkB9zYhAi0FIH7TcJ9wLrBlvaig3ASbt+sgABuyIpF4UPhS18EIhHDwy2vt535gqcdsuHtH7/u1ef/8+1Xv+/5Rx/io95YORHSQDoVxRH/ojpEqTWgGYf1g2IV71EJNLHRI6GwyJciSbh+KiGgSlJBvNpCpPA0JESpOuBqViGgaIgIB5F1PjQpF3iqMtRDGvT3B196m3rWE5EkoOCQCQmCBhzz8JWiO1A62aXSCgWKFLGDNGeUiIJUKQwNJdIdbduztbt4uNfosQy/65WwQskaFKSeB7BmivlgJmlSi0mjibMVKtvqq0miZkWnEnhokvEknQKf/RKBWgjIQ9j0cNfCh/kuCOCrPBqJSJigS3EnssRNiJ6FiMBZJTeIwXXwFj836oCdYM9IRaqsXEe1RcLq35LROP3TilShguKCyMQhKJq6PS1FipwhH+9GHLTS70o+DQ83/i29MPZbvvLOl73ty+d8+Fs/veq9m8bWLJWs9K+TZzhpkLWONe3atyJMKuGs5qQ7Uscp3CnERp5qiVKdWnmVku+6lI2UKm4HCU6upuidTQ1UVkWqa5WwQSqDQqbSDW3xVvVbl8BjuBA+ukpTD3frBh4gyVgWkB7uANmLqnYDAoje/vJ1d51+0pGDXbBKCWO4/ZzSvelEft54LkeTF4iO+C9BRPAGCxFGgkwkwI1ET/EpSh0UwZsovlh8itNRihBuK/m1RgfuLj5L1Icc3L9W9eHjFF8visBxxfsLBcQDCqqNfEWSasn3Jd/q4RaBhz9l3bc+cy4CGM75yLe0ul7yZbwUIgjMm5uetA6N3XsNwr12NQl36zBeqWSElCTjy9zUxc//zXe4P96w0u7ZnggQAQcCn/zaj5HX0k3oHH12LGOZb5+O6RXMjntTiXyh2GbdxT28kk7BgBX5RuKGW++R1ZERWYsi5XGsT4gRgQDOqipDDlzmiLiFuxG6gYirInF1g4tL0Uo099DWiPhRMSVL7V/8nMPBuc/9yLfO/ci111/+1qXsfX8Rnf+Tux/92b27CvNl+MmwkjdC9k0xVXf5Pp+52WjD2qHzznj+vvZMdRqB4//mc488uae/N4mV8uWzz0zHIgtDcK0kE+lkPJmMxWN4R7GODRI2lbEGUbm8AOPjPTubiSdShWIJ80E+H9y6szedxD0uWyse6oNA/ZASUO2P/9NtN/70D1iDBf42fdSmJkQgrAhce/Ov8T7n9BOwXO+WLVvCOkw1rvj4uMuKXZlMplQqqUoNJmZmZhqsqap56yibzbqqrcQ6E946anZEiUQ0ky04e29pjjMSQ0WyNtgv2LC1JlaWkI0q4JYWB7m1tFYaDmwU2brG5pRS37q5hmylgbCtzhBuM4bbOX9eeOT6j/ztiZ/5lzvf84lv/915J9mG+bJ3Xb11W719E231Vw/3ff6b+8U9WyuAlEVAzSKRWCQai0WMdxSJKGKSzLgkrFwWj8ewfGGV/CVQalDAKMKWFB00KsRiCbSKRxcrlb6+NHKshM92DbAUSbMvO5fL9/X14rIBlw4Liz24hsCVBNKVBePxX+NtpI0/FfOBYCSLxVLE2KezWqoqQ4aZaYpCMzNox+jJvCqplLFcZszseBGjhpLm6CEJ755qGmiYCBgjjcYWF8u9qRRyTAZsFBkDRwWAYA45HjVoMXBLxCGlSnPnMnMDgwNQGL7McmWxXK6UKgul8gK2pHn1S54+OZPNFUpYCFI+84XyxGQ+h+PKbtzZmC9WzFYLeBgDCFjtpdJQWHSIRSLYxT2VjKUSoOlGolQu96cTqiYTGiJgPjQZdZ77s9n5L133S1BtJKD2AaWSs06d4Wj7ewSdvf3wcUSeoWuWM3juKOg2UifdgeuHzzv9aJxxQR+R8yvCOaL42JjhgLS9JiYmRkdHbZmNHLpKq9PQW0e5XK49HUHzpjoa7OvFr3ud8Ya7CMRdxfJqO1IQPhBCV7N+/H1jU5nS1773y+OPOvwtf/086xAWFnqecci6m77ybvhBEQZqUEa89nkzJWVjaZE9e3avW7fOIJQGJzT5pfmJDKtwWxpfPa7q2apZD72dR/AobN682Spn2bS3jgI3IlwmwI1dRcO8eoDFQLWV4ZwjesEbP9/fBevILjtDdK5QNB6a3O8nD17tr3znLoSQIqE0X7t6qKkTUNvfI4zI2wnLEXmGDg2bmjyeOwqujbAaL97fuuXXcLq9+LjDv/eF80YGe4FDcEcE5V1fzhExpMQVKI+Z8GtOzeY8Nu5cM4SCWDtXjm3Ek2B3cWtRnTQeu4ScTgWK1FHMVgTahBzQKUnYSq/8u9c9+Odd77z0evg9333Wi6T0Bz+977HtU3/76mM3HbDaVr/+YT6bHCAJq4+RlqUg1s0uZ4EZ1WwTLYceZqVwL0I9pAGGjXvZoNqyQoJ12F2y6Z11yG1LWy9sgPPOiZlyxCBb1nxRxmkFqQMX8vDwLqfCQtqs+cMmjZOcJ57Yk1vos9axllrzrRKYXgkCsBeMiE+cYsZ7xxTW28YKgMgB4Ec9dezyi17TbbFbJNwrmVH2tuvXDv3+f56053b0+MDREfRv5cHwQ0vEiNILDBsR2BKiLSuKSEg3dt7GA5RYS0QOUQc7adeKA5GgbTwNqZzceIZSpVVftoRIU5EnttJWHCIOAWIRNuBKuFH0gy+9/ZwPX3PBZ2/cuXv20ve+CjnPP3oTePMtP3/oC4USnotthVaUGXQEEFEDB3jQRxFu/XF7CsFF+L3Hr/5Fl98k2204h4ydsMDFJR+VnRVsXHByamrN6ked1erkZHPZA9avdVaoz/z2Tu9dNeISAqrkOLXdvmtPf19199Ppuf3GYqtsHdTc3Fx50f4MA3qx1rF1WjF2Wa42cVaz9aXa6pkQK+BGqIczGk/34N6nlc0vO0YrdMtWVhXKpRJutqrDRhKNd2Sdh4guTjTWkbLy3tkcoFOHSjcEasOlffQRY6eddCTSKr97EiTcftoaj8pNTBqLFejzAo3+/DU/w4IhUAkrgeDzg29+KZ6zxMokiM8WJo31/r5/273IRCnouFRDGuupYYlAcG5ZMRDV6j83iYaI4VZh3LICCeTUf0ENyMfbGYxev6G30iUPdyXV4z75scHsD698x7s+cf1nr75t5+Ts1y55/cZ1w+ee/tx/vP7nODzEv3UDvenPVnoiYPw8W2KM9FSyy7VC2D0I9+s+cDXuaNeBAkuqv+2S6+pUCHqRlU5hLE522JuMplL2fbZRzVpTCTnYhGN+fh5NrBUEJVUNhyMDhjNbXlLTdFcPW+s4JaC+tcLe6elVI4YXyflyMjzUEfa/a9eu9evXSxNVzXZhYL0gQZ1CvpDuTTt7qZ+DKIK+vr76dWyl3jrKzM4ODg3ZRNkObQMUG9nqLHuYzxd6l3BQ0DlbwUYyE2BBGZGRs3E1iDVykJZPZ8OuynHnHF0FgY+D3bBmEKEImOWu3xo+diSi4B5W5Ngq3JZpczODNDt5s3WNZKso1yWQlXynAqrIKsQm3CYTpF94v7VJ69Ky+gSWm6jfxT997Gzw7E//83+sWzX4yfP/6qHHdm1+yhqy7fqgdXMpPNwqwrubcdB57CDcWFLmtq+/98vfuQse7lqq4sT/1y+/A6VWnofDWt/qWx999NDDDqslzTV/z+7da9etQ5GNEqnKrsymTkC2TVXIEW1VR8hx1lHd2RJ8ugOA1EHbBpf10Pl0h7XUNe2to/DZyBWckGWScPtpUISUQNzOyUytr2Y/O6MsTwgsebiXIdyQfcm7X7Ft597LvvHTIzaNTs1k144057fwpB0bBRUBerj1t1w6mYCHG3q+740vwbsW7U4mYk3d78aqko1zWUGpmE9Lk1oNxVlog3R8oOkH8lRHNlE8JAJEoP0IcOMbPzFfv2YQ4nZNzvoplLJ8RUBiuPetQVFX+NcvfQNizt5+yXX3PrhtfIJmrQtWdxdiLUIPEZ/djVm7Rw8PN25EYK0S6RicG3fk8OQWFt62qlLL62ytwzQRIAJEoFkESLibRaxefSHcE5OZepVY1lEEsJAz+m+QcKMmbkB/4r2vOuygtaRTHbWb7p3Tw627hbBLQNK4oztf3G+LCdDuh//9Y07arf9wqCERIALBQoAhJX7aa/0aI6RkV6AIty3C2084tJS1FFJS9XI1ouPF552CN2LmGqnMOt2JAFcp0d/uWKUESiKqZLC6bsc+lSXI5B++89MvXfdf9HDvw4UpIkAE/EOAhNs/LHt6RqshJfRw+4mqv7LkocnKcg9N+tsppYUeAXq49TdxKmkso1Yww7hdtX3dKUe9540vu/mOB1xLmUkEiAARWAkCDClZCXr2tvCgDA+kg+Xhto8h7MdLHu7lH5oMOxIcn58ImOvvch1uPyH1XdZSSInx3GSdV7dtxlEHChYRASLgIwIk3D6CaYjCU+e8I+kzpr6Ka+qhSV97prAwI5BMYI3nJuKUwoyFrmNLp4w7uoX5/WK4dVWWehEBIhA2BEi4fbYolpSaLy3jQfG5S4prBoGldbjJjZpBjXWXQ4BX2ssh1Pny3lQSSmCrhM6rQg2IABHoPgRIuH22edLczMxnoRTnHwIMKfEPS0rahwCW3nfdrGRfDaY6jUBv2ojhzhdIuDttCfZPBLoSARJun82eSsSKtR/K8bkzimseAQkpKVXo4W4eO7aojYDh4Z7L1y5nSecR6DMJd65Q7Lwq1IAIEIHuQ4CE22ebG6GcDCnxGVQ/xS2FlPChST9RpazhAXq4dZ8FDCnR3ULUjwiEGoH4xMSEc4Czs1421ctkMq7SnPJVjreO8vl8ezryMCJsq1Io0HuqLKxdQjzce/ZMTkwMNKWczrMufOdR4EaUiC3waemmTqj2V5aQkl0TOPddfvWgT+Bm3bIYckQCEb+9PU9vDyyIs67WrIuPjo66nrS18l0rS2apVPLQykOTmZkZD608NPEwonJlURafqgMUizqIgMRwDwwNNTsfdJ51wLPZ4aAJRyTz0AN0zm+G9euM7cFn5wpDA2kRy0/dEJBzv39goI7F6xTVGg7PI0HGA3TO86gWyNZ8Dx3RRrSRmkIdnHUMKVFW8CdRLFVSCW4n5A+YrZDCkJJWoEqZQ/0Gz85kC4RCWwRiuP/Y01OpMJxMWxNRMSIQZgRIuH22rkG4zQ2EfZZLcT4hwHW4fQKSYvZDYKAvheNsng/k7QeLVgexqLEzUWWBhFsrs1AZItAtCJBw+2xpPDGJlQF9Fkpx/iGQML1c5TLj7P3DlJJ6euSs5wPTOs+FysIi1ItF+auns5WoGxEILQL86vHZtFgTkCElPmPqq7hqSAlvK/uKKoXJWT/PJUE1ngoSTELCrbGJqBoRCDMCJNw+W3e+VJENhH2WS3E+IRCPxyCpRA+3T3hSjCCALWaNeVXinRN9Z4QEk0RjRmAJX0SACBCBNiNAwu0z4HO5eYnm9FkuxfmEQDJhzHkSbp/gpJj9ESCX2x8PrY7k/kM6aew3yRcRIAJEoM0IkHD7Cfji4iKemiLh9hNTv2Ul6OH2G1LKAwI49/FJvq3zZCjMl6Fems/Y6Gwk6kYEwosACbeftoV7G+JIuP3E1G9ZVcLNW/9+A9vl8gy6jVeElFuA0PGzUCxBrXSKHm4drUOdiEDoESDh9tPEGRJuP+FsiawlDzeXBmsJvF0rdNFcASNKwq3xDBAPN5dt1dhEVI0IhBkBEm4/rTuXNTzcg+YWGH7KpSz/EFgi3Hy4zT9MKWlpdWdZ6Zl46IlAYZ4ebj0tQ62IQFcgQMLtp5lln7nBfmMLDL70RCAhq0lwlRI9zRNYrWSN56i5yntgBxFyxZdCSrhPQsgNzeERAT0RIOH20y4SUjLYZ2zyzJeeCNDDraddgq7Vgrl/IT3cOttx6aFJxnDrbCXqRgRCiwAJt5+mpYfbTzRbI4sPTbYG126Xyl0M9Z8BDCnR30bUkAiEGAESbj+Nm5EY7j6GlPiJqr+y6OH2F09KEwQW5KHJKFcp0XdGFM21iWSLIn21pGZEgAiEFAESbj8NW10WkA9N+gmqz7JkGYkFc9Vkn0VTXBcjIIQ7wlVKNJ4DxbKxDncywRhujY1E1YhAeBEg4fbTtkK4B+nh9hNUn2VhZyJI7O/lXQifge16cebGNyTcGs+Dkni4za2vNFaTqhEBIhBOBOJbtmxxjiyfz8/MzDjz6+dks9lcLle/jq3UW0fQzVVtm3DrobeOmh3RE9t2oFNufGNFXre0EO58drbZKaTtrAPC3qY3R+QZOuc3w65dE7pNdepjQ6BcMVbf//Oftybi7p4mnkeCGL8ZgIO3yeD8ZrBNQueht45ooyDaKL5582bnDJiYmBgdHXXm188ZHx8fGxurX8dW6q0jUCVXtW3CrYfeOmp2RMn0H2PRaG+aT8FbsdcrvXXbHih0zLMOb3YKaTvrMBxv05sj8gyd85th/R8n9Zro1MaBgBDupz/tiFqRPzyPBDN+MwAHb5PB+c3gmIb2DG8d0UZBtJH7hb59RvC4MQQQUtLfm2ysLmt1BoH/2boLHT/tkPWd6Z69hhQB4XCy32RIhxj4YVUqC9gKtBbbDvzwOAAiQAT0RoCE20/7gHD39dK97Sekvsu6/e6HcFH0jMM2+i6ZArsZgai5Pkll0Qha4EtPBPCodITLyOhpG2pFBLoAARJuP42M+OD+ND3cfkLqr6w/bNn+vZ/c+zcvP0rokb/CKa2bEYDrFMOXtUq6GQedx477D2ImnZWkbkSACIQVARJuPy1LD7efaPotC9teXPDZGyH1rL882m/ZlNftCMTMTd0RtNDtQGg8fni4eaWtsX2oGhEIOQJckdRPA8PD3UcPt5+I+ibrX37w31f94L9/98cnvvHJNz3zMAZw+wYsBQkCcZNwy2N5xERPBHATYpEL8OtpG2pFBLoAARJuP408NZMtlcpf+vado6sHRlcP4r1u9cDIUG866TGw++e/feTFxx3up4qeZGGF4QXjtSjvipGUtJHCptZGPj4WFs1Hkow4SUngF85MWg6rBcYvH3779n32SNqSaf444tgQvq9HdCTd7ZePapUKNFmAi/F3f3rikAPXzmTys3OFLY9P/OGRHX98ZMd0Jv+swzd+7ZKz3/Cq4/BUuCcY2IgI1EQgHouh7PHtUzjlE7FYPB7FnqZYswguVfk0J77RHInqrDYmrTFjQdPL5UqxXCnhs4R3WT6xbjROLqOOObFVGmcExBpvyDJ6qKaxh2IiEUvG40sJHBrpZNzMT8Shkrd9FvENMD9fKhTL88VyoVian8cn0maOkcbXXqUHp7MJj3EOVxP4Yx6YGUa5ecqrb4xqwji7e9QogFo6GU8l4+lUAomB/jQWWl16JwGmCK//CX1w+meyBZz4e/bO7d6bxefd9z1m9MQXESACRKATCJBw+4k6vtwnp7P/6/M/tAntTSVGhvpWDfX29SYR5G189mK/M/wqx/CJX5pisZhIJPCzip/YUnkBP2AF82fsl/duXTvSv3q4H78fKMJPsvH7tbR7NETIL6jx+yq/svEYfqiMd8L4TC4l5Lf5T4/uwM/kc4/chB9qdDpfKucLpTx+RwtFfEra/Nx3CNoKIrv0S2obVgAOAQJ49qtfetRpJx552onPCoDGVDGYCIBhQ/E3/K9v6q8+vi7kshdfAsYlsfmyXCQvXTAja7GnyrCLxh6NOrzwjWfQcZOL4+zGoWL3UBXfafiUrzJXbfFN6JrPTCJABIhAqxEg4fYT4eOe+ZQjnrL6wre8fPdUZmIyMzE1t2d6bu9sfjqTm57N753N5QrFTG5+12QGCRBr0Gh4tkyX7UIMr2gEvx9444cE3h0k4NwCNd80tlry8Wn8QpqOpEKhEI0l4AkrlQ1/mNDxXKFUXPrVUT8/yEEXapw/+9XDKg2BWDUc1wNwwhufRiIx2j9oZibx+W93/WGoP/Walz0bP1SGo058aYZ3LQptTR5v5Jqlxu82OjLo+eLi7t2716xZaxwZL3FsGflSASnzV34/zze2DBgcGLDlV3us+vCqfUmmXDbMTE+vWbNGFACCUDIWiwz1p4cHe4cHeg8YHVaDZYIItA6Bv3rJs7792TfjAhVe6TJObfPTuBdkuqjxOZed6+vrN04G08mtTiX4wXHRLR5xwz+NS2Xz07yKju3cueMpBx1kTuzI0vTGZMeJZkg23uYNH+PMWlg0/OLl8p49U719A4a/3PSU40um6i+vJoxvDGhhnonmuWkKmctm+3r7ls5QM9/46DGdzYl0ynQ5JxPmVxPShu+5VCysXbPKrAA/uvlTYtzRkvGZf8yk8WH+l6Inn3zikE2b5EtDfY3grDfukZnfD0BPsXw8d4EHY7bv3BOJJ+ey83P5edO5vs+zLjE8puQe6IY3NMEXF74BFivFA3H+D/SuW9W/dtXAulUD/3rHAzff8YChGV9EgAgQgbYjQMLtJ+Q3f+Wd5iL2w2NN8jzXRezhL1//4o+88VXH//27TnVq2dRq+fjhxK/Z33zw6nv+9MSDt3zM+K1dWIT/WwJPncJVzglnX9aXin3mgtNVToMJ1xHVb9vUiJQoDxsNqLZMEAEfEXjdXx5TR5q36b1lS6LZHZq8deThPPLW0UA8v3nzAXWAchZ568g5ov/v7Bfh7ZTPHCJABIhAGxAg4W4DyJ3vAh4g+IMR1pLJzsMJ1HmFqAERIAJEgAgQASJABLoGgYYeQOkaNPQaKG5PQyGERvil1oh/ovxSiXKIABEgAkSACBABIhB6BEi4Q2/i/QY4m53f73i5A9D9ZpssJ5LlRIAIEAEiQASIABHoLgRIuLvI3iMDvjnLuwg1DpUIEAEiQASIABEgAitDgIR7Zfi1vrXvcSB4FrP1WrMHIkAEiAARIAJEgAgQgSoCJNxdNBU8hIOD7s/MFboIIw6VCBABIkAEiAARIAJ+IxDHiktOmbOzs87MZXMymYyrtDoNvXWUz+fb01FnR7T18V2AbjYz6zpYD9DNzc1B4NbHth24vtHVqbHsLRb4dVWgjllR1CU2qg+CBxtBYGdnHUdUHwEppY2Ag7fpzW8Gz9Bx1nmGjrPOM3ScdZ6hc866+OjoKMQ5X7XynTVVTqlU8tDKQ5OZmRkPrTw06eyIduwtAduhwaFamtfKVxaxJQ7cuA452CZmdHS1rajW4ejakcz9TzTbEaR1iY1q4abyPUDX2VmnNK+V4IiADG0k08PDZOA3g2foOOs8Q8dZ5xk6zjrP0DlnHUNKBMwu+mQMdxcZm0MlAkSACBABIkAENECAhFsDI9RVwUPgdV15zRX6/shmc92zNhEgAkSACBABIkAEgo8ACXfwbdjwCLxx91k+NNkwwqxIBIgAESACRIAIEAEnAiTcTkx0yZGdJjurDZfu7iz+7J0IEAEiQASIABEIAQIk3CEwYnND8MDjGfbdHMSsTQSIABEgAkSACBABCwIk3BYwmCQCRIAIEAEiQASIABEgAn4jQMLtN6Lhkidh3x6c4uGCgaMhAkSACBABIkAEiIB3BEi4vWPXnpadXSdEemdISXtszV6IABEgAkSACBCBUCJAwh1Ks3JQRIAIEAEiQASIABEgArogQMKtiyWceujgV/a2kqBzLMwhAkSACBABIkAEiEDXIkDC3bWmb2LgjOFuAixWJQJEgAgQASJABIjA/giQcO+PB4/2R6CzEeT768IjIkAEiAARIAJEgAgEEgES7kCarc1K6xDc0uYhszsiQASIABEgAkSACPiFAAm3X0gGRg7DsgNjKipKBIgAESACRIAIhAIBEu5QmLGxQXgIxeY63I1By1pEgAgQASJABIgAEaiJAAl3TWg0KaBDWhNDUA0iQASIABEgAkSACHhDID4+Pu5smclkSqWSM79+zszMTP0KzlJvHWWzWVe1nfJVjreOOjuiqalJ6D8xMTE+oMaxL+FhRHun96J9ITfjZvN9kq0pVMYhGjYLeJfYyIqVM+3BRhDS2VnnHIU1hyMSNGgj4OBtMvCbwTN0nHWeoeOs8wwdZ51n6JyzLj42NgZxthdI3ujoqC2zkUNXaXUaeusol8u1pyNo3p6OXEe0evUUFIAhXHXwAF0k9ggEbli/YeyA1XWMYi0qR3pxGImlXXWw1rSlXUdkq2M79DAikdCsbt464oiAtjfo0JA28gYdZx1nnXzLySfPI55HMhP4zRDEbwaGlFi/zZgmAkSACBABIkAEiAARIAI+I0DC7TOgOouThyYZFK6zjagbESACRIAIEAEiED4ESLjDZ9NlRsS9bJYBiMVEgAgQASJABIgAEfAVARJuX+HUW9j0XF5vBakdESACRIAIEAEiQARCiAAJdwiNWmtI2DByqD9Vq5T5RIAIEAEiQASIABEgAq1AgIS7FajqK3NoIK2vctSMCBABIkAEiAARIAJhRICEO4xWrTEmDztN1pDEbCJABIgAESACRIAIEIFGESDhbhSpcNRjSEk47MhREAEiQASIABEgAgFCgIQ7QMZaqaqI4V6pCLYnAkSACBABIkAEiAARaBIBEu4mAQtydYSU0MMdZANSdyJABIgAESACRCCQCJBw6242HQKvuXS37rOE+hEBIkAEiAARIAIaI0DCrbFx/FYNISWD/VylxG9YKY8IEAEiQASIABEgAnURIOGuC0/oCocGuA536IzKAREBIkAEiAARIAJ6I0DCrbd9fNVOh+gUXwdEYUSACBABIkAEiAARCAACJNwBMJKPKjb70CQXNvERfIoiAkSACBABIkAEuhOB+MTEhHPks7OzzsxlczKZjKu0Og29dZTP59vTUWdHNDMzA+j2Tk+7DtYDdGDPxWLRVVotG01NTaFoNjPbVCs06RIb1cJN8j3YCA07O+s4ovoISCltBBy8TW9+M3iGjrPOM3ScdZ6h46zzDJ1z1sVHR0chzvmqle+sqXJKpZKHVh6agIl6aOWhSWdHNDy8C9iuGhmppXmtfGURZyKZTDbVasfeEoQMDQ411QpNusRGToRtOc3ihuadnXU2/Z2HHBFtpGaFh8nAbwZBzwN0/GbwDB1nnWfoOOs8Q+ecdQwpETB1/GzFYnxDXKVER1NTJyJABIgAESACRCDMCJBwh9m61rExGtuKBtNEgAgQASJABIgAEWgbAiTcbYPaY0ckyh6BYzMiQASIABEgAkSACOiBAAm3HnagFkSACBABIkAEiAARIAIhRYCEO6SG5bCIABEgAkSACBABIkAE9ECAhFsPO1ALIkAEiAARIAJEgAgQgZAiQMIdUsNyWESACBABIkAEiAARIAJ6IBDXQw1q4YLA8GCvSy6ziECTCNxw6z3/esf973n9iyNoaP6PRPA3sm3bzr2FJNLINXOMP+Zr/4RZbFbrmZycmpxbWFxEk8VKZbGysFBZWFxYWCiVK+Wy8VmqLJTNdLlSKZUX8In8PZOTq1c/EYtGY9EI/hufZho50WgkZvyJVEuj0UQc71hmdmZ0uoREPB7DZyIWrSbi1QSEFEsVvEvlsiSKpfKj26ZyC+NImPlGKdKlUsXQt/oyVbccY6nU4eHtUojsaKTH1C0ai4lKRsLMMfQUJZHYs2fPVM4Abt/LIlMyVcbiogHRnsmpdVPFvt5kXzo5PNA72J/a15YpIkAEiAARCDsCJNxhtzDH1/UI/OS/H7zxtt/j3fVIaATAIQeuecZhG086fjMuhHC9oZFmVIUIEAEiQARagAAJdwtA9VXkTCbvqzwK6zoEBuFTTcS/e9lbxDNteF4Xe+B2RcL4lHQ1Rx0uJZbqGG1M97jAB4e36e6Fp9rwBMMtHY/BFW24n5cSRk4c7mrzE+5weHnhDodTfEF9Ggf73ORGacXqLK96zeEyN3zn8JdLwnSioyYGlUjEksY7Di+4JPBppuPmYTUt7nmL4U2vPo4dRBfDFjUM573oXKmqjR73FS0YeFkEWpJLsiULR9EIfOTGu1xZyBWKuXxp997Mnx7Z+cdHd/z7XX/4v9/46QVvOvGDbznZIoJJIkAEiAARCBsCJNxhsyjHQwRsCKSScVDVv3rJs2z5POw4Aj/+zz/9w3d//ndfuuUpB6x+3cuP6bg+VIAIEAEiQARahAAfmmwRsKESy2jyQJsThBth1whoDvQoQqn8qS98xs1fedfxzzr4HZd8d890NpRj5KCIABEgAkQACJBwd8s0GOEjmN1iavs4EVyBLERl2At4rAECCHf59PtPQ6jJrT//owbqUAUiQASIABFoCQIk3C2BVVuhs9mCtrpRsRYhgFhqSEZUSYvkU+wKEXjxcYePrh780S9IuFcIJJsTASJABPRFgIRbX9v4rpkHJzcf2fTdCu0XiCcX0SkW7Gt/1+yxQQSOe+ZT/vjIzgYrsxoRIAJEgAgEDgES7sCZbEUKz2bnV9SejQOIQDxmnOYVerg1tt3G0aEdu2c0VpCqEQEiQASIwIoQiG/ZssUpIJ/PYz8IZ379nGw2m8vl6texlXrrCLq5qm0Tbj301lFnRzQ9mcEQdu3a5TpYDyPCSmeFQsFVmhUra3rbtnEc7tixY8uWtDV/2XSX2Kg+Dh5sBIG+z7rJyUmIxUJ2fGmLwCOP70a41/1/eLA3td/KUTyPYDJNzqNak4c2oo3U3PD921tJtiU464I46+KbN2+2GRKHExMTo6Ojzvz6OePj42NjY/Xr2Eq9dQTK6Kq2Tbj10FtHnR1Rsn8KQ1i/fr3rYD2MCOslp9NpV2lWrKzpHTPGqsIbN25sqhWadImNrFg50x5sBCG+z7rRdcZOisbC2nzpisDLnv+0u377yEFPOXjVUJ9VR55HQEOT88hqF2uaNqKN1Hzw/dtbSbYlOOuCOOsYUmKbxmE+xOp+s3MMKQmziV3HJtu+kHC7gqNJpqwkw6UbNTEH1SACRIAI+I4ACbfvkOor0MNDkzIYzw31xaKbNJNgkgj3D9fY6NgsE9rNF8sa60jViAARIAJEwDsCJNzeseuGltPcWD74ZhbfNjYYD/5QQjsCbE6Esc2XSLhDa2IOjAgQgS5HgIRb9wngL+XNcB1u3Q3uv35lc0HAmLlWif/SKdEPBIRwF+nh9gNMyiACRIAIaIgACbeGRtFOJW7trp1JmlGoZPpNk3Fj+xu+9EQgxZASPQ1DrYgAESACPiFAwu0TkEEQYzw02eQ63Nz4JgiGXUZHeRQvYW7wvkxVFncIgWpICT3cHcKf3RIBIkAEWo0ACXerEaZ8ItBhBErmljfyWF6HVWH3NRBgDHcNYJhNBIgAEQgJAiTcITFkI8PwvNiI54aNaMU6rUYAHu5oNCL7Tba6L8r3hgA93N5wYysiQASIQFAQIOEOiqX80bPZkBJ/H9n0ZwyU0iQC+flSOploshGrtxUBxnC3FW52RgSIABFoOwIk3G2HnB0SgfYiMA/Cvf+G4e3tn70tjwBDSpbHiDWIABEgAkFGgIQ7yNZrUncuNtIkYCGpXiiW0yl6uLW2ZlLW4eZDk1pbicoRASJABLwjQMLtHbvuaUmmHmhb46HJBNcE1NuEsmhjkRvf6G0makcEiAAR8IwACbdn6NrUUIcHFrk4YJuM3ZpusPENn5hsDbS+ScVTrZC1sLDom0QKIgJEgAgQAZ0QIOHWyRrUhQi0AIFyuRKnh7sFwPookoTbRzApiggQASKgIQIk3BoaRSOVdPCvawRHMFUp0cOtveGiUeOrmB5u7Q1FBYkAESACHhGIT0xMOJvOzs46M5fNyWQyrtLqNPTWUT6fb09HnR3R5OQMoJvNzLoO1gN0E3umFxYWXKXVshF6R9HWx8d74+VadVzzu8RGrmNXmR5shLa+z7pcLh/pYayCMouOiZgZUjIzaz/ZeR7BWpqcR7XmDW1EG6m54fu3t5JsS3DWBXHWxUdHR22GlMNa+a6VJbNUKnlo5aHJzMyMh1YemnR2RPlyHMAODQ7V0rxWfi0bpVIpONKaaoXeIW316tVNtUKTLrFRLahVfrO4oaHvsy4ai6dTSaUSExoiICElff39tgnD80iMZYOlEQv6fh7V6pQ2oo3U3OCs8zwZuuE8YkiJOlOYcEGA65O4gBK0rEgksrhID7fWZotGGFKitYGoHBEgAkRghQiQcK8QwK5ozlVKAm1mrH9Bvq25BSWkhDHcmpuJ6hEBIkAEPCNAwu0ZupY35LbqLYe4OzowPNyM4dbb1kurlCzorSa1IwJEgAgQAY8IkHB7BI7NiEBQEIjgkUlGlOhtLVmlpMJ1uPU2E7UjAkSACHhGgITbM3Rd0ZDLAobAzIzh1t+ISx5uXhjpbytqSASIABHwggAJtxfUuq0Ng1sCbfFYNFqpMFZBaxtWY7h5J0JrK1E5IkAEiIB3BEi4vWPHlkQgEAhgX3fs7h4IVbtWySUPN83UtVOAAycCRCDkCJBwh9zAKxwelwVcIYA6NI+RcOtghro6cFnAuvCwkAgQASIQeARIuANvwjYMgMsCtgHk1nUBDzdDSloHry+Sqx5uhpT4giaFEAEiQAT0Q4CEWz+bUCMi4CsC8ThDSnwFtAXClkJK+NBkC8ClSCJABIiABgiQcGtghDaqMNSfaqo3rlLSFFx6VmYMt552sWoVxdqNPT3c+MaKCdNEgAgQgTAhQMIdJmu2aixcpaRVyLZFLmK4K5VKW7piJx4RWAop4UOTHgFkMyJABIiA5giQcGtuIKpHBFaKAD3cK0Ww9e2xVjpe9HC3Hmn2QASIABHoDAIk3J3BvfFeO7tOSGd7bxwl1qyDQDwW47KAdfDRpAhRJSTcmtiCahABIkAEfEeAhNt3SPUVyMgQfW3TSs24LGAr0fVNNqJKSLh9Q5OCiAARIAKaIUDCrZlBtFSHywJqaZZGlUrEY6USY7gbhatT9QzCzWUBO4U++yUCRIAItBiB+Pj4uLOLTCZTKpWc+fVzZmZm6ldwlnrrKJvNuqrtlK9yvHXU2RFNTExA/6mpSdfBehhRcX4eD8+5SlNA2RKz2XnkzGYyTbVCky6xkQ0u26EHG0GC77OuUiqUypVyeQHrA9o05KE+CCDsJ5/P2U40nkcwkCbnUa2pQhvRRmpu+P7trSTbEpx1QZx18bGxMZshcQiqNzo66sxfNsdVWp1W3jrK5XLt6Qiat6cj1xHtmTOQW716jasOHqBLplKx2LyrtFo26s/kUTQ0ONhUKzRxHVGtXiS/XC7H4/H6dZylmKiJRMKZXyfHW0dr165NpZpbVNFbR9C8WbTrT4bRtashMz9fHIyn68DCog4igJ2J8F6zasRmeg/nUf3JUGeMtq7r1JQibx1xREDPG3RoSBt5g46zjrNOvrXks1PnET1eVivoldYhkKOd63B7YNswWLNsG028ddQs2/bcke+zsDedhMxcoel7Vr5rQoG1EJgvlVGUTMZqVWA+ESACRIAIBBqBph2KgR4tlfeAwNBA+r6HXeKOPIiq1eSr1//i89f87JFbL0EFpL9/2723X30+0m/56LVj60c+df5ptobW+ihKHXOBrcL8vV9EzkevvOXyb9wuRS889tArLj7z+LMus9XE4W9u+NBRR+y7z3P4Ky496xXHOju1Njz5vCsvOOek00488v6Hx11lSmVRA9pe8Lkbrc2d6de/8jnf/NQ5znxfcnrTxh2A/DwJty9wtkTIfNEg3KkEv5BbAi+FEgEiQAQ6jgC/3ztugrYq0OxOk1DuoPXD9z3UWsINhg2OK0D86oHHnnf0IZJ+7pGbQFVvuPUe4eK1kBJeK6U2BixEVki8VHBWtrJtUPwnd+4FTVdMXXV60IZVSo3XnnLMay+8+vtXnHfwAUa0ho2yI8emhrUtSnGFYG2CC4PxXdOqI98TvSmTcBeKvktuSqD1+ueit55c/5KmKckrrIzLJxj03We/aIVyVtK8aD7VmkryC3klKLItESACREBfBBhSoq9tNNHseUc95fHtU3i3SB9w0/+8Z+tZp1YJN9IHjo5IX+BAykksOXA/g62ChYMWI4E3yLRnxX55z1ZQYdUcjBC94xCdWt9fvPhMZH7wzS9VNaEYMi/83A9UDhIYCPSx5rQnjdUeP/5Pt9XpS0JKOuvhBqnFhZNCFRcYt9z5QB2d21MEi8NkYvT29Firl6qHm4S7FkDMJwJEgAgEHAE6VAJuwNar/4E3vejqm37zf77246sufUMregPrhVhrYAb4tC0GQ3LAcVXYiQpBqa/Sd3/0O7xRByElqiaoHvzTcihkGmlwr7vv+zPkg8GDhMF7jYgR5IMpgpCpQyUEnBtvkGzk4GpE6S+cGw5sVbPVCcTZ/8d/PXzC2Zd97wtVj7utxz4JKelcDLdcUwFDpVjr4mdUF8smYFlcbsFSynbLNmldhbx5/0HuRbSuF0omAkSACBCBTiFAwt0p5DvQL57C7E02fU8DMdznnH7CtTf/+ugjxt73xpf4rrcwVxErrFcCuBvvSDixa31nSAmqgUmL41w1AckG25Z+oc9fHHuoImFg6rbK8LLDv26NEkFgCeqAVqKVVBYiruSLP14dIqHkSyb0tJY2m/6blx/1hWt/ccSrPgEDve8NL5FAFyVkKaSkwzHc23bWDJtRdwasqAJnuUzCJdNfn3zUD2+/H1dHsI6MCybDZZhcCAnyko8mYkfJRBNcmwF/5yWTqqaA6mBC7j/IvYgOqsGuiQARIAJEoEUIkHC3CNhQiYVvG07ciy6/6cvX3XXuaSe8+LjD8W7FCMF6VQC3U75wLJUvLE2oqooJtnIvVdOaUNxOZYKKWUm/8GlVCvc2mljpmnjBQeNUnS9c8zPxoyPHqpWqYOWRUsffGO5nHLpe+vryd+7C+/STjjz9xCNxmSSZSw9NdiyGG1Hy4MFy10IxZtFN0WLJx7UT8Fex8kAVjFnc4ShCrL9qjjRk4tpJ7lcoA6E5aqprNnRqhVo61fBT1pChh1tD01AlIkAEiIAvCJBw+wJj+IXc9vX33nzHA5/82o8RW9LzNWO8cKMimGF4sNe6dCAOBYvM7Ozg0G+WxeUFzz70b1/zPKkG5gR2i7fzgUVxVNto8RUXn6GiPlRH4HY2h7QqkgSoOQKIhcMJ24MQq4/clZ8pmm6jziLzA29+qS1GApIVBbcpUOtwNlvYO5ND6c6Jmf4h41lMeVlXh0S4tsqUNEqR2LZj91J14y8shffbLrkOzBsWWTvcj8x850JK0DsYMECW0CBFjpGPaxXwZkWjsfYLon2AnjzJCrRVEZ5rFMqOVnhhnkg40BevvQPTQ2YC8hFqb62GIutDsWZTHT+qISVm8I+O+lEnIkAEiAARWBkCJNwrw6+bWht+05OOhKsbi5bc/9D4YzuqT1K6rmFSLpXiCWOnzPqvtSMGF5TXjbf9Htzr8e17lYNT8kF2sVyJpEHK8aiirYIUqU9rHbBeIb6QLBWed9QmUDrhxzf8+B5xkCuHqNQRIm4l7ta06kglQOmsfnH0hSUIVSkSBx+w79FMa741fc0Pf4V7CNacFaZxRYQooNNOOhJU+4pr75B1MFYocyXNBWQABfzVdQt4szPeBnNMWLKyGvoF8waTxl0OJPCpuDgkoNR2eQMLiqpq5qxE8za0rYaUmOvJtKE7dkEEiAARIAJtRoCEu82AB7470Di8wbzrj2TLli2bN2+uX8daKi5h+D6RaQ0JwDp9YF3KzWltIg8+wmNtzbSlxTUOfoYIBCmCKxQChbfBlS49ogjh4zbPuvJqS0O0svFyMHtcJKgexXErYegqE4ltE9MghTZpzhjulz3/qZdf9BrUx+bAw8PDVgkqLTcT5DaC3F5AERKPPbH95e++SlVDwA8iufEp9R96zLjyKVUqqkIHE7hYkusZACUrA4qNGlEJNSWqBJ9qHUk0VAFFViGKc1sztU2XyoZ1EomYthpSMSJABIgAEVgJAiTcK0GPbX1D4MLP3Qg6JYEBeLpOAnnBtuG5tHqX777/MdWlikxANZWJBJqLR7nW4tayAw6CsFWPaAXyp1aGhkDbhjsg6Fgg3NoL/LLwtYP2Wb2w1goqDTVsnBLk2xq4AuqJOk8/dAPeaDU+Pt7sxrNbH686dMGw//6dpyJ6W6i26BCPGU/KlssLSqXOJuC9BmhiHVhKXNSNqHTmKc/GVZaEHql7CHB1I/S/keY61ymZ63An4/xC1tlK1I0IEAEi4B2Bptes8N4VWxKBGgiAcYJ1qTBo+LMRnw1Wikwr20ZrUCswXRvDRtgAnNOoL28jUPick1AZNV0jCkD4wNJQqnq06iXKKPItRfBSW+uAfMOrCmct9EFssRSBC0IBm5scRbhmcFXDKnCF6dnsPCQc/dSxn3z9vVioxMq2kZ+Im4S7cx5uUGRcQakxwvcMywomsJTVoCjC/Q1V05bA9RgMh6Bt8HWJOUEFBG1DGqwmldGXbXrYhOh5WKSHW0/DUCsiQASIgE8I0KHiE5ABETPYn9ZNUziPQVLh8RXFVDA0qDa4FyisChgQooaaZ7z/KrA0NRAQdGfMiVRWflBVGQl0AcYGd6lVOPLB1UCaUeSMEbcSa9QUpg7NEXGuulYed1RA7/jES4igqiOZvn/+6dFdYNu11uGOx4xAhQ56uOXGBdBWA1dYoQhpwC5B2ODTTvBVKyRwSwGzRR6XlHzBFldZcqkD89kif6zNtU0vebgZUqKtiagYESACRGBFCJBwrwg+Nl4hAiCmoO1KYqEAAEAASURBVErg0Hh+UcKarbEWwpzAWYWrfeitJyM2A65NcDKQXbC0Or1LZbUljQr1hijQNWFpitOj8mXfuB1sz+pQh6NUPYqHIidphuYgi6KDoomKVoL5oQjbK1rZoVVhDAESJEfJsVZoPD00kIJv2+bYVs3jnfZwQxMQayu2Src6RQpSa2Vr5I/Kh2mc1sE8qdWjaohEg9WsTVqRlgj7eJyEuxXoUiYRIAJEoPMIkHB33gbdrIGiO0jYojgULI1zLNXEmrCyLmta6ihv6CfPP83aCmm4sV1jTlQ1pzQU2TJdWaPUwZCdNFEJbyrxulOOqsW2IafjHu6mxtKdlRcXFjHwaKQ7R89REwEiQATCj0B8YsJl7bbZ2VkPQ89kMq7S6ojy1lE+n29PR50d0d5pI24Ya1a4DtYDdOVyee9s1lVap2yUTqeHhobq9N49Rblcbm5uDuP1fdZlckaEd6miy0OT3WPTxke6sGgQ7qmpqb7EfovJdMl3XX2gPHzXQaDv51EtJWkjIEMbyfTgrPM8GbrhPIqPjo66fo/UynetLJmlUslDKw9NwEE9tPLQpLMj2nSQsRc3VoirpXmt/Fo2iuMVizbbCtI8NPFmo1qad0N+n/nCSH2fdQMFY4/JsvlYXjcgGcQxmny7Z926taOj+y3Z7u088nDC+j7ralmBIxJkaCPgwFnneTLwPPIMXQdnHVcpEavxs/MINOt6F42xiF6zqnvrCCuLt6ejZntZtn7CjAwu08O9LFKdq7BQDSlhTEnnbMCeiQARIAKtRICEu5Xo+iHburO3H/Ioo+sQqK7D3bllAbsO8eYHvNhjhJT0REi4m8eOLYgAESACQUCAhDsIVqKORGAFCJTMLW8S5uKAKxDDpi1EINJjUm2JLGlhPxRNBIgAESACnUGAhLszuLNXItA2BLhteNug9tyRuLbJtz0DyIZEgAgQAc0RIOHW3EBUjwisFAHZVEUiuVcqi+1bg0DEZNzVwJLWdEGpRIAIEAEi0EEESLg7CD67JgLtQKC6bTg3VWkH2B77oIfbI3BsRgSIABEICAIk3Poaqs5WJvoqTc30Q4AhJfrZxK6RxHAvMqbEDgyPiQARIAIhQYCEOySG5DCIQC0EqoSbHu5aAGmQH4sZD01WFrg5kQbGoApEgAgQgRYgQMLdAlB9FTmdyfsqj8K6DgGJ4U6ScGts+WjU+CqW1bg1VpOqEQEiQASIgEcESLg9AsdmRCAoCNDDrb+lYlHTw83NifQ3FTUkAkSACHhCgITbE2xsRASCgwBjuPW3Vcz0cFfM/Sb115YaEgEiQASIQLMIkHA3ixjrE4GAIcBlAfU3WNT0cC8whlt/U1FDIkAEiIAnBEi4PcHGRkQgOAgUiiUom04lgqNy12kaNyPsywwp6TrLc8BEgAh0CwIk3PpaeniwV1/lqFlwEMgVDMLdlybh1tdmsi2RrJiur5bUjAgQASJABLwiEPfakO2IABEIBgL5QhGK9qaSwVC3K7UUwi3BP0EHoFgqx2MISjceA232BR+/8S5XEM6+UME/vBcnpuYWY73YjBMiITaZiCcTMXw2K5z1iQARIAIdRIDfWR0En10TgXYgIB7uXnq42wG2xz6qhLtc8dhem2YHnfy/J6YyUAf8OB6LgnhjARaTKxt8GclKpSJrIC6ayyBiJUSDWlcWDW7dZEQNaHcqmUgl4/JOI5Ew0pAPXl4uFXt70+gT6eobKphFxqGRjqSTiXQqjmgrSZRL82tXj8AWuGCIx6PQH6E+8lkslgvzpfx8aenTOMwVinhP7Nkbjd+Jy1qcaPPFMjYNNUdsjFrSAAGXB6mkcZEgVwsLldLgQL8JjkCEviK4RjFyDMTwWT00MKzmR7KZzOrV25cqGOqZ6Qg+VTVgWDKvWAAshlCcLww9mdk0tvqgDau0mSNUhAh0KQLxLVu2OIeez+dnZmac+fVzstlsLperX8dW6q0j6Oaqtk249dBbR50dUSY7jyFsfXzcdbAeRjQ/Pz/S3+cqzYqVLe2hI0joEhvZsLIdeoPO91n32BPboNjighFYwpeeCCQSMSj22ONPbBnZT8FgnUfgo2DbJzzroBceezgc1QuLi+B/cFHjZRzIy+Ti2FnTIKMm8QX5Baes0keTO4LvVhmnST3BX9HaEABuvrCIwBs40YulynzRILggvsZnsYxP810qlcuohidQ88WckTCSRkNDiKmGHFYWFyGhMG+0kpV89oO+gYO+dBLXsfg03r1Gon+4r9rFUl/QGtrO5dCVobP6LJVN/72nK40GVLNXwcXJ5oPXvebEp736JU/tTS3jaAvWrLMP1e2YIwIqmvweudnHyOsGG8U3b97sHP/ExMTo6Kgzv37O+Pj42NhY/Tq2Um8dgTK6qm0Tbj301lFnRyRb3qxZvdp1sB5GlC8uJJMpV2lWrGxpDx1BQpfYyIaV7dAbdL7PuqHf7oBia1YN29TjoT4IwC0LZUZHN9hOz8CdR3APn3DUIZ+58NX6YNuIJrg8qBL3efB1hLVUJLIFn3IIz3QvHOGmO9xMJPDZiOQG65gOfrk+MTz9OCyDi0tQzdInlFG3Aoy0eU8AdXB5YeSbOcalSzyagNMbPn4jPgeXJZU/j0/iffd9f/7kVXd+/tu//OGV7zjxeJfffaVq4Gad0rxWgiMCMpr8HnWzjZa50q0FDfOJABEICgJw4EFV3GoPisJdqGdoQkrwqPdMphA4C8K/PtCXwrtTmhtxI7jmMm90tE6HO3695T2fvOGcj3zr9qved8Smpn1qrVOMkolANyDAVUq6wcr7xjg00LFflH1KMNVeBHAXGx0ivLW93bK3JhAIDeEeGeyVW3NNDJ5V24XASSds/tZnzp2YzFz2jZ+2q0/2QwSIQBUBEm5OBSIQcgTo4dbfwBLD7S2SWKvRDQ2kZ7PB83BrhWFLlTnumU8569Rjb77zgZb2QuFEgAg4ESDhdmIS2pyZTD60Y+PAaiMwXzLWvkgypKQ2RB0vqXq4TUt1XJmVKDDUn86QcK8Ewda3Pe3EI6dn8/95z6Ot74o9EAEisA8BEu59WOiWws1Z3VSiPkFEAB5u8Dks9RBE5btEZyHcIdj4ZhCEe44ebq2n7aaxNdBv56SxeiNfRIAItA0BEu62Qa1FR0P9jOHWwhDtVALLLmBRsHb2yL6aRQCLYKBJCDa+wXOHmZyxnilf2iKwYe0gdNu1Z1ZbDakYEQglAiTcoTSr+6D4MJM7LmHPxULIWCUs7KMM9vjkiigEHu7+3mQub+xsype2CGCjH+gmj3ZoqyQVIwLhQ4A/w+GzKUdEBPZDAOv1YtGx/bJ4oBkCVcJtriejmWrNqdPXm8yScDeHWbtrY8VudImFutvdMfsjAt2NAH+Gu9v+HH0XIAAPN39cNbdzwgwpwU6Emuu5rHrwcOMCD5vILFuTFTqFwPbdxjbSvAjvFP7st2sRIOHW3fTTc34uLYI1BHQfMPXzHYHFRfqyfAfVX4HJuBFkHwbCnU5iIHRy+zs9/JXW32s8ydPBXX78HQ6lEYGgIEDCHRRLrVRPBnCvFMHAtsf6JAuLgdW+OxQPzTrcCCmBxXIFhnHrO3HncsYyMgN8gF5fE1GzcCJAwh1Ou3JUREAhEIlGFhfJuBUeOiZwUYQHW0Ow8U3KXO49BK56HWeJTzrNZY1lZOjh9glOiiECjSJAwt0oUqxHBAKKQCRCwh0A0yVisRAQ7tA8/RmAGeNVRVm3kYTbK35sRwQ8IkDC7RG4wDWTbSa5DnfgDLdyhY2QEsaUrBzHFktIxKPlcuAfmkzEjQXF6eFu8WRZkfg5c6F0Eu4VgcjGRKB5BEi4m8eMLYhAoBCIx6OlSuCZXKAg96JsPB4mDzfnm5c50J42soZMn7kad3t6ZC9EgAgAgfjExIQTiNlZL3tQZTIZV2lO+SrHW0f5fL49Hekwolwu5zrYZqGbnDSWgpqfL7hKUxZxJprtSCR0lY2coEmON+h8n3Wl4ny5bKy8y5fOCEQiPbmc/ZstcOfR3JyxYThWBtQZ6i7XrVAsA4G5zMzEhPvyRYGbdcsalCMCRJr8HtUyVjfYKD46Ouo6/lr5rpUls1QqeWjlocnMzIyHVh6a6DCivr6+WprXyne1Ub5s3Opdt2a4qVYiykOTrrKRK+CeofN91g0NDoYgOLgOyOEoQqh9Ot1rO9cCdx6NDO8MhzlCPArZY/KAAzaMrh1yHWbgZp3rKKyZHJGgYft6sUJUK+3771GtjrrBRgwpqWX9sOVzWcCwWbTh8chzbOTcDQPWmYpYSAZO7pC8uCiOxoaUkJK0uZ6MxmpSNSIQNgRIuLW26Mhgr9b6UbkgIJAwN1UpBX8XwyCA7VHHcmVhaia7btWAx/baNSPj1s4kSiHxcMsCjiqTCSJABFqNAAl3qxGmfCLQYQTkl3W+ZARu8qUnArun5qDYutWBJ9y4csBAYjFj40y+9EQAwUuGYrwm0tM81Cq8CJBwh9e2biPjsoBuqIQ8L5UwwvfFrRXyoQZ2eL/94xPQ/bCD1gZ2BFXFhXBjicOgDyTE+kswSaFYCvEYOTQioCEC/FrU0CgtUUnW4W6JaArVGwHxcMvSBHpr2r3a3fZfD0ajkVNe8PSgQyBLicdj/GXR15Ipc0HAwjxveelrI2oWSgT4tRhKs3JQRGAfAumUuReJuRbYvlymtEHggYe3/8tNd7/8BU8PwXNscl2XSia0QZeK2BGQLwR6uO248JgItBgB45eYL50R4OoiOlsnELqlTYdWfp53kHU0170Pbjv/M9+DjS6/6K911K9JnSRySShdk01ZvU0IpM3LIXq42wQ3uyECSwiQcC8h0R1/h/rT3TFQjnIfAku/r74R7nyhlMkV5rLzmdw8tonGO1co5vLFXKEEWl+pVBDIi6128FlBwnhXkok4VifEJwLKk0lHAkVJsygRQ2QFFshbxAsjMP8gYRyZ/6xFlYVF6QLbrKAjoy8jsWhJm/kL5sb2VYEiRh4YE6ki3XiGDB1hRRdE4BhvqCqJ/dKm5mZ+PBaLRiLQFi98mn+rT6Ptg94tBZ13TWae2DH1hy3bf3HP1htu/R2af+vT524+2H1LBDcZ+ubNm5HBEsWkr5bdrVkvr8C7ewJw9J1CgIS7U8i3u196ytuNuDb9ibvxostv2rhuGIQyGY8lEjFE2YIZp1JJgzZGwHEXF/B/scekyBXQZaxqAvZcMDk0GDbSINaz2QI+UaepwWFRBJM+N9UokJUN8m3878GnmTA+TToOSm5kZvNF69OruAK58NyT3v+mkzauc9+CJHAozBeNTd3lOd3AKd8lCvf3JjHSbG6+S8bLYRIBTRAg4dbEEFSDCLQKgVNf+IyXPf9pT+6YmpzOFssVLMiNTXAMx3PZ4EbwE+NlkO4ebLwSicUi8N0avDwR600nelNJfA4NpNevGRzoS8Wji+vWjAz2pwb6U4N9qYG+NDIffXL3C559KKr1pY3KoPKQgE+4gM10dOfOHaPrN4BoFkuVYqkMKl8sLiWQUzRzpKhYBjWHKtiFeHh4GAn8q2pmqmcqaaaMteei8Icbn+goCs2j27ePbzr4YMmPx4wcqSCjM2SJNEMAhm5InpycXLvWWBtE+oJ/3tBHvaGtW3r35FR//wA85wZ45ue+hIknPlBqFhoJvLFteyqdBtfp6032p5OHP2XdszZvfPqhG1pl9Q7JldUncb+iQ/2z2+URqBLufHH5qqxBBIiAfwjwa9E/LIMgCVQpCGpSR58R+Pd/fJdT4pYtWzZv3uzMr5MzMTHhYXNgCAQNx7uOZFuRt462DC5s3nywTVT9w1S0NDo6Ur+Os3R8fHxsbMyZXyfH24jqCNSzCJcrUIwebj2tI1r19xm/Atk8Pdw6W4m6hRABrlISQqO6DonLArrCwkwiQAR8RAAebuMeR9TcWsVHuRTlHwL0cPuHJSURgSYQIOFuAixWJQJEgAgQgToIIE4pzl1v6gCkQVF/r3i4GVKigTGoQjchQMLdTdbu6RkaYEhJd1mcoyUC7UQgGo0iYL2dPbKvZhEw1+NZepqh2casTwSIgFcESLi9Isd2RIAIEAEisD8CCCYh4d4fEu2O8JgvdGLUj3aGoUJhR4CEO+wW5viIABEgAu1CAEsfYt3zdvXGfrwgIHcgzNV/vDRnGyJABLwhEMfj9s6WmUymVGp6m4yZmRmnqPo53jrKZrOuatfpy1tHHR8RfrrikYrrYJsd0d7pvcBn+85JV2m+Q9c9NvIduo7POo6oDgJSRBsBB9evoFwui4UmlwWQFTqIAFarRO+zszO1fgv47Q18XKf3slbjN4Nn6Lph1sVdF7fyvIKVq7Q6c9RbR7lcrj0dQfP2dFRrRAiIHBgYcNWhWeg2HTSF4dSSRhvVQUCKatmoTsNmbaREuVpclToT3jriiICkN+jQkDZyhW54yNjBB1ElXKjEeZ5qkiOEe9WqVbXmML8ZYCnX6d2IBWuhWqutt45ooyDaiCEltc4CLfJ93x4yk+Xaq1pYlkoQgVAiIJu6F8wN3kM5wBAMSoLsEfwTgrFwCEQgQAiQcAfIWCtSdWSwd0Xt2ZgIEAEisBwC6VQCVQrzxvY3fOmJgHi4GcOtp3WoVYgRIOEOsXH3G9pRTzU2xvvT1on9cnlABIgAEfAPgbS5qfs8Pdz+Qeq7pAUzhjvKH3/fkaVAIlAXAZ5zdeEJUSE83Hjf/cCTIRoTh0IEiIBeCKTEw21u8K6XZtRmCQGTb3Md7iU4+JcItAsBEu52Ia1BP3ByP/hnerg1sARVIAIhRUA83IX5phe5CikeOg6r6uFmDLeOxqFOYUaAhDvM1rWN7einjs3OFWyZPCQCRIAI+IWAPDRZLFX8Ekg5viPAGG7fIaVAItAIAiTcjaDUyTojA7497Pji5xw+m52/9uZfd3I87LsFCKTTaQ9Sh8wV3Jpq6K2jvr6+pnpBZW8dNdsL6/uOQCIeg8xiiQ9N+g4tBRIBIhBsBEi4g22/prQ//aQjD1w//OXr7mqqFSvrj4AH6oxBrV+/vtmheesIK/62p6Nme2F93xFIJuKQSQ+378BSIBEgAkFHwPhy5EtPBHxfhBvD/N9vP+mdn/zhl79z1/ve+BI9R02tbAicfN6Vzzv6kE+dfxrykX7tKce8++wXIZ065oLf3PCho44wFp+xvt7y0Wtx+M1PnYPPW+584LUXXm0tfeGxh95+9fnIOfwVlz6509h8FK8vXnzmtonpy79xuxyqT1VZckSaa6eqyf0Pj5/x/qseufUS5Hz0ylucMqXm61/5HNEQI/rPe7aq5q6J719x3mknHulaxEzdEEgmDA93iSEluhmG+hABItBpBEi4O22B9vZ/yvM2v/i4wy+6/CbEcyPR3s7ZW9MIgL+Cj15x8ZnSUqXBfS9668nHn3UZPoWLu4oGT52/94uq6KvX/+L7t92rDoXIgvJKjiLBcgi6PL5rWlVGQrg7OrVmStqqBmg62Lxwbhtll8o2yda2oqFcEkhliHJ2xxxtERDCXSx3OKQEl53f/dHvBCVcT8o1agdBs158HrRhlZwdHdSHXRMBItB+BBhS0n7MO9zj975wHtj2KW//CoO5O2yJBrq/4cf3gLOKGxskGy0kDSYNng3GrFzIoObweeMNnoG3pJHZQCfuVe6+789j60dUGYgviAJIORi89Q31UEeRfqgH1/XBB6wCw1BtkcChuN6tmUwHEYHHt0/VUVuHkBK5e6NmKS4yV3Ii1Blsg0U4c2+49R6lD1rxMrJB6FiNCIQJAXq4w2TNhsaC1bh/8vX3vvztX3nbJdchnhv8++ADVjfUkpXajgBYL7zaYM+qZ2taMiVHfs6RYw0pUa1cEyraBGEqqoLVNag8zeAHH3zzS+EmhDscafHPgcTA2w0Wjq5Vc0lIQ+HcVt8ergRA2a083taQh/ojgAv16bn85Re9xlXVpYcmK66lbcgEu0Ws1A++9DbVl5rGKqfNCVweW2Oirrj4DJx6OH2c8WBtVozdEQEi0E4ESLjbibYufYFz//r6DyGSG7ElR7zqE4gtOfe0E0476Ujk66Ii9TARsHIFxXqbwsZG0MUhLRJsISWSCf+0RFerXkCyhW0jB/qAQCuZtpv14DpC4q1RInB+441WCFARyULElXw46ZWfXjKVfFWHCX0QeO8bX7L+xR/5+W8fue7TZ42O2vWqhpR0epUSuOFd6axcJYrSKt5JMjGZP3/Nz0DW//rko354+/3WZxXkKlQuLNUkhxAVhSWZOKFk/lvb2gHiMREgAt2KAAm37pYfbhkJxnOT55x+AvxV8HPD291zSQ9c3SDfRx8xhpgTpOn51mdygBOACvyFGb/hqpXVM40KEsAKDoG0EGskbDHcNjkSi2LNlGBTRfqtVEOqXfC5G8FRVECqhIyroHCpg+sE9XSmaAWaYu3Fys4Zw21FRs80Lsvxvu+h8ee/+R+/8KEz8B1i1VNCSjr40CQmIeYtiK+a9ko9RYvF34yZibmqpjcmsyLKuORDNJei7Ji3mKWQg/lpq4ZMdYGKTp13e1TvKvHFa++Ahkq4ymeCCBCBcCNAwh1u+y4zOvxwgnbjffMdD9z/0Phdv3sE/NtY5GLpBc59wNqBdWuGwfs3baxGniAtvnCVWKq+7++2beO5heZWX56amtqxd5kN6qTffd309OycmClHmnPMT07O5Mv7Zn6DlzSZ7Hwj68bMZPJKPenItZW1mtRX1aamJlevNsJkTzjy4A1rh6T0C9f8DAnXBxaFWCjPtLjr1A8/+IFIwCdiQuo8PQYebD6UeYbQEfFJ2zyCSqySCQqiHNJW6qwqKDquckSyOmwk8fBjE3m3zQttMGLW7ZiJNCJQ1dk7PR2J7VKHKmGTLPnKRjMzM8PDj6jKzoS1uUywubm5gYEBZ03nlLZOyLmZSduIrKXWtiofm1sle/PWImenK8zBnrXwcKMjCUt73xuMS3eRufTQZMdCSqAGphzItNPZDKaLSS7TG9Vw38Z6dqBIkWCkEc0lIwJNR+KsU4/FJy4vMclVNaQRnC3V8CmkXB26JkDxcZbhnHUtZSYRIAIhRiA+MeGy1/fs7KyHMWcyGVdpdUR56yifz7eno86OaNuuGUCH32nXwXqDrtaInvfM9Xi/4wzjRwX9/vHRXX/auuvJnTPbdk2XK5V7/vSEKFPHlCzyHQGE12PpdBELHxtIANLKnYa0+NsUgRAi+4E3v7SOJlJHhAgjQWUVw42b7Dfe9nsRCCaBYFNwCxvJtkpA2/okHp48m19cnO5WDQ8c3fdopjXfmn7Th6+BS9Waw7QHBIYG7BskDfWnRM7CwkI0uu8Z+mFHTWt3j22vLiiJTNgFtBvvv3zBEc88bP1hB61BZsc3vpHLPFwK4hpVhY6A6UI3uc2ihoNLSkk/98hNKvPMU56NswNFmP84I4SL4xD3apwRUKrV847aJ0FlqoS6dlV+dFXUkQR+QVx/WaBMl/zC1ofd31/YOn1564g2AqTeoKvFgtpgo/ioMwrP7LZWfh2dSqWSh1YemsC95KGVhyadHZF4YeEVq6V5rfwV2ghijz1ysxKCL2VrR3DyiffOmlCVVWLHjh0bN25Uhyph9fypTEnMZmaHBqsOXVtRncO903tXjVT3VVEOyDr1UVTL1+hsZdV2cmpqzeqqj99ZU/kXrUXo6MCN66w5SDtr2pyRe/bsWbt2LaptGjO4C17guGCuYMmIGwHJVl5q+Oec/FWaiNe5viNNXOPWCBCQdRAUdIReIEdReWtYiMi3sRaoobSSClBVEviE8kKAIEdlSuLx7XsxCqujEfnKZa4qX/bBv56ZK6jDWolas07q23CWTHi4V43sx/idBkJNW9udu3ZuWL9BJLjWlyLr557du9euW2edUdZSpK2zV1Xbtm3bgQceaC1CTVVqayVF2Vy2v68faXnhAcelpPHXJkoV7ZzY29trp+O16o9PuHhk8sUF9Nvfb3jxk+Z+k0p4pxK4VpTrPXXWuN6EUZxb6YmZj0krUSWY6tbzyDnVVas6Cbk2VtS/Ts12FC0anWATK+sXu7XfLvmFtQ7ZNV0LH9fKktlZzlBHMSniiIBDB22078b6sqZiBSIABMA8hHwcXBeOLVvSmzfvY+1161YLbcy+kSaoMz4+PjZm3/ylfltvHW3ZsqVdI+q1jghsAE41+ckHFQY/xiY1eAwRrBSONyvNxU1wsAQZu3JLqxzJx5OLskiIiqu2YgV/HhiJ0GsrybCGhaBfm4sOKh24YT/OCoXlbjvu2lvlO9NQQ3i/FIGXYBE3FVaLTOHoLzm+obnUtlkXX8yPNbm2TzGfVueOEwfkuJ5QW4YXN28+3LV+rUxv07up8whPWivijkEhpASPXOPBD6j0p0d34lMiuWtp2M58oc44ZdApzgUVKLKsDme94ljc5MHtF7SSK0+JJPnVA49ZT7pl5aACTmFcUrpy/Uaa+15nYdFg3NFoc8FXvqtBgUSg2xDYdw+x20bO8RKBQCCAjRtBrJWzGWQUpBmsF7/fEhmiRoE75vDGwS2ncpCAUw03x1Ff3qgAsi4uPSXTWh+3xUGCrT1aS0F/0a8wD5UPL7VKIwE1wMgR8wo5Qk2QkN6RsNa0+dGtRUxriwCotizFjQAVLA740L9/7O/fdaqwbegswSQSyd2RIWBSWW/awMONWSfBHrj8w+TE/SJRDEXW+zA2bWUC4/IPzFsVYfLjDJJ5i0wklDRVx5nAKQnWjvPOWdSRHCHckQgJd0fgZ6fdiwA93N1re45cfwRAHbCJjBBrFQwNNgxGi9gPOJKVsxm//fhRx/LDtgcr0dbGyzFqMAAQcefwpQu4nBG3CoqshKOmrILivJ8O7g5CY+Xu4lyH5mAn0gUUs/rIFUfBI2gYi1MN5uiMAJ6uhnpg2J97/6knPb/6jIFSuGhu6t5BD7dc42H2KpXUNJYiOJtx4qC0foAHripRAQRd7fOKJkKaVRAUZq/z5FL9qgSukOWaU+UggbOjUxR8ccH0cJNwW+3BNBFoPQIk3K3HeGU9SPzGymSwdSAREGIKl7bEeODnXwWKYDySliIcggrDgQeWgHyQYyvhsA0e9Bck/oJzThIOjVJQClBwuO7wFrEg0BLPLbwctAP8wNq7Vb4i1qojsH+4vSUyBKKEjiNTxWpDW3E91uIr4OvoFAKhrZXNqy6Y6BQCWJ8E6xr9/TtPLeYzTh067uGGSiDWwq2d6rkWyVnjrGwNbVKlYMlOoowpaj07VGVJuF702uq085AhJe1Em30RAYUACbeCggkioBcC6nfd6h62qeha1OAPPFiC4rvgHKo76aIWC5HSOvQCFVxpjTPTKUTVceU6trHzsCMIYOMb8QJMuBNuY0HADnq4O4JJsDpdNGO4GVISLKtR2xAgwBjuEBiRQyACRIAItAmB+vfcdPBwtwmIwHazwJCSwNqOigcaARJu3c2nVgPQXVHqRwSIQNcj0PEY7q63wPIAVB+a5Coly0PFGkTATwRIuP1Ek7KIQEcQwILfHvrdvXt3s628dYRlfdvTUbO9sL7vCNDD7TukvguUkBLybd+BpUAiUB8BEu76+LCUCAQAgVwu50HL6WljceKmXt468kDTvXXU1FhYuRUI0MPdClT9lcmQEn/xpDQi0CACJNwNAsVqRIAIEAEisAwCQrgTidgy9VjcOQSWVinhr3/nbMCeuxIBnnJdaXYOmggQASLQAgRKZWOVkoQeW7u3YHxhEFmYL2MY6RTXKAuDNTmGACFAwh0gY1FVIkAEiIDWCJBwa20eU7n5Ygl/U8mE/qpSQyIQJgRIuMNkTY6FCBABItBJBKqEmyElnTTCMn1XPdxJeriXAYrFRMBfBEi4/cWT0ogAESAC3YtASbZ2Z0iJxlOgYHq40yl6uDU2ElULIwIk3GG0KsdEBIgAEegEAgwp6QTqzfUpHu4UPdzNwcbaRGClCJBwrxRBticCRIAIEAFBgIRb/5mw5OFmSIn+tqKGoUIgvmXLFueA8vm8h70qstlss6vneusIurmq7RyIyvHWUWdHtH13Bvrv3rPbdbBBHJEyh2uCIxJYOjvrXE2jMmkj2qj+ZNg1sQcVuCygQknDxLy5Ssn2bU/mZty3vuqSX9j6puF3neDD3yPg4G0yuJxH2HTK+dq1a5czc9mcbdu2LVvHVsFbRw8//LBNzrKH3jrq7IgeG59MPvv9V377TtfRBXFErgNRmRyRQNHZWafM4ZqgjWgjNTFcJ8PFX/ghvrVUHSY0ROD//NOtsNFcrlBLty75ha01fMl3nd71m6CU394AwRt03TDrGFJS/yqXpUSACBABItAoAtj4hu7tRsHqUL2lGG4+NNkhA7DbbkWAhLtbLc9xEwEiQAT8RgAx3EkuUeI3qv7KQwx3PB6Nx/jr7y+ulEYElkGAp9wyALGYCBABIkAEGkQgGonIzuEN1me19iOwuNgTwT++iAARaC8CJNztxZu9EQEiQATCi0AsFq1UFsI7vjCMLEKyHQYzcgzBQ4CEW1+bDQ/26qscNSMCRIAIOBAwCfeiI5sZGiEAvo0n2zRSiKoQge5AgIS7O+zMURIBIkAEWo8AIoMrC/Rwtx7olfQQiZBurwQ/tiUC3hAg4faGG1sRASJABIiAHYFY1PhNKTOqxA6MRsdGRAkZt0YGoSrdggAJd7dYmuMkAkSACLQagYS5RInsN9nqvv7/9s48OparvvOSepH0JL39yc+WbWzwMxiwDdg4nJlAwEDYjhnCctjikwTIySQTtgTCmQMhQOAPAhMYmDkhbDMMA8QJZAgwAwMDYQmBMdgMSwjxs7GxLfs9vVVqSa3epPlU/aT7rqurt5LUXa3+tuV6t2797v397ufe7vrW7dtVqj8ZgeFghluKOxk8lRKB5AQkuJOzU0kREAEREAGfQD6XYZe7cfuZSqeNgJZwp61HFM8gEJDgHoReVhtFQAREoBsENgR3tRvO5CMRgfAuJZrhTsROhURgEwQkuDcBT0VFQAREQAQ8AqP5LHvlsgS3ByVlyWBJifR2yjpF4QwCAQnutPfyfKGY9hAVnwiIgAiEBPK5QHCXKhLcaR8Qktxp7yHFt+MISHDvuC5Vg0RABESgRwQ2Zri1hrtHHdCO21Br6+k37aCSjQhsIQEJ7i2EqapEQAREYKAJrK/hrmqGO73DoLq6yvOJ0hufIhOBHUog+PpPLxEQAREQARHYPIH12wLqLiWbR7ltNdRqqzyfaNuqT2PFtdW1wlJpuVhaWikvFYO/5XC7VCQzzFmxnBKHiqUKd01cWVkZHR0NvgwI7qEYfilg/2w8pZN/WQ3PFSbLqNy2tFI8sH8v7wI/09Lcon4kM8w2MzLMBU+QCHcX5ucPHl8ODgaZVDlcra5Wa7Vwey5RrlYrlRo33OQWQGxn7zu2/+b7eMgUTaNDeW0k1lbX1lZXbcu/QZqd2tra0tIyLQoOsRsYUCi0DMuulwouxjIMD/6Ihy0t2r17ytIu03bHR3PjY3m2eybHzzswNX1g6vDB3RPj+TSOgHTElJ2bm6uPZGFhoT6zZU6hUIitrUnBZI6KxWJ3HPW2RQuLK6DLDNdiG5sMXW9b1GQkcEgtMj7qo8SDYUA+GdL8PlpeWiQ83Ye7eR/19ij6DLUXe1qxwPr0ffT9n957292nfnbnibvvP3O2sHK2UJxfLK6UqqVytc0BiW7eFSrIIRbcrA2hfUmsr73ZSIb3eIFTcBDNjfw1BVyuVNN2N0wiHx7hv+ERtrzCBJp+fXf9UKDyw5zAlgTDgwdXeVuSay5n43Kj4RB+xGWHH/ngQ4+7+pLnP+XKhkZxB/p01MU1ZT2vvkXZ6enp2AKN8mONLbNSqSQolaDI/Px8glIJivS2Rfnx4OeSk5OTjSJvlK8+akLADiVANyCjbjvQ9fZ9pBa1JIDBVvXRwQMngtqqerp7O9R7Y8N8KDOUTT4D++6z7i//5tsfuOlbP73jGED5FcFlFx/at3vXBdN79k7tGhvNjuVzo6NZlDR/zL+Gf6O71hP5jcQo+fb9zGZ6ZX0GOhTf5WA2OlDhtkW3BpPQTCcHE9LBtHSQdolacCg4sDYUTDBnmV0OZ5otkR3JZzO5XDaYOw8SGRLhfHOgkd1kOYkN6Rxo6OCaYKtfYcA109/FlcrySqVYKnNtc/xUYe5U4a77Tn3/J3d/4Vv/ctOXf/zRv7vl1b/+xBtvuK7NEPpu1LVsV32LtKSkJTQZiIAIiIAItEWAWTLsAtWgV1oJoJbQammNruO4XvbHn/jEF753zcMv+uBbXnzdlQ+64sGHO65i6wqggwPVvnOXVQTrYUZYQhMgm5oYa0Tu45+7+T/+96+/4s2fZKS9+JnXNjIbtHwJ7vT2uG4ImN6+UWQiIAJxBJhWI5v1oXEHlZcKAsytsno4FaFsOog//cAXUdtv+b1n/vvf/tVNV6YKtozAjc++jr/rX/a+l//xJ69+6IUPf0gvr4K2rFWbrmjnXOZuGoUqEAEREAER2BQBvsimvGa4NwVxmwsHgntkh5z6P/yZ7/zak6+W2t7mIZOw+jf926ezTuYL3/hJwvI7rtgOedftuH5Rg0RABESg/wjYDDcrUfsv9IGJuLq6xhruHdDcb//g58dOLjz9l6/YAW3ZkU24/rrLr7p85kv/8NMd2boEjdoJ77oEzVYRERABERCBLSdgc9vb8GOtLY90cCtkhntnrOH+p9vvpxefcO1lg9uXqW85a+vtx6ypj7QbAUpwd4OyfIiACIjAIBCwu4Ztx+0RBoFed9q4Y5aUnDy7BLEDeye6w01eEhCgd84sLLOwJEHZnVdEgnvn9alaJAIiIAK9IWAnVlvJ3ZsI5LUVAXtiSyurPjh+en6JW4Lw1JU+iHVQQ9y7O+gd3QHC+l+Ce1DfB2q3CIiACGw1gVqtRpU7Y8XCVrNJS30s+9kZa374wYB+LZCWUdUgDusgHqnT4PhgZYtC2vt775Qu39PeR4pPBETACHCPZxI74zd5O7VPeXr5xPjoDmgdX6Tofjgp70frIH3lZd0kwZ3y4arwREAERKBvCJjgDp79oVdaCZw4vXho/2Rao+sgLn4qwPIYPWSpA2RdNx0eCm/Mr04KyUtwd30AyqEIiIAI7FACPMialvH06R3avp3QLJ6/fd6BqR3QkvWnLA3pHpTp7UyeTElwPBA+vSF2MTIJ7i7ClisREAER2NEEypUq7cvlJLhT2s1f/sd/XlhcecbjH57S+DoJy1aia4q7E2bdth0JH7G0qruUhOAluLs9/tr3d7ZQbN9YliIgAiLQcwLrM9y5bM8jUQCxBN710a+S/8zHPyL2aH9l2t0ntVohzb2WyWiG+1z/6GPxHAulREAEREAENkOgVK5QfCyvM8tmKG5L2e/95Bfv/8Q3vnnL7R9520snd+2EH01uCG4tV9iWAbMllWqG28eoj0WfhtIiIAIiIALJCayUgyUlowMjuLnrGb8TrdZqbHmgDH+oQJY6rP8X7thusLVDwXFLD3P3BnaCTZC3lS8CO3l28eSZpaO/mLvlp/fw93++87NsNvPG33nar9/w2K301Lu6jJmWlPSuB1p71hpun5EEt09DaREQAREQgeQESqHg/uzXfoS8XClX0N+lUoXMUqVq22KxzA+oWOrN4pNKtVatskWwrvIsukCwrm+De0+wVMD+CdYMhHLUNsisUGmdk6qkTLkGCV+5BrKX1zkt6x/kADVz27K1Vf4L/1CpodPg3/Uc/g1skNS1MM5QXgcKm2ir1bBAclrnShIioZvyDtsSpF0ibDKNI3NdqbscElbKcqBqbAtLK+dqHxq64sGH/+hlT3nVS5+4M+5PYk0DCIlgeOiVVgKMYULTkyatf7Kzs7P1PVUoFCqV4JvBjl7z8/Md2WOczNHS0lJs2E28J3PU2xbNzc3RojNnz8Q2th9b1KSDEg+G3vaRWtScgB1VHyUe3n33Wfebz3rk2z/wpX/39r+uHxj5XIY/nonD/Df3DeROJtnsCLv2x1fPLPfMZ0fIMKG5rik5W9dqmDphhb4KVHDwX5AItXGQCF+BODbX1WoVD6RDw/BfNqsPuKUFii03MjScQdoGqhXJn8tlQ10baLmNMAKZm83wCkMNYg5awS6tYLu2WhsfH8uODJMOdkPJHrgKXuFeGJPtWH65XM7mcmYZxL8edHBXaWuFHQobuN40rlJoEZDC6tfskgCz9SLhNQNlCSmXHYHzxHh+/+7x8fzwpRceuurI4amJYA1JuTg/O9v6NN0vo26xUKBRtJqtXukkkAl/NHnfffdnV1v8Jq1fRl37nOtblJ2Zmakvj9Sbnp6uz2+ZE1tbk1LJHC0vL3fHEZF3x1Fsi04uBuT27d0XG0MydL1tUdCexi+1yLGJ7XF3tD6RDF3sqKuv3M9J5oga1KJk6Pqxj4q3vucnR+8fG80irMdGc6znJpHf+Bnl0aNHjxw54g+qlulk6Jin6M6o23kt6pdRt3vPbgbP+tVKy2Ekg14QsBnuQ4emZ2YONfffL6OueSv8o/Ut0pISn4/SIiACIiACmyXwyCPnb7YKlReBVgRsxZAmuFtx6uVxm+HmC5leBpEa37otYGq6okEge/Ro9wZklC0CIiACIjCwBIJ1P1pSku7utx9NHr07WB+rlwS3xoAIiIAIiIAIiEDfEdC8adq7bCK8AeX0/p3wZNPNs5bg3jxD1SACIiACIiACItADAsEst15pJWCCe2m5nNYAuxqXBHdXccuZCIiACIiACIjAlhGQ4t4ylFtf0eR4nkoXi6Wtr7oPa5TgTm+nzevR7untHEUmAiIgAiIgAiLQjIDNcC8uS3AHlCS4m40VHRMBERABERABEUgxAU1xp7dzJseDG8BrSYn1kAR3ekeq3Z9E89zp7SFFJgIiIAIiIAIi0IAA9+PnCA+dbXB8sLIluAerv9VaERABERABERABEegCAR59ipdqdbULvtLvQoI7vX20N7wD91mt5E5vFykyERABERABERCBeAImuCu1WvzhAcuV4B6wDldzRUAEREAEREAERGD7CWTDGe5KVYI7YC3Bvf0jLqkHPWMyKTmVEwEREAEREAER6DGBXDYQmVpSYt0gwd3j4djSvX402RKRDERABERABAaNQK0WrAy2h4cPWtv7pb0jw8E9ZKyn+iXm7YtTgnv72G62ZlvDvdlaVF4EREAEREAEdhyBaii4sxnJmPR27WIxeMak3Y07vVF2KzKN1G6RTuTnQRfs/+Fts4mKqpAIiIAIiIAI7FgCJrgzmeA+GHqlk8BS+MibyV3B8yb1ys7NzdVTWFhYqM9smVMoFGJra1IwmaNisdgdRz1v0QUHJ++4m7aqjxoOop73UcPIhoaSDW+1CKTJ0A3OJ4NGXRMCdkjvox3/PioUFjMjtmah5XCQQW8I2DMmV6ulWBnjxzQIn97Z6elpv80u3SjfGdQnKpVKglIJiszPzycolaBIz1t07ZWXfvxzNzeKvFF+fde4nJ63yEUSm1CLwKI+srGRYDAMzidD7NvHZSZAp1GnUefGT7+8j/KjY9nwN3kuciXSRmApXFJywXmHWn4o9cuoa59wfYu0pKR9ej2wfMI1l3Ef7h/+i1aV9AC+XIqACIiACKSWQLlSs9s8pzZCBWYz3FrDbSNBgjvV74gnXHsZ8X3z+7enOkoFJwIiIAIiIALdJVCuVEfzwZPD9UotARPcU7tGUxthNwOT4O4m7Y59caMSfjf58c/f3HFJFRABERABERCBnUugVK6O5iS4U93BhaUV4puckOAOukmCO9WDleBe+ZJfYUnJL+47nfZAFZ8IiIAIiIAIdItAqVLNa4a7W7ST+dEMt89Ngtunkcb0jc++jrD+9C+/lMbgFJMIiIAIiIAI9IJAOZjh1j0Be4G+bZ+F8LaAUxNjbZfYyYYS3GnvXVaVoLm5V4lWcqe9qxSfCIiACIhAtwgES0ryuW55k58kBApLJYpNag13CE+CO8kY6nKZd7/u11jJ/YI/+Ah3LOmya7kTAREQAREQgRQSWClXx0a1hjuFPXMupGqtxk42qy8iAiYS3OdGRmpTTHJ/+K0vQW2juVMbpAITgZ4TuOSSSzqN4cCBA50Wwf7w4cOdlkrmKEGLOg1M9iLQpwRWyhXNcKe873gyERHWaqspj7M74enqsDucN+uF+wMyz/26d/+P6170ri9/6PeR4JutUeVFoA8JvPF9n//uD+/86kdeReykZ4+f/a/vuJH0k1/+vuc/9dG/+6LHR9r0F3/1rf/wsa/d/sU/sfzRR78mYlD6wXvJoap3/5ev2qFffsyD3/OG5z32he+KWLL7vZtef9XlMyTsadLU9t43PK/eqV+QwF5z45NueOKV/3THsdg6zbg+DL8SP/2633ryO151g5+jtAgMJoFSqbpvatdgtr1fWp3JhIJ7FcGtSe4hCe5+GbdDr3zpr1z90Jmn/vZ/euiz3ob4ftrjLumb0BWoCGwRgZu+eOsf/sb1VhnKG5Ft6cddfelr3vmZT3/lB6bFG3kzXWtHf3TbrK+AX/zMa9DuCHQqMYN6Y1PbdhQlTQKn/FmO2yLZXRhE+PzXfuTT73k5q8IwcJLdGUfC8MvaIT+M33zjx11BJURgwAkww93zJSX++/eiw/vctf2Ad41rvma4HQoSWlLi00h7mnnum//q9Xumxl/xJ598xVs/rXsFpr3DFN+WEvj81398z7Ezbkb5H279+YWH95oHJn0RpuRgYzmXPeOtzECjhilCgj/EdOJwvn3rzzmbuuII31/cd4YcnPp/TD9jw5S2syRaZsFf+86/dTkkOEkTj5+jtAiIQKcEev6jST5SuGjncto+BN7zhufqkjjSiZnMMDm1YIZbL81w99sYYJL7tv/55vd/4hssL7n8WW979pOufPYTr7RbB/ZbUxSvCHRG4Ls/uosCvlRl8jhSheVwCrSppsiSkoixv/up/3ULf+Qwx+zyke/OBbrZ8u2cSv0sRCEYN2mNxEfcu11XCZqbP0Q2OVwku2l1awj2zlIJERABR4BzHN/lut36RKXKo917OWnIt2F8M8aCMYuNhEvXRzuYOfnwyUSVSm0wmx9ptZaURID0xy7LS1741Cv+7L99m9sFfu7vf8yEN8r7Cddchhy3p8H3RzMUpQh0QoBpbLd82VSvLeBuvw7WgTALHmtfv6QEM06fzF359ohsds0vwTzuqkucgLYafGOT4P4XzSwsoUJ/rYgJcVeK8PwrCvIjuzaJ7uyVEIGdSoD7BPCbpb/58/XlWPXNrFRXc72+/QXX2PWBWY7/yxD3Yw/LZEaAK3n70uxBF+xzK9AoyPvdfZL4n1fuSp6PPj4lWFnH13f+CjRzakeZa3czBfjq4WXAxHiewJaK5YPnviC0SAdxK8Hdx73O1T9/CO5v3nK7KW9rDJqb8/rVl8+gv1l/wraPG6nQRSCOgJ1y4o4EeUxs+0urTbNyGuOQ+9Ghqd5GNZAfUbrkcOpyir/ewObI3XkRA2bBbYqdtL3+/GNfs3l0dv2oNo4H8+vu7OvrcjOwywxnrIQI7GACfHnLeY0vcrlJV+y3uMxw9/Z+c/xCg88ZZLF7z7ruMOFrl+vuizK3HO69H/97O2SfVLzT7fch7FLDH4Q/U+FynU8DM0Omc2HvPltQ+f/3x3fZIefRJTjq6icMlHcjS1dk+xJOcG+fiz6qWYK7jzorPtRgVcmTrkR58wT4H4UPgf9GqL8jv64KJPhDZ4rFlcPT+y45P/j9lv2KC0Xu7nnip80ZOQuLK/nxmPt/zze9Kfh9Jwr5ic4eR3/q1Hyx2vGAXF4qTTSOxDUtnl06ciO3V19o2qLYkCN91LxrXA1N+igSkity+vTp+89U3G47CYI5efLkwftjhlCkOIPN5dQ7OrRv8oLpPWbAaYmTCqc6X1XbIdPTtorDcjhvMd9jczz2S0fL5wzX/DxEVe4uKKZ9qcQmra2G+uK+iPels9mz5VQamZWniJPgzkwJERAB920tX+G+/5PfeNPvPJ0znY8lXFKS8XO6nDYBzaeQPy1NDPam5vrc4uFzg08DJLIT3O5nHuRQnJ+ImODGBkvS9hHnPiu4zuc2Ss6Mak2UN2qvuwB43lMfxccLir9Xk9wbgjt4/I1eHesbIUstAfS0TWa/KQyR1aJIcOQOibvuP82Wv1NnF7/y3aOpbUJPAmtTlPOzD/vBdSMx2pPgB8cpy6jcgk5bOskkt39PABO7rPEwJpxj+Kmib1DPyrex+WlsOOGZJVUxOWTnvJu+dKtNkEcq9GugVEsRj4Ev2fHFLQj9wPyfZvr5fvpzX/8x32uREzt0cyOrE7smfHs/7V/V+Pnz8/N79tzu51g61oUdWigs7J7aXV+kec7x48fP++dz38K3825aXFycnJx01Ta5njy7eO66zi/VyEukqlKpNDo6iqNG9hZDo1IuQks0qaRWq9mdJSNFmu82KdWom6rVaja7fpZv1PU4jRR36BoVidjvnRxfWl6KjLr6spFSGJw+fWr//vV5mchRohoJ7yhnTDiX8RgKJPj11176uy+53oyrwRruXgpuYrNre1sowmeIrd9AGXPILeqwJrgPFnZ9+csHCx9opsWtBgxQ3mwjX7LdO3eWTF58SphAt93I1v8MsWm1e4+tF4xYdmF3Yjx4Q7GkpAu+0u8ie/RojPwqFot8/nYa/dLS0vLyckelkjkittiwm7hO5qjfW3TFhWNDQ2OPu4LFUw8xOLRoYiI4GfPA1cJyeXZuIUgvr78Z7CmsC8sPuBitVCor5TXHdmoiWJLV5LU7fIjrcnF513hbd0h17nCUy3X8nN5yqZwfDUIqLLV4S1vrsPRPQq4hhQe2eqruUbSlcmk0H3x2tP+KOJqaaKt4pVLO5VpAthhcXyRDt1JcGRsfs/5qs1HlSjnfILYmrVtZWRkbYyh28Dp1thBxdM0j13UwGhepzberv3TlJXxh6iaBXvvOz3Dq8s9kzp+d+ZqvfqYsVTGx5G4LaPNS5HAuZHrJzVfhlPOiq5xE5LxoVfkGxPyZr/w/l2NnZU7S3NnQZZJgQp2am1dOK3728+Of/eoPXUE3sF2OEkag0ZjcvSv+/bW6trZnsuFAdbXlHzhPNTKUQdNO1dV5YHe8F2LjOSB2f+KOeqqJ4Hb1uA9zy8kOD49sKFJOgufMwgduu925k+uCzMbS6urqyMhJd5TEwsY5wmX2ZNR98/u38/eWD3zlYZccfOzDZ6pV7n1x7tzkYut+ghlo/vgCjYt89xHkVoA0j4dJaD6gmC+wWyG54ujmyOV983rSeXQ0fLfcedfdM3tbBDgIui575MiRegxzc3PT09P1+c1zZmdnZ2Y6Wy6czBFqOzbsJuElc6QWgTQZOvVRYnQadc3RcUpDdDLBwx9TPraAki336XNfpFKD3dKEBC8TuCTQymHG+oaJH36xxA5K1893aXsCDo/O8aU8utypfPxGHriDjHbFLcHqF2J+4TMe409xRWycJU1zy8Rtzt5fuGLx/9HLnsJfbA1kujdskxlWK+vP1B47fuzweW09PtNVy7Kf/fuDxWktX/7k5V133dXp4zNPnTrFczrrZ0ydX79+l6n3ESjcYHBY2kkk/vR2Y8O8+APMciIGhDc6PuWH5BucOL34e2+/yT9KR//SlRe94GnXXhV+nfupL//h8HBw17mUvGxJN8HY7Ur9FSBNIkRho635Do3Lbz4lzHLmvL18bvAJ0GQmu0md6TlkHXT+BRe01GyJR12nje3hJ8MDL9U7DVz2IiACItBFAqY4nSQlwQw0E8xo2chsEGcvzlgRhc2kOCsm3UMlCdzmrbHkZFnfDs52nAs56hS2b2OV23fBLh/tzsnS7fLVsGlok+aW775r9iU4J1dm7t3iTldD4kSsDPVr8w2ya8WZ8NE8vkFs+kEbuXN64+dWAAAayElEQVRzuQTzMuWlU/Y190Y1rf8dz1anp9tS9q3rksV2EvBHFH4iu+S4wWNRzE4ONZmkYzLbBctqyRtvuI6fTpaLBTfqRoaH1no6we3/PoRQ+XLM3tH25RgfNf86XJDNIT4rmMl2s9euXZZAZ/N5xdvfLTDjk42Pqee++sPuYw1fLh0pnuZduyBa620/pQaQBHdqukKBiIAINCXA5DHLLdyMry3kQBCTw9mIXXfvLROvfKXLGQu57Gq1BZdu1xJm7E51/lGq5QzKmZLK/blnVD5nU6a9/Tl1KxieNZ/rKjGljj0T8E6auxl3zPBuxtzAhLY0OiW7CpUQgQEhwLptWopq5+eSSG2T73PFgmv+8NBwb5UcCpiPCHf97K8l45OBa2x3z1A+mpq8tV/49Mcgr/mo8eez+VjjY8c+5Wgyn2au4X2UoI+ItrfdlB5cEtzp6QtFIgIi0JAAy6A5J3ESYq7IVjk75U0Zm/vhEDqY3Xe//jmc/Dh7kY/YdWfE2Npf/1tPxpifFNvZEWFtZr6CxxenT3J+499c97G/u5lTo++dQ+hsK8Wh+jMrUdlUOjZumsqdSilCPo1yNlaV29pPsmy3T8+7ri1KiECbBLjdLRPbH3rrS+xmAPWlmD3tuZJzb+f68OqvxrFh6tp9QeeK8Enlf564/NjM2G/bXJHI0UY1O/vtTmzMcG+3n/6oX4K7P/pJUYrAgBNAxdrphzNK5KTiyMQeip3VdkX8hH9689Nm406fH3zLS/xSpN2hSL7bra+NQ5HMyC4G7mQZe5J2lSshAjuPAIu5+fvyh36/fl2Kayzrg7VUwdFIZ8LWcPf8uiglcHr5WNSUIFAYIiACIiACIiAC6SHAN048Y7KJ2iZU7vRSrXGjEr3SS0CC2+8bzXD7NJQWAREQAREQARHoMYFGy0j8sLKZEW6V6OconTYCWlLi94hmuH0aSouACPQxAe4f3Gn0yb7rTLOjTgnIXgT6lADPddcMd8r7TjPcfgdJcPs0lBYBEehjAnfccUen0Z84caLTItjff//9nZZK5ihBizoNTPYi0KcEmOGW4E5539lt0rXU3rpJgjvlw1XhiYAIiIAIiIAIRAkEgjt42KRe6SVQKlcJLp/beN5peiPtRmQS3N2gLB8iIAIiIAIiIAJbSIAfTdY6X0W2hQGoqpYECsslbCYnRltaDoKBBPcg9LLaKAIiIAIiIAI7isDIyPDqak8fNbmjcG5LYxaXAsE9tWtsW2rvt0oluPutxxSvCIiACIiACAw8gcyIZrjTPggKyyuEOKUZ7rCjJLjTPl4VnwiIgAiIgAiIQISAZrgjQFK4uxguKZma0Ax30DkS3CkcogpJBERABERABESgGQEEt9ZwNwOUgmNLy2Wi2DWeT0EsvQ9Bgrv3faAIREAEREAEREAEOiJgt5zrqIiMu0ygWAoE9/horst+0+kuOzc3Vx/ZwsJCfWbLnEKhEFtbk4LJHBWLxe44UovoO/WRDWCNusSDQe+jxOg06hKj06hLjK5fRl21qsdM0smpfhVLlVw2c/rUyZZR9suoa9kQZ1Dfouz09LQ77Cca5fs2kXSlUklQKkGR+fn5BKUSFFGLrIsToFMfJUanUZcYnUZdYnQadYnRadQlRrfJUZfJZIaHNM1t+FO6La5Udo3l2pEQg/A+0pKSlA5ThSUCIiACIiACItCIgO4I2IhMevKZ4R4f0wLu9Q6R4E7PyFQkIiACIiACIiAC7RGQ4m6PUw+tmOHWAm7HX4LboVBCBERABERABESgPwisrq1xo5L+iHVQo9TTQP2el+D2aSgtAiIgAiIgAiLQBwTWJLhT30vZzEi1tpr6MLsUoAR3l0DLjQiIgAiIgAiIwFYR4LnuI8Oa4d4qnNtSDzPcEtyOrAS3Q6GECIiACIiACIhAfxBgScmwlpSku6+Y4a5phnujjyS4N0joXxEQAREQAREQgT4hsKYZ7tT3lJaU+F0kwe3TUFoEREAEREAEREAERGALCGSzGT2fyHGU4HYolBABERABERABEegTAsNDujFgyrsqn8uUKnog6HovSXCnfLgqPBEQAREQAREQgSiB4AeTa5LcUSyp2s/nssxw8/PWVEXVq2AkuHtFXn5FQAREQAREQAQSEuC57tJxCdl1q9hoLoOrcqXaLYep9iPBneruUXAiIAIiIAIiIAIxBIIZ7phsZaWHADPcBFPWqpKwSyS40zMyFYkIiIAIiIAIiEBbBIIZbi0paQtVz4xMcJc0wx32gAR3zwaiHIuACIiACIiACCQjkMkMszo4WVmV6g4BuyLS84mMtgR3d0advIiACIiACIiACGwZgWyGW85JcG8Zz+2oqFINblGSywYrufWS4NYYEAEREAEREAER6DMCeqhK+jtMgtvvo+zs7Ky/b+lCoVCpVOrzm+fMz883N6g/mszR0tJSbNj19bucZI7UIgAmQ6c+SoxOoy4xOo26xOg06hKj06hLjG6To251tabbXwA/za/iSonw5uaOcXXUPM5BeB9lZ2Zm6inMzc1NT0/X57fMia2tSalkjpaXl7vjiMi740gtAnWywaA+SoxOoy4xOo26xOg06hKj06iLoBsdzQ8F9+LWK70E1uih4eEHXXxRyxAH4ZOhxTVHS0YyEAEREAEREAEREIEuE+CneKv60WSXoXfojiUluax05jo1gehw+MhcBERABERABESg1wRGRhDcuhF3r7uhqf9KBcGtX0yuM5LgbjpYdFAEREAEREAERCB9BEZGRmoS3OnrFz+iSnVVgtsBkeB2KJQQAREQAREQARHoFwJrWsKd8q4Kl5Rohnu9lyS4Uz5cFZ4IiIAIiIAIiEAdAX6RV5enjFQRkOD2u0OC26ehtAiIgAiIgAiIQB8QWF1jhluSO9U9FQjunGa41/tIgjvVg1XBiYAIiIAIiIAI1BPgF5OZVnd3ri+lnG4SWFhamZoY7abHNPuS4E5z7yg2ERABERABERCBGAK11dXMiGa4Y8ikJ6uwiOAeS088vY1Egru3/OVdBERABERABESgYwK12qpmuDum1t0Cx04unLd/qrs+0+tNgju9faPIREAEREAEREAEYgkEt5zLaH1wLJtUZJYr1bvuO/2Qiw+lIpoUBCHBnYJOUAgiIAIiIAIiIAKdEOAHeVk9VKUTYl22/e4P78LjZRcd7LLf1LqT4E5t1ygwERABERABERCBeAJVPTY8Hkxacv/6f99KKM99yqPSElCv45Dg7nUPyL8IiIAIiIAIiECHBEqV6mg+22EhmXeJwGe/+qMPffofX/C0R+/dPd4ll6l3o8Ga+i5SgCIgAiIgAiIgAg8kUCrX8jlpmAdCScHez+48/tG//c5//tQ3r3n4RR9484tSEFFaQtBgTUtPKA4REAEREAEREIE2CfCbvOYz3CvlaqlcKQXbarlSw55thb9q8FetrdqWBKtTgm2YMDOzt7LUQ2Z4FJvQMrRfW1tD8RND8JfL5sMt6XwuE8nh4S/ZzEj4l8lmLTHCLVb4y46sJzJhIpcdsaqCSnLZBLdh4fbkxVKluFIOt5XllTLx0+pyNdyGzQ84VAMg4dbSIZkar9XgbzXYVmtrloj0yBr7a0MjI8PB3/AwTFZKVdzdf2L+trvmzhaKHH/eUx/1jlffMLlLN+E+By87Nzd3bm8jtbCwsJHs4N9CoRBbW5MqkjkqFovdcaQW0XfqIxvAGnWJB4PeR4nRadQlRqdRlxhdv4y6TGb4W7fc/pxXfhBNubwSKEtTmSvIzVKVLQS25IXuRf4G4viBopnnXKJZS2jZUJGTQKRuiUdXCU6R3U6vuxhQ5wh37tOCYl7/W7+QWCUkVzxZgrub48guAJDUXBIE9dTd8Rxlz8M++Z9IuMAYy2cP7Zt82r+6fObQxHOuv+rSmf1DQ7X2pVq/jLr2kda3KDs9PR1bvlF+rLFlViqVBKUSFJmfn09QKkERtch6NgE69VFidBp1idFp1CVGp1GXGJ1GXWJ0mxx1Nzzxym/dcgc3nhsfy+0ay+/bPT4+lh8fzY2N5tjyNzq6Pve8MH/mwpnz84FuDsQrApq/cKY5nHhen3IOctDVaGvM5ufPzJx/OJioziM468Smtblue/c99x48NB1OqDOtXttIVMvMiFeZM96YRw+n0pk8Zgr5zJkzE5NTNq/MJLpNOQc6fkPEB2o+nFCnsE3DYzy/UBgdG2c63NoSbDfaFbR9LCQQ0iANENq+tFSYPnggx0x8aOltz+Vw1xcuKvxmzc7OzszM+Dkt04hsaQYo1X8yaElJy8EjAxEQAREQAREQgXQR+MjbXtpmQEePHj1y5EibxmaWHykn+LUfc8NIf/7a95VMniZoUTJH7TdEli0JPOBSpqW1DERABERABERABERABERABDoiIMHdES4Zi4AIiIAIiMCgE2Dtbk8QjI2NRfz2KpJIGO3s9lGo7TRHNp0SkODulJjsRUAEREAERGDQCSwtLZVKpXoKJiur1eCne3663jJBTj6fXwxfVpYkjppEsry8vLKyksDRdhRhDTe/5d2Omv06Y5kDCkq+WV+kacs29WCCmhMUiUCW4I4A0a4IiIAIiIAIiEALAuVymV891htx7w5EEgqPQ3663jJZDjVns8HPzxBApEdGRhpFgg0RxgaZzPUmSyG4u6D+65kbKIO2ySZ0v/j29SCDp9OxsclgJLi7P37kUQREQAREQAT6ngDaztrAPfMijfHlnZ+OmNkuitDlR9L+LjbMqZMzOhrc3Rn9ShrBTdq2rpJGCVebSzhLy6nPdwYkYo/6mUzA+/aNipiNFaxfJNNmDRS3GmK9+MwNFLE5+4gLV0PEgF2/Z9mNvOrrIcd37Qwo6NKxid27d5Nv9ccaONd2lF0bBlYqUsTc+duIAUP3wIEDExMTLt83trQ7FJvAxpm5RKyly9RdShwKJURABERABERABNoikMvl0HCs6OCFamTyjxxKIu+QvwgaJp5JWJo57/HxcSwRcKgTbDDg5TyRif3q6qopPKoyAyzJx5HlUw9pK2j51EAO9gSAsSvuavYTeEGyUxwz23KUTNK4pgYLmC03UfYL+mbWLoqgLNnaIQseCUjCgrd880iFFpjVSaahIGA3aWr0zKDezOzJNzOaTNoqJ2HNMaVLnY45/ULaQBEqL5oZiZ9KrAgumIBHg1KEHAPFrutZyvKy2KiKhB0iTcKuHKht165d7FIDNKxmtuRjb8ETgBUnYHxZhSToXPKtFfU0OIR3IuSQHaXV9o2B3/zY5lDQtdoiMTPqxG+bRSxOf0tBW1XlB+AbRNIS3BEg2hUBERABERABEWhBAJHBnYbRUqa2SSBrTHEibhCsGJhcszRmSDqepIYaQy/ywsAUG56oCvGEDZm80F579+4lnwSLj/ft20cm+obiF154IfmkyUfbkUYzUZzK8Y4UQ0VZVBxyL+wxOHnyJHoOG5N61EkY2CObTp06RZp8tlQYu9iaaK0GbPBFu6ampnDhgidx6NAhC955NHfYk+PiIRiMiRNHplCNnjOwhDODDE4JwMyAQ9kTJ0645lirI/zNqYGiUY3ip79ce+kydmkmZYkcMoTNC++kbSE4VU1OTtJ8Wso8MRhZnoE9MRA229OnT3N9ZcFQhJjZpQa6mBiox5pz9uxZehZ7PN52220Pe9jD8EgN2JhHnwY59BE5eCRN8++8887Dhw8bXtd8DCLNibTaKseM+GmIeWxexCBEgmnE3zeLpCW4I0C0KwIiIAIiIAIi0IIAGgXNgb5EtaCDkVNIKzQW0op8FJUpZqSYpRFJFEHuUMTUMzqMgqafcIY9liSQcSgzjlIzQooKzZ4akD64IMGLqkhjT7UIU1ct+VRrVVkbzIxHzFgk1GnFnXcOoSBtVQN+qdAKRrZIZFcDHtGL6F1zZMGbHrXg8RI81GZiwlWLwnMVOnrWQPKNnjOwhDMDheVgBmqA4N0F45oT4R9g2gBFp8TGD168EAYAzYWFvWfPHnYpgiSlE/fv38+FAS+zoTaaAzQ8QszENFVxlD7iqKXpC47aICFBbXA7ePAgZgRGDgbUj0fsGQlWOVvzaLtUjrFT24RKvjWfqti1NtKbbjz4zYm0GjMit/CcuwiBSBGC8YvgzgVAv9cH4KqNJCS4I0C0KwIiIAIiIAIi0IIAagnVYkIQCUICLdW8jBVBLGKGTCGBNkWcsYtUogbqIZ9qeZEgH0lndZqoQuDyiqT9ajGmWnIIxhyRQxHLQTVatWzJZIsZW446R+y6gubaBYAsM4VndSK2EIsE44In4YKnXVSO4LbitM6v1mI2ehhwKJZerBkR4tQcUZa0xUOCSmiXebQtipYcXiRi47ca0O5Ua2nXRipE7EZ61twxh03bbYIfAxrOZRIhUYMJXyPjx29hO0cWHpSwxKPBscp9j8YWEU9VKHIjZtWaOytCA0nQfOoh4bxgGWm1XSSYd7ftqAgNaRIAkbhqI4mGByJ22hUBERABERABERABR8DUj9s16eN2YxNOdGJsCg+RhKhCeKHY0F6ksXFmrhKMmWXkKDmWRlS5o86eQxYVFbpMzFBIHPLFELvkY0YmRayUVe6qdQmitYD9GlwALniOml9n78dgHl2dzqPlUMQd8hOxZhhzrYKU9C1xHRHceAQacbp46uM3v74X0ghcKkejo555TruLjQR1kokv5q2tRWTSTHIMMnPPl156qQvMrxl7K+KOOu80h2rxiL1NaZsNBsx/o+xNebtM7FkGY9PwlmnNN+DmlLK88BhpNTbkuxgs0VERirfDP+JCgjsCRLsiIAIiIAIiIAJbT8BXn1Y7Es0SzDsyYYnIM4HIl/hoLGdv8sgEt0szXW1lfUlHDgauWjNAiqG6XG2WyZZ8q80UmGlBy3E2fsKvwcysiAv+7rvvRt1a8BTkKGZm49ezJWmCx5ernNiQpFyxuMotQqA5UI3id0UsgcClI2wGnfr9OtlFi9t6D1cbmeadkKgBvzb3HKk2dtfixyPoHvGIR1AQte13H5FQIYoZS5bTuC8izJddgFFzffOdOxcnOVTlLpOcQX0iUoSQ6m1a8q8votsC1jNRjgiIgAiIgAiIQBICaBpTURT20+wi3UwnkcaG6UykFVqKLboQ3YzeYp0GKoocJrzNvVXC3C1FqIGtpZ0MIuGqxZgXxX3NhEakKqqloNXJFjN2cUqFLE0mGHLsKMUt4XKwIQetZjWQTw76j5cfvE3EWvAYYO8CM49WbZOt89jEhkNUCytohMuqgw1pw2KxYUMAlgMf0uTXx4909h1hQ/BoXNZ4MHlMtXixkGyLXxaToHojstUaiw29BufIJZDvIpKmoHnk15PmkfFgvpyltc7qpJssn8CwDFoevlzzXSkSVM420mqaHGl1siKN+Pu1RdIS3BEg2hUBERABERABEUhIAJWDEjI17KepDrnmxDGiiptsoJNQxkguLJ2W5RCaz9QSmcgjDPgGHyVnmX7aVYuNRcxKAwLg5RpAhcg1ihMAaXuxgAHXxGNKjuK8MKBytlYWdyg8fkLHFjOMrSz52OCIBKXYWvBcLWBgwWPvSz2r3IXUKOF7bGRDPiGBzoJhlwTS3y5RqIG2G38fFOn6+K3tzhFlqQrh6/KpkxwzIEHTaKMt3Ta/rixFgIA9StRltkyAxTwi8c2YSpxHvzjt5cWFGUfxRZowzJKta75fhDSWkVbz40vXuoix7dYXYQI+UoRdAsAvL0qxbRSA7+LciPRzlRYBERABERABERCBWAKmC9EcdhQ96gtcNJMtAuYngy7NzTow48UhlC5bBOvFF19MDZRFSPEigQJDtGFgc6uobfJRrmyZWKU49pY210SCPZEgKCnOFo+2iMKCRGdjaYIJVYRf8qkBR+43lNTPymPUJMoJuenaRUECoE4MKMUuvtjFjBowI0irjV28cwlBjgVPPi6MA+qcyDFwMbPrvFCbtcuO+h4bmZFP/TSHYEiwxQWTxNZMY061XFSQadXaVURs/L4XaiBmXiQAwkqPI0eOmCw2etZ3Vif57EKMXezxy9a0PjkE5tcc2cUAeyuIO/jTU3ikCB1NzbyojV3rQYqza4FhwC462LxEmh9xik2jVruaExQhgEb88Rj7kuCOxaJMERABERABERCBhgSYX3QKEm2EzLL731GAL/mtGArJpS0HlYklCglhyk0nnDijNrQUeosizKE6gUvCbLAnbbPdlnaR4ZdI0JfUgDvMUIF2FMXvgiQf7ybOyKcSfJkZ9u7uhCak3CEqxNLEMTVQGzXQXj9IFzy67fzzz8eMSqiZstgTFVubjqWgefTpYRyh5zw2MUMsWjAoaQvStZpdvOCLZhKMeWTbJH6qMjMaDk+uH6gWeyaeUbc0H7xsnQtXp59DS4kcPu6oHz+Z/i6txhENN48oewzwCFjqNI/k+D1IJjUQCfk03wjUN9/3YnUaKOs17K13/JqbFyHC+iLm3YZThD9OY1/D3Gy8/gCsoVaf3zwHsU8DmttEjiZzxJcpdkUVqa3JbjJHahFIk6FTHyVGp1GXGJ1GXWJ0GnWJ0WnUtYmOZ5Tce++9SGqTg5RKyahD9iGeUFSmq4jqjjvuYNctciDUNl8paVFstMlO5S1bRG+iVkHH2u577rmH6xa6OIGAHIj3EdcK9a/jx4/XZ7bM4b3U0iZikMwRFwmRelruJnOkFgE2GTr1UWJ0GnWJ0WnUJUanUZcYnUZd++g4m7CMBHt7pWTUMfHJegZiY0HIsWPHZmdnWeZLYiPMDv5NSYtiI052Km/ZIuixYGNubg5urGDBdTJHg/A+0pKS2EtBZYqACIiACIiACGwlAVv7sZU1bkVdTGbznTkrDVhSjF5k+QEvFORW1L3z64Ae60CY4ebFko+d3+BNtFCCexPwVFQEREAEREAERKA9Aiiz9gx7YMW6YV49cNz/LtHcrMnp/3Zsewt0W8BtRywHIiACIiACIiACIiACg0xAgnuQe19tFwEREAEREAEREAER2HYCEtzbjlgOREAEREAEREAEREAEBpmABPcg977aLgIiIAIiIAIiIAIisO0EJLi3HbEciIAIiIAIiIAIiIAIDDIBCe5B7n21XQREQAREQAREQAREYNsJSHBvO2I5EAEREAEREAEREAERGGQCEtyD3PtquwiIgAiIgAiIgAiIwLYT+P8pULallII4IQAAAABJRU5ErkJggg==;" vertex="1" parent="1">
          <mxGeometry x="753" y="-610" width="976" height="646" as="geometry" />
        </mxCell>
        <mxCell id="brs4Lbw3h4MbE__pO9lw-23" value="&lt;blockquote style=&quot;margin: 0px 0px 0px 40px; border: none; padding: 0px; font-size: 15px;&quot;&gt;&lt;blockquote style=&quot;margin: 0 0 0 40px; border: none; padding: 0px;&quot;&gt;&lt;p style=&quot;text-align: left; margin: 10px auto; padding: 0px; color: rgb(34, 34, 34); font-family: &amp;quot;PingFang SC&amp;quot;, &amp;quot;Microsoft YaHei&amp;quot;, &amp;quot;Helvetica Neue&amp;quot;, Helvetica, Arial, sans-serif; background-color: rgb(255, 255, 255);&quot;&gt;&lt;br&gt;&lt;/p&gt;&lt;/blockquote&gt;&lt;/blockquote&gt;&lt;p style=&quot;font-size: 21px;&quot;&gt;&lt;/p&gt;" style="text;html=1;align=center;verticalAlign=middle;resizable=0;points=[];autosize=1;strokeColor=none;fillColor=none;" vertex="1" parent="1">
          <mxGeometry x="2900" y="-465" width="100" height="60" as="geometry" />
        </mxCell>
        <mxCell id="brs4Lbw3h4MbE__pO9lw-25" value="&lt;blockquote style=&quot;border: none; font-size: 15px; margin: 0px 0px 0px 40px; padding: 0px;&quot;&gt;&lt;p style=&quot;border-color: var(--border-color); text-align: left; margin: 10px auto; padding: 0px; color: rgb(34, 34, 34); font-family: &amp;quot;PingFang SC&amp;quot;, &amp;quot;Microsoft YaHei&amp;quot;, &amp;quot;Helvetica Neue&amp;quot;, Helvetica, Arial, sans-serif; background-color: rgb(255, 255, 255);&quot;&gt;&lt;font style=&quot;border-color: var(--border-color);&quot;&gt;在Spring Cloud微服务体系下，微服务之间的互相调用可以通过Feign进行声明式调用，在这个服务调用过程中Feign会通过Ribbon从服务注册中心获取目标微服务的服务器地址列表，之后在网络请求的过程中Ribbon就会将请求以负载均衡的方式打到微服务的不同实例上，从而实现Spring Cloud微服务架构中最为关键的功能即服务发现及客户端负载均衡调用。另一方面微服务在互相调用的过程中，为了防止某个微服务的故障消耗掉整个系统所有微服务的连接资源，所以在实施微服务调用的过程中我们会要求在调用方实施针对被调用微服务的熔断逻辑。而要实现这个逻辑场景在Spring Cloud微服务框架下我们是通过Hystrix这个框架来实现的。&lt;/font&gt;&lt;/p&gt;&lt;/blockquote&gt;&lt;blockquote style=&quot;border: none; font-size: 15px; margin: 0px 0px 0px 40px; padding: 0px;&quot;&gt;&lt;p style=&quot;border-color: var(--border-color); text-align: left; margin: 10px auto; padding: 0px; color: rgb(34, 34, 34); font-family: &amp;quot;PingFang SC&amp;quot;, &amp;quot;Microsoft YaHei&amp;quot;, &amp;quot;Helvetica Neue&amp;quot;, Helvetica, Arial, sans-serif; background-color: rgb(255, 255, 255);&quot;&gt;&lt;font style=&quot;border-color: var(--border-color);&quot;&gt;调用方会针对被调用微服务设置调用超时时间，一旦超时就会进入熔断逻辑，而这个故障指标信息也会返回给Hystrix组件，Hystrix组件会根据熔断情况判断被调微服务的故障情况从而打开熔断器，之后所有针对该微服务的请求就会直接进入熔断逻辑，直到被调微服务故障恢复，Hystrix断路器关闭为止。&lt;/font&gt;&lt;/p&gt;&lt;/blockquote&gt;" style="rounded=0;whiteSpace=wrap;html=1;" vertex="1" parent="1">
          <mxGeometry x="1740" y="-472" width="750" height="370" as="geometry" />
        </mxCell>
      </root>
    </mxGraphModel>
  </diagram>
</mxfile>
